Seymour-Heavy-Cyrillic.ufo
<glyph name="exclam" format="1">
  <advance width="1179"/>
  <unicode hex="0021"/>
  <outline>
    <contour>
      <point x="723" y="-155" type="curve"/>
      <point x="735" y="-35"/>
      <point x="756" y="203"/>
      <point x="759" y="244" type="curve"/>
      <point x="611" y="244"/>
      <point x="376" y="254"/>
      <point x="236" y="251" type="curve"/>
      <point x="197" y="-157" type="line"/>
      <point x="384" y="-157"/>
      <point x="696" y="-160"/>
    </contour>
    <contour>
      <point x="1118" y="1535" type="line"/>
      <point x="909" y="1535" type="line" smooth="yes"/>
      <point x="699.588" y="1535"/>
      <point x="432" y="1532"/>
      <point x="352" y="1532" type="curve" smooth="yes"/>
      <point x="333" y="1532"/>
      <point x="320" y="1524"/>
      <point x="319" y="1499" type="curve"/>
      <point x="369" y="436" type="line"/>
      <point x="565" y="436" type="line" smooth="yes"/>
      <point x="612" y="436"/>
      <point x="658" y="436"/>
      <point x="705" y="435" type="curve"/>
    </contour>
  </outline>
</glyph>
<glyph name="numbersign" format="1">
  <advance width="2016"/>
  <unicode hex="0023"/>
  <outline>
    <contour>
      <point x="916" y="705" type="line"/>
      <point x="938" y="840" type="line"/>
      <point x="1179" y="839" type="line"/>
      <point x="1156" y="705" type="line"/>
    </contour>
    <contour>
      <point x="132" y="715" type="line"/>
      <point x="100" y="456" type="line"/>
      <point x="368" y="455" type="line"/>
      <point x="307" y="12" type="line"/>
      <point x="799" y="17" type="line"/>
      <point x="871" y="453" type="line"/>
      <point x="1117" y="451" type="line"/>
      <point x="1061" y="7" type="line"/>
      <point x="1565" y="-2" type="line"/>
      <point x="1624" y="445" type="line"/>
      <point x="1915" y="445" type="line"/>
      <point x="1948" y="712" type="line"/>
      <point x="1670" y="712" type="line"/>
      <point x="1692" y="843" type="line"/>
      <point x="1950" y="842" type="line"/>
      <point x="1986" y="1088" type="line"/>
      <point x="1734" y="1088" type="line"/>
      <point x="1779" y="1461" type="line"/>
      <point x="1273" y="1461" type="line"/>
      <point x="1221" y="1087" type="line"/>
      <point x="979" y="1089" type="line"/>
      <point x="1024" y="1462" type="line"/>
      <point x="519" y="1462" type="line"/>
      <point x="467" y="1094" type="line"/>
      <point x="167" y="1097" type="line"/>
      <point x="137" y="840" type="line"/>
      <point x="423" y="837" type="line"/>
      <point x="407" y="715" type="line"/>
    </contour>
  </outline>
</glyph>
<glyph name="dollar" format="1">
  <advance width="1593"/>
  <unicode hex="0024"/>
  <outline>
    <contour>
      <point x="1182" y="1593" type="line"/>
      <point x="951" y="1582" type="line"/>
      <point x="922" y="1376" type="line"/>
      <point x="804" y="1357" type="line"/>
      <point x="825" y="1570" type="line"/>
      <point x="592" y="1550" type="line"/>
      <point x="574" y="1305" type="line"/>
      <point x="327" y="1217"/>
      <point x="251" y="1093"/>
      <point x="251" y="967" type="curve" smooth="yes"/>
      <point x="251" y="764"/>
      <point x="448" y="555"/>
      <point x="448" y="481" type="curve" smooth="yes"/>
      <point x="448" y="398"/>
      <point x="440" y="342"/>
      <point x="165" y="326" type="curve"/>
      <point x="122" y="27" type="line"/>
      <point x="263" y="27"/>
      <point x="391" y="39"/>
      <point x="480" y="54" type="curve"/>
      <point x="463" y="-161" type="line"/>
      <point x="475" y="-161"/>
      <point x="601" y="-159"/>
      <point x="681" y="-157" type="curve"/>
      <point x="703" y="85" type="line"/>
      <point x="806" y="119" type="line"/>
      <point x="787" y="-162" type="line"/>
      <point x="829" y="-161"/>
      <point x="957" y="-152"/>
      <point x="994" y="-152" type="curve" smooth="yes"/>
      <point x="999" y="-152" type="line" smooth="yes"/>
      <point x="1006" y="-52"/>
      <point x="1025" y="115"/>
      <point x="1029" y="161" type="curve"/>
      <point x="1267" y="230"/>
      <point x="1471" y="344"/>
      <point x="1471" y="496" type="curve" smooth="yes"/>
      <point x="1471" y="766"/>
      <point x="1153" y="823"/>
      <point x="1153" y="980" type="curve" smooth="yes"/>
      <point x="1153" y="1061"/>
      <point x="1247" y="1081"/>
      <point x="1338" y="1081" type="curve" smooth="yes"/>
      <point x="1421" y="1081"/>
      <point x="1501" y="1065"/>
      <point x="1510" y="1065" type="curve"/>
      <point x="1469" y="1365" type="line"/>
      <point x="1409" y="1374"/>
      <point x="1274" y="1385"/>
      <point x="1150" y="1385" type="curve"/>
    </contour>
  </outline>
</glyph>
<glyph name="percent" format="1">
  <advance width="2729"/>
  <unicode hex="0025"/>
  <outline>
    <contour>
      <point x="2176" y="-49" type="curve" smooth="yes"/>
      <point x="2502" y="-49"/>
      <point x="2687" y="150"/>
      <point x="2687" y="392" type="curve" smooth="yes"/>
      <point x="2687" y="608"/>
      <point x="2527" y="821"/>
      <point x="2190" y="821" type="curve" smooth="yes"/>
      <point x="1846" y="821"/>
      <point x="1675" y="610"/>
      <point x="1675" y="378" type="curve" smooth="yes"/>
      <point x="1675" y="147"/>
      <point x="1860" y="-49"/>
    </contour>
    <contour>
      <point x="2193" y="580" type="curve" smooth="yes"/>
      <point x="2308" y="580"/>
      <point x="2360" y="492"/>
      <point x="2360" y="381" type="curve" smooth="yes"/>
      <point x="2360" y="268"/>
      <point x="2310" y="178"/>
      <point x="2183" y="178" type="curve" smooth="yes"/>
      <point x="2063" y="178"/>
      <point x="2015" y="262"/>
      <point x="2015" y="375" type="curve" smooth="yes"/>
      <point x="2015" y="491"/>
      <point x="2068" y="580"/>
    </contour>
    <contour>
      <point x="847" y="148" type="curve"/>
      <point x="1059" y="74"/>
      <point x="1182" y="-1"/>
      <point x="1217" y="-1" type="curve"/>
      <point x="1941" y="1205" type="line"/>
      <point x="2033" y="1356" type="line"/>
      <point x="1605" y="1531" type="line"/>
      <point x="1352" y="1077"/>
      <point x="1091" y="582"/>
    </contour>
    <contour>
      <point x="603" y="563" type="curve" smooth="yes"/>
      <point x="932" y="563"/>
      <point x="1119" y="770"/>
      <point x="1119" y="1022" type="curve" smooth="yes"/>
      <point x="1119" y="1248"/>
      <point x="957" y="1467"/>
      <point x="618" y="1467" type="curve" smooth="yes"/>
      <point x="267" y="1467"/>
      <point x="95" y="1250"/>
      <point x="95" y="1006" type="curve" smooth="yes"/>
      <point x="95" y="767"/>
      <point x="281" y="563"/>
    </contour>
    <contour>
      <point x="614" y="1225" type="curve" smooth="yes"/>
      <point x="736" y="1225"/>
      <point x="794" y="1132"/>
      <point x="794" y="1017" type="curve" smooth="yes"/>
      <point x="794" y="899"/>
      <point x="740" y="806"/>
      <point x="606" y="806" type="curve" smooth="yes"/>
      <point x="475" y="806"/>
      <point x="427" y="892"/>
      <point x="427" y="1010" type="curve" smooth="yes"/>
      <point x="427" y="1132"/>
      <point x="482" y="1225"/>
    </contour>
  </outline>
</glyph>
<glyph name="ampersand" format="1">
  <advance width="1967"/>
  <unicode hex="0026"/>
  <outline>
    <contour>
      <point x="1299" y="143" type="curve"/>
      <point x="1611" y="-61" type="line"/>
      <point x="1664" y="9"/>
      <point x="1841" y="274"/>
      <point x="1841" y="276" type="curve"/>
      <point x="1660" y="394" type="line"/>
      <point x="1902" y="599" type="line"/>
      <point x="1718" y="826" type="line"/>
      <point x="1609" y="731"/>
      <point x="1484" y="662"/>
      <point x="1377" y="584" type="curve"/>
      <point x="1122" y="756" type="line"/>
      <point x="1353" y="901"/>
      <point x="1443" y="1039"/>
      <point x="1443" y="1154" type="curve" smooth="yes"/>
      <point x="1443" y="1342"/>
      <point x="1203" y="1470"/>
      <point x="952" y="1470" type="curve" smooth="yes"/>
      <point x="606" y="1470"/>
      <point x="399" y="1298"/>
      <point x="399" y="1088" type="curve" smooth="yes"/>
      <point x="399" y="979"/>
      <point x="455" y="859"/>
      <point x="577" y="748" type="curve"/>
      <point x="171" y="556"/>
      <point x="144" y="381"/>
      <point x="144" y="294" type="curve" smooth="yes"/>
      <point x="144" y="69"/>
      <point x="383" y="-40"/>
      <point x="620" y="-40" type="curve" smooth="yes"/>
      <point x="870" y="-40"/>
      <point x="1071" y="0"/>
    </contour>
    <contour>
      <point x="809" y="274" type="curve" smooth="yes"/>
      <point x="731" y="274"/>
      <point x="693" y="322"/>
      <point x="693" y="378" type="curve" smooth="yes"/>
      <point x="693" y="432"/>
      <point x="728" y="494"/>
      <point x="793" y="531" type="curve"/>
      <point x="1031" y="356" type="line"/>
      <point x="937" y="297"/>
      <point x="863" y="274"/>
    </contour>
    <contour>
      <point x="966" y="1221" type="curve" smooth="yes"/>
      <point x="1016" y="1221"/>
      <point x="1037" y="1191"/>
      <point x="1037" y="1155" type="curve" smooth="yes"/>
      <point x="1037" y="1116"/>
      <point x="1001" y="1035"/>
      <point x="894" y="967" type="curve"/>
      <point x="857" y="995"/>
      <point x="841" y="1050"/>
      <point x="841" y="1096" type="curve" smooth="yes"/>
      <point x="841" y="1155"/>
      <point x="870" y="1221"/>
    </contour>
  </outline>
</glyph>
<glyph name="quotesingle" format="1">
  <advance width="626"/>
  <unicode hex="0027"/>
  <outline>
    <contour>
      <point x="200" y="784" type="curve" smooth="yes"/>
      <point x="200" y="770"/>
      <point x="201" y="720"/>
      <point x="221" y="720" type="curve" smooth="yes"/>
      <point x="301" y="720"/>
      <point x="365" y="722"/>
      <point x="437" y="722" type="curve" smooth="yes"/>
      <point x="462" y="722"/>
      <point x="462" y="739"/>
      <point x="473" y="782" type="curve" smooth="yes"/>
      <point x="629" y="1419" type="line"/>
      <point x="629" y="1425" type="line" smooth="yes"/>
      <point x="629" y="1444"/>
      <point x="620" y="1449"/>
      <point x="608" y="1449" type="curve" smooth="yes"/>
      <point x="485" y="1449"/>
      <point x="331" y="1447"/>
      <point x="203" y="1447" type="curve"/>
      <point x="180" y="1443"/>
      <point x="174" y="1434"/>
      <point x="174" y="1399" type="curve" smooth="yes"/>
      <point x="174" y="1386" type="line"/>
      <point x="183" y="1185"/>
      <point x="191" y="972"/>
    </contour>
  </outline>
</glyph>
<glyph name="parenleft" format="1">
  <advance width="953"/>
  <unicode hex="0028"/>
  <outline>
    <contour>
      <point x="818" y="132" type="line"/>
      <point x="682" y="159"/>
      <point x="624" y="357"/>
      <point x="624" y="577" type="curve" smooth="yes"/>
      <point x="624" y="866"/>
      <point x="724" y="1195"/>
      <point x="874" y="1226" type="curve"/>
      <point x="876" y="1534" type="line"/>
      <point x="320" y="1512"/>
      <point x="92" y="1104"/>
      <point x="92" y="625" type="curve" smooth="yes"/>
      <point x="92" y="-34"/>
      <point x="622" y="-175"/>
      <point x="818" y="-175" type="curve"/>
    </contour>
  </outline>
</glyph>
<glyph name="parenright" format="1">
  <advance width="955"/>
  <unicode hex="0029"/>
  <outline>
    <contour>
      <point x="157" y="-180" type="curve"/>
      <point x="208" y="-180"/>
      <point x="252" y="-173"/>
      <point x="295" y="-160" type="curve"/>
      <point x="714" y="-66"/>
      <point x="909" y="319"/>
      <point x="909" y="706" type="curve" smooth="yes"/>
      <point x="909" y="849"/>
      <point x="880" y="1005"/>
      <point x="811" y="1138" type="curve"/>
      <point x="711" y="1340"/>
      <point x="504" y="1524"/>
      <point x="205" y="1534" type="curve"/>
      <point x="197" y="1500"/>
      <point x="165" y="1393"/>
      <point x="165" y="1221" type="curve"/>
      <point x="214" y="1214"/>
      <point x="255" y="1172"/>
      <point x="285" y="1111" type="curve"/>
      <point x="380" y="1029"/>
      <point x="435" y="863"/>
      <point x="435" y="689" type="curve" smooth="yes"/>
      <point x="435" y="436"/>
      <point x="346" y="173"/>
      <point x="157" y="146" type="curve"/>
      <point x="148" y="113"/>
      <point x="146" y="76"/>
      <point x="146" y="11" type="curve" smooth="yes"/>
      <point x="146" y="-38"/>
      <point x="146" y="-150"/>
    </contour>
  </outline>
</glyph>
<glyph name="asterisk" format="1">
  <advance width="1683"/>
  <unicode hex="002A"/>
  <outline>
    <contour>
      <point x="975" y="138" type="curve" smooth="yes"/>
      <point x="975" y="144"/>
      <point x="971" y="148"/>
      <point x="968" y="149" type="curve"/>
      <point x="984" y="149"/>
      <point x="982" y="150"/>
      <point x="988" y="205" type="curve" smooth="yes"/>
      <point x="997" y="290"/>
      <point x="1017" y="354"/>
      <point x="1032" y="438" type="curve"/>
      <point x="1317" y="251" type="line"/>
      <point x="1330" y="251"/>
      <point x="1341" y="256"/>
      <point x="1349" y="266" type="curve" smooth="yes"/>
      <point x="1422" y="364"/>
      <point x="1472" y="432"/>
      <point x="1493" y="461" type="curve"/>
      <point x="1504" y="497"/>
      <point x="1513" y="503"/>
      <point x="1513" y="507" type="curve"/>
      <point x="1183" y="778" type="line"/>
      <point x="1523" y="1021"/>
      <point x="1530" y="1023"/>
      <point x="1530" y="1039" type="curve" smooth="yes"/>
      <point x="1530" y="1041" type="line" smooth="yes"/>
      <point x="1530" y="1046"/>
      <point x="1476" y="1124"/>
      <point x="1351" y="1302" type="curve" smooth="yes"/>
      <point x="1350" y="1303"/>
      <point x="1349" y="1303"/>
      <point x="1347" y="1303" type="curve" smooth="yes"/>
      <point x="1346" y="1303"/>
      <point x="1345" y="1302"/>
      <point x="1344" y="1302" type="curve" smooth="yes"/>
      <point x="1343" y="1302"/>
      <point x="1342" y="1303"/>
      <point x="1340" y="1303" type="curve" smooth="yes"/>
      <point x="1310" y="1303"/>
      <point x="1192" y="1193"/>
      <point x="1081" y="1101" type="curve"/>
      <point x="1127" y="1425" type="line"/>
      <point x="1127" y="1431" type="line" smooth="yes"/>
      <point x="1127" y="1448"/>
      <point x="1126" y="1463"/>
      <point x="1112" y="1463" type="curve"/>
      <point x="1107" y="1462"/>
      <point x="1071" y="1462"/>
      <point x="1025" y="1462" type="curve" smooth="yes"/>
      <point x="876" y="1462"/>
      <point x="775" y="1461"/>
      <point x="750" y="1460" type="curve"/>
      <point x="748" y="1455"/>
      <point x="746" y="1450"/>
      <point x="746" y="1447" type="curve" smooth="yes"/>
      <point x="696" y="1086" type="line"/>
      <point x="624" y="1139"/>
      <point x="441" y="1291"/>
      <point x="407" y="1291" type="curve" smooth="yes"/>
      <point x="377" y="1291"/>
      <point x="335" y="1212"/>
      <point x="309" y="1172" type="curve" smooth="yes"/>
      <point x="238" y="1065"/>
      <point x="218" y="1035"/>
      <point x="218" y="1028" type="curve" smooth="yes"/>
      <point x="218" y="1015"/>
      <point x="320" y="945"/>
      <point x="564" y="778" type="curve"/>
      <point x="236" y="507" type="line"/>
      <point x="236" y="504"/>
      <point x="245" y="495"/>
      <point x="255" y="461" type="curve"/>
      <point x="269" y="440"/>
      <point x="321" y="388"/>
      <point x="386" y="315" type="curve"/>
      <point x="393" y="305"/>
      <point x="404" y="300"/>
      <point x="418" y="300" type="curve" smooth="yes"/>
      <point x="451" y="300"/>
      <point x="588" y="395"/>
      <point x="648" y="429" type="curve"/>
      <point x="640" y="340"/>
      <point x="632" y="260"/>
      <point x="626" y="174" type="curve"/>
      <point x="627" y="148"/>
      <point x="640" y="137"/>
      <point x="660" y="137" type="curve" smooth="yes"/>
      <point x="664" y="137" type="line"/>
      <point x="818" y="131"/>
      <point x="899" y="123"/>
      <point x="940" y="123" type="curve" smooth="yes"/>
      <point x="951" y="123" type="line" smooth="yes"/>
      <point x="965" y="123"/>
      <point x="975" y="124"/>
    </contour>
  </outline>
</glyph>
<glyph name="plus" format="1">
  <advance width="1073"/>
  <unicode hex="002B"/>
  <outline>
    <contour>
      <point x="77" y="450" type="curve"/>
      <point x="391" y="450" type="line"/>
      <point x="391" y="197" type="line"/>
      <point x="391" y="121" type="line"/>
      <point x="478" y="121"/>
      <point x="632" y="120"/>
      <point x="714" y="120" type="curve"/>
      <point x="714" y="282" type="line"/>
      <point x="714" y="454" type="line"/>
      <point x="877" y="454" type="line"/>
      <point x="1029" y="454" type="line"/>
      <point x="1034" y="569" type="line"/>
      <point x="1036" y="644"/>
      <point x="1039" y="715"/>
      <point x="1039" y="756" type="curve"/>
      <point x="976" y="756" type="line"/>
      <point x="729" y="756" type="line"/>
      <point x="729" y="834"/>
      <point x="731" y="963"/>
      <point x="731" y="1090" type="curve"/>
      <point x="503" y="1089" type="line" smooth="yes"/>
      <point x="481" y="1089"/>
      <point x="433" y="1088"/>
      <point x="411" y="1088" type="curve"/>
      <point x="411" y="816" type="line"/>
      <point x="411" y="754" type="line"/>
      <point x="97" y="754" type="line"/>
      <point x="91" y="668"/>
      <point x="77" y="520"/>
    </contour>
  </outline>
</glyph>
<glyph name="hyphen" format="1">
  <advance width="1577"/>
  <unicode hex="002D"/>
  <outline>
    <contour>
      <point x="290" y="887" type="curve"/>
      <point x="227" y="526" type="line"/>
      <point x="381" y="526" type="line"/>
      <point x="512" y="526"/>
      <point x="980" y="532"/>
      <point x="1290" y="538" type="curve"/>
      <point x="1301" y="588"/>
      <point x="1326" y="853"/>
      <point x="1326" y="881" type="curve"/>
      <point x="1326" y="915" type="line"/>
      <point x="1056" y="907"/>
      <point x="557" y="897"/>
    </contour>
  </outline>
</glyph>
<glyph name="period" format="1">
  <advance width="728"/>
  <unicode hex="002E"/>
  <outline>
    <contour>
      <point x="558" y="348" type="line"/>
      <point x="495" y="351" type="line"/>
      <point x="156" y="351" type="line"/>
      <point x="156" y="118" type="line" smooth="yes"/>
      <point x="156" y="46"/>
      <point x="156" y="17"/>
      <point x="158" y="-21" type="curve"/>
      <point x="217" y="-21" type="line" smooth="yes"/>
      <point x="554" y="-21" type="line"/>
      <point x="558" y="56" type="line"/>
    </contour>
  </outline>
</glyph>
<glyph name="slash" format="1">
  <advance width="1280"/>
  <unicode hex="002F"/>
  <outline>
    <contour>
      <point x="55" y="-119" type="curve"/>
      <point x="257" y="-163" type="line"/>
      <point x="539" y="-218" type="line"/>
      <point x="615" y="-36" type="line"/>
      <point x="1239" y="1473" type="line"/>
      <point x="1291" y="1597" type="line"/>
      <point x="783" y="1639" type="line"/>
      <point x="727" y="1507"/>
      <point x="589" y="1189"/>
      <point x="512" y="1005" type="curve" smooth="yes"/>
      <point x="356" y="632"/>
      <point x="238" y="332"/>
      <point x="100" y="2" type="curve"/>
      <point x="85" y="-40"/>
      <point x="70" y="-79"/>
    </contour>
  </outline>
</glyph>
<glyph name="zero" format="1">
  <advance width="2079"/>
  <unicode hex="0030"/>
  <outline>
    <contour>
      <point x="1010" y="-54" type="curve" smooth="yes"/>
      <point x="1563" y="-54"/>
      <point x="1953" y="202"/>
      <point x="1953" y="741" type="curve" smooth="yes"/>
      <point x="1953" y="1120"/>
      <point x="1706" y="1493"/>
      <point x="1098" y="1493" type="curve" smooth="yes"/>
      <point x="444" y="1493"/>
      <point x="126" y="1142"/>
      <point x="126" y="666" type="curve" smooth="yes"/>
      <point x="126" y="206"/>
      <point x="511" y="-54"/>
    </contour>
    <contour>
      <point x="1078" y="326" type="curve" smooth="yes"/>
      <point x="868" y="326"/>
      <point x="847" y="542"/>
      <point x="847" y="716" type="curve" smooth="yes"/>
      <point x="847" y="899"/>
      <point x="881" y="1122"/>
      <point x="1116" y="1122" type="curve" smooth="yes"/>
      <point x="1308" y="1122"/>
      <point x="1335" y="877"/>
      <point x="1335" y="741" type="curve" smooth="yes"/>
      <point x="1335" y="558"/>
      <point x="1307" y="326"/>
    </contour>
  </outline>
</glyph>
<glyph name="one" format="1">
  <advance width="1293"/>
  <unicode hex="0031"/>
  <outline>
    <contour>
      <point x="329" y="22" type="curve" smooth="yes"/>
      <point x="329" y="3" type="line"/>
      <point x="330" y="3"/>
      <point x="330" y="6"/>
      <point x="332" y="11" type="curve"/>
      <point x="345" y="-16"/>
      <point x="377" y="-25"/>
      <point x="415" y="-25" type="curve"/>
      <point x="1009" y="-7" type="line"/>
      <point x="1108" y="1308" type="line"/>
      <point x="1117" y="1402" type="line"/>
      <point x="1117" y="1416"/>
      <point x="1115" y="1423"/>
      <point x="1105" y="1424" type="curve"/>
      <point x="1105" y="1427" type="line" smooth="yes"/>
      <point x="1105" y="1434"/>
      <point x="1101" y="1436"/>
      <point x="1095" y="1436" type="curve"/>
      <point x="1096" y="1437"/>
      <point x="1096" y="1438"/>
      <point x="1096" y="1438" type="curve"/>
      <point x="132" y="1306" type="line"/>
      <point x="166" y="1006" type="line"/>
      <point x="437" y="1051" type="line"/>
      <point x="409" y="800"/>
      <point x="341" y="54"/>
      <point x="332" y="11" type="curve"/>
      <point x="330" y="14"/>
      <point x="329" y="18"/>
    </contour>
  </outline>
</glyph>
<glyph name="two" format="1">
  <advance width="1681"/>
  <unicode hex="0032"/>
  <outline>
    <contour>
      <point x="173" y="18" type="curve" smooth="yes"/>
      <point x="173" y="-3"/>
      <point x="190" y="-13"/>
      <point x="219" y="-13" type="curve" smooth="yes"/>
      <point x="1409" y="-7" type="line"/>
      <point x="1430" y="91"/>
      <point x="1486" y="296"/>
      <point x="1496" y="344" type="curve" smooth="yes"/>
      <point x="1496" y="345" type="line" smooth="yes"/>
      <point x="1496" y="353"/>
      <point x="1480" y="357"/>
      <point x="1451" y="357" type="curve" smooth="yes"/>
      <point x="1158" y="348" type="line"/>
      <point x="1157" y="348" type="line"/>
      <point x="1261" y="475"/>
      <point x="1532" y="804"/>
      <point x="1532" y="1085" type="curve" smooth="yes"/>
      <point x="1532" y="1100" type="line" smooth="yes"/>
      <point x="1522" y="1395"/>
      <point x="1228" y="1469"/>
      <point x="930" y="1469" type="curve" smooth="yes"/>
      <point x="670" y="1469"/>
      <point x="414" y="1413"/>
      <point x="367" y="1398" type="curve"/>
      <point x="288" y="1029" type="line" smooth="yes"/>
      <point x="288" y="1025"/>
      <point x="290" y="1018"/>
      <point x="298" y="1018" type="curve" smooth="yes"/>
      <point x="302" y="1018" type="line"/>
      <point x="437" y="1046"/>
      <point x="540" y="1057"/>
      <point x="619" y="1057" type="curve" smooth="yes"/>
      <point x="775" y="1057"/>
      <point x="811" y="1009"/>
      <point x="811" y="963" type="curve" smooth="yes"/>
      <point x="811" y="945"/>
      <point x="806" y="927"/>
      <point x="800" y="913" type="curve" smooth="yes"/>
      <point x="772" y="841"/>
      <point x="321" y="247"/>
      <point x="201" y="80" type="curve" smooth="yes"/>
      <point x="182" y="53"/>
      <point x="173" y="32"/>
    </contour>
  </outline>
</glyph>
<glyph name="three" format="1">
  <advance width="1637"/>
  <unicode hex="0033"/>
  <outline>
    <contour>
      <point x="1553" y="430" type="curve" smooth="yes"/>
      <point x="1553" y="642"/>
      <point x="1382" y="738"/>
      <point x="1264" y="782" type="curve"/>
      <point x="1369" y="838"/>
      <point x="1524" y="941"/>
      <point x="1524" y="1106" type="curve" smooth="yes"/>
      <point x="1524" y="1376"/>
      <point x="1207" y="1485"/>
      <point x="811" y="1485" type="curve" smooth="yes"/>
      <point x="630" y="1485"/>
      <point x="432" y="1462"/>
      <point x="241" y="1422" type="curve"/>
      <point x="241" y="1121" type="line"/>
      <point x="332" y="1144"/>
      <point x="465" y="1171"/>
      <point x="580" y="1171" type="curve" smooth="yes"/>
      <point x="669" y="1171"/>
      <point x="721" y="1103"/>
      <point x="721" y="1035" type="curve" smooth="yes"/>
      <point x="721" y="968"/>
      <point x="670" y="902"/>
      <point x="553" y="902" type="curve" smooth="yes"/>
      <point x="411" y="902" type="line"/>
      <point x="380" y="614" type="line"/>
      <point x="600" y="614" type="line" smooth="yes"/>
      <point x="693" y="614"/>
      <point x="738" y="552"/>
      <point x="738" y="489" type="curve" smooth="yes"/>
      <point x="738" y="423"/>
      <point x="689" y="356"/>
      <point x="593" y="356" type="curve" smooth="yes"/>
      <point x="489" y="356"/>
      <point x="360" y="378"/>
      <point x="253" y="405" type="curve"/>
      <point x="251" y="64" type="line"/>
      <point x="372" y="10"/>
      <point x="595" y="-38"/>
      <point x="815" y="-38" type="curve" smooth="yes"/>
      <point x="1305" y="-38"/>
      <point x="1553" y="170"/>
    </contour>
  </outline>
</glyph>
<glyph name="four" format="1">
  <advance width="1956"/>
  <unicode hex="0034"/>
  <outline>
    <contour>
      <point x="723" y="568" type="line"/>
      <point x="1013" y="1032" type="line"/>
      <point x="944" y="568" type="line"/>
    </contour>
    <contour>
      <point x="1893" y="548" type="curve" smooth="yes"/>
      <point x="1893" y="577"/>
      <point x="1860" y="582"/>
      <point x="1832" y="585" type="curve"/>
      <point x="1815" y="585"/>
      <point x="1800" y="582"/>
      <point x="1651" y="581" type="curve"/>
      <point x="1703" y="1438" type="line"/>
      <point x="1702" y="1450" type="line"/>
      <point x="1701" y="1476"/>
      <point x="1686" y="1484"/>
      <point x="1661" y="1484" type="curve" smooth="yes"/>
      <point x="1647" y="1484"/>
      <point x="1632" y="1480"/>
      <point x="1615" y="1481" type="curve"/>
      <point x="946" y="1480" type="line"/>
      <point x="84" y="278" type="line"/>
      <point x="81" y="272"/>
      <point x="79" y="267"/>
      <point x="79" y="261" type="curve" smooth="yes"/>
      <point x="79" y="241"/>
      <point x="99" y="226"/>
      <point x="135" y="226" type="curve" smooth="yes"/>
      <point x="908" y="226" type="line"/>
      <point x="879" y="17" type="line" smooth="yes"/>
      <point x="879" y="14" type="line" smooth="yes"/>
      <point x="879" y="-13"/>
      <point x="908" y="-21"/>
      <point x="937" y="-21" type="curve" smooth="yes"/>
      <point x="1008" y="-21"/>
      <point x="1543" y="-2"/>
      <point x="1590" y="10" type="curve" smooth="yes"/>
      <point x="1611" y="16"/>
      <point x="1615" y="29"/>
      <point x="1617" y="42" type="curve"/>
      <point x="1630" y="231" type="line"/>
      <point x="1720" y="231" type="line"/>
      <point x="1880" y="229"/>
      <point x="1844" y="236"/>
      <point x="1855" y="270" type="curve"/>
      <point x="1892" y="537" type="line" smooth="yes"/>
      <point x="1893" y="539"/>
      <point x="1893" y="543"/>
    </contour>
  </outline>
</glyph>
<glyph name="five" format="1">
  <advance width="1554"/>
  <unicode hex="0035"/>
  <outline>
    <contour>
      <point x="161" y="-26" type="line"/>
      <point x="827" y="-26"/>
      <point x="1441" y="23"/>
      <point x="1441" y="559" type="curve" smooth="yes"/>
      <point x="1441" y="864"/>
      <point x="1204" y="927"/>
      <point x="784" y="973" type="curve"/>
      <point x="784" y="1100" type="line"/>
      <point x="815" y="1100"/>
      <point x="875" y="1098"/>
      <point x="945" y="1098" type="curve" smooth="yes"/>
      <point x="1128" y="1098"/>
      <point x="1381" y="1114"/>
      <point x="1387" y="1235" type="curve" smooth="yes"/>
      <point x="1399" y="1475" type="line"/>
      <point x="265" y="1461" type="line"/>
      <point x="226" y="738" type="line"/>
      <point x="230" y="692" type="line"/>
      <point x="284" y="695"/>
      <point x="336" y="697"/>
      <point x="385" y="697" type="curve" smooth="yes"/>
      <point x="601" y="697"/>
      <point x="760" y="664"/>
      <point x="760" y="568" type="curve" smooth="yes"/>
      <point x="760" y="558"/>
      <point x="759" y="547"/>
      <point x="755" y="536" type="curve" smooth="yes"/>
      <point x="705" y="378"/>
      <point x="163" y="374"/>
      <point x="163" y="371" type="curve"/>
    </contour>
  </outline>
</glyph>
<glyph name="six" format="1">
  <advance width="2008"/>
  <unicode hex="0036"/>
  <outline>
    <contour>
      <point x="1026" y="270" type="curve" smooth="yes"/>
      <point x="892" y="270"/>
      <point x="848" y="364"/>
      <point x="848" y="496" type="curve" smooth="yes"/>
      <point x="848" y="624"/>
      <point x="886" y="774"/>
      <point x="1036" y="774" type="curve" smooth="yes"/>
      <point x="1169" y="774"/>
      <point x="1214" y="689"/>
      <point x="1214" y="538" type="curve" smooth="yes"/>
      <point x="1214" y="389"/>
      <point x="1173" y="270"/>
    </contour>
    <contour>
      <point x="831" y="1561" type="curve"/>
      <point x="830" y="1561" type="line"/>
      <point x="319" y="970" type="line" smooth="yes"/>
      <point x="183" y="813"/>
      <point x="132" y="693"/>
      <point x="132" y="546" type="curve" smooth="yes"/>
      <point x="132" y="372.667"/>
      <point x="279.118" y="-45"/>
      <point x="965" y="-45" type="curve" smooth="yes"/>
      <point x="1587" y="-45"/>
      <point x="1896" y="181"/>
      <point x="1896" y="551" type="curve" smooth="yes"/>
      <point x="1896" y="762"/>
      <point x="1701" y="1005"/>
      <point x="1291" y="1005" type="curve" smooth="yes"/>
      <point x="1224" y="1005" type="line" smooth="yes"/>
      <point x="1204" y="1005"/>
      <point x="1184" y="1005"/>
      <point x="1158" y="1003" type="curve"/>
      <point x="1238" y="1118"/>
      <point x="1396" y="1301"/>
      <point x="1491" y="1414" type="curve"/>
      <point x="1463" y="1429"/>
      <point x="881" y="1550"/>
    </contour>
  </outline>
</glyph>
<glyph name="seven" format="1">
  <advance width="1695"/>
  <unicode hex="0037"/>
  <outline>
    <contour>
      <point x="1338" y="1420" type="line"/>
      <point x="1059" y="1420"/>
      <point x="867" y="1418"/>
      <point x="300" y="1414" type="curve"/>
      <point x="232" y="1015" type="line"/>
      <point x="232" y="1007"/>
      <point x="268" y="1006"/>
      <point x="314" y="1006" type="curve" smooth="yes"/>
      <point x="422" y="1006" type="line" smooth="yes"/>
      <point x="743" y="1008" type="line"/>
      <point x="558" y="589" type="line"/>
      <point x="420" y="288"/>
      <point x="303" y="23"/>
      <point x="292" y="-1" type="curve" smooth="yes"/>
      <point x="289" y="-6"/>
      <point x="285" y="-12"/>
      <point x="285" y="-17" type="curve"/>
      <point x="1019" y="-23" type="line"/>
      <point x="1373" y="747" type="line"/>
      <point x="1690" y="1411" type="line"/>
    </contour>
  </outline>
</glyph>
<glyph name="eight" format="1">
  <advance width="2099"/>
  <unicode hex="0038"/>
  <outline>
    <contour>
      <point x="1112" y="1226" type="curve" smooth="yes"/>
      <point x="1192" y="1226"/>
      <point x="1272" y="1175"/>
      <point x="1272" y="1083" type="curve" smooth="yes"/>
      <point x="1272" y="985"/>
      <point x="1196" y="940"/>
      <point x="1118" y="940" type="curve" smooth="yes"/>
      <point x="1039" y="940"/>
      <point x="959" y="987"/>
      <point x="959" y="1075" type="curve" smooth="yes"/>
      <point x="959" y="1178"/>
      <point x="1035" y="1226"/>
    </contour>
    <contour>
      <point x="1302" y="471" type="curve" smooth="yes"/>
      <point x="1302" y="383"/>
      <point x="1245" y="294"/>
      <point x="1126" y="294" type="curve" smooth="yes"/>
      <point x="997" y="294"/>
      <point x="936" y="377"/>
      <point x="936" y="463" type="curve" smooth="yes"/>
      <point x="936" y="554"/>
      <point x="1005" y="647"/>
      <point x="1136" y="647" type="curve" smooth="yes"/>
      <point x="1245" y="647"/>
      <point x="1302" y="559"/>
    </contour>
    <contour>
      <point x="1090" y="1502" type="curve" smooth="yes"/>
      <point x="1067" y="1502" type="line" smooth="yes"/>
      <point x="667" y="1502"/>
      <point x="357" y="1396"/>
      <point x="357" y="1083" type="curve" smooth="yes"/>
      <point x="357" y="980"/>
      <point x="403" y="887"/>
      <point x="554" y="817" type="curve"/>
      <point x="352" y="735"/>
      <point x="201" y="584"/>
      <point x="201" y="372" type="curve" smooth="yes"/>
      <point x="201" y="48"/>
      <point x="656" y="-54"/>
      <point x="1071" y="-54" type="curve" smooth="yes"/>
      <point x="1600" y="-54"/>
      <point x="1951" y="95"/>
      <point x="1951" y="442" type="curve" smooth="yes"/>
      <point x="1951" y="645"/>
      <point x="1825" y="757"/>
      <point x="1669" y="839" type="curve"/>
      <point x="1773" y="903"/>
      <point x="1856" y="1012"/>
      <point x="1856" y="1148" type="curve" smooth="yes"/>
      <point x="1856" y="1391"/>
      <point x="1511" y="1498"/>
    </contour>
  </outline>
</glyph>
<glyph name="nine" format="1">
  <advance width="2024"/>
  <unicode hex="0039"/>
  <outline>
    <contour>
      <point x="1021" y="1160" type="curve" smooth="yes"/>
      <point x="1155" y="1160"/>
      <point x="1199" y="1066"/>
      <point x="1199" y="934" type="curve" smooth="yes"/>
      <point x="1199" y="806"/>
      <point x="1161" y="656"/>
      <point x="1011" y="656" type="curve" smooth="yes"/>
      <point x="878" y="656"/>
      <point x="833" y="741"/>
      <point x="833" y="892" type="curve" smooth="yes"/>
      <point x="833" y="1041"/>
      <point x="874" y="1160"/>
    </contour>
    <contour>
      <point x="1217" y="-131" type="line"/>
      <point x="1728" y="460" type="line" smooth="yes"/>
      <point x="1864" y="617"/>
      <point x="1915" y="737"/>
      <point x="1915" y="884" type="curve" smooth="yes"/>
      <point x="1915" y="1057"/>
      <point x="1768" y="1475"/>
      <point x="1082" y="1475" type="curve" smooth="yes"/>
      <point x="460" y="1475"/>
      <point x="151" y="1249"/>
      <point x="151" y="879" type="curve" smooth="yes"/>
      <point x="151" y="689"/>
      <point x="320" y="416"/>
      <point x="761" y="416" type="curve" smooth="yes"/>
      <point x="810" y="416"/>
      <point x="832" y="420"/>
      <point x="889" y="427" type="curve"/>
      <point x="809" y="312"/>
      <point x="651" y="129"/>
      <point x="556" y="16" type="curve"/>
      <point x="584" y="1"/>
      <point x="1166" y="-120"/>
      <point x="1216" y="-131" type="curve"/>
    </contour>
  </outline>
</glyph>
<glyph name="colon" format="1">
  <advance width="820"/>
  <unicode hex="003A"/>
  <outline>
    <contour>
      <point x="643" y="414" type="line"/>
      <point x="576" y="414" type="line"/>
      <point x="199" y="411" type="line"/>
      <point x="199" y="71" type="line"/>
      <point x="201" y="-1" type="line"/>
      <point x="261" y="-1" type="line" smooth="yes"/>
      <point x="371" y="-1"/>
      <point x="502" y="0"/>
      <point x="637" y="4" type="curve"/>
    </contour>
    <contour>
      <point x="643" y="1111" type="line"/>
      <point x="576" y="1111" type="line"/>
      <point x="199" y="1108" type="line"/>
      <point x="199" y="768" type="line"/>
      <point x="201" y="696" type="line"/>
      <point x="261" y="696" type="line" smooth="yes"/>
      <point x="371" y="696"/>
      <point x="502" y="697"/>
      <point x="637" y="701" type="curve"/>
    </contour>
  </outline>
</glyph>
<glyph name="semicolon" format="1">
  <advance width="848"/>
  <unicode hex="003B"/>
  <outline>
    <contour>
      <point x="627" y="30" type="curve" smooth="yes"/>
      <point x="626" y="268" type="line"/>
      <point x="627" y="287"/>
      <point x="625" y="367"/>
      <point x="624" y="384" type="curve"/>
      <point x="609" y="386"/>
      <point x="592" y="387"/>
      <point x="575" y="387" type="curve" smooth="yes"/>
      <point x="467" y="387"/>
      <point x="309" y="386"/>
      <point x="200" y="386" type="curve"/>
      <point x="201" y="332"/>
      <point x="197" y="93"/>
      <point x="197" y="22" type="curve" smooth="yes"/>
      <point x="197" y="-35" type="line"/>
      <point x="416" y="-35" type="line"/>
      <point x="399" y="-89"/>
      <point x="296" y="-227"/>
      <point x="171" y="-262" type="curve"/>
      <point x="171" y="-411" type="line"/>
      <point x="473" y="-359"/>
      <point x="627" y="-150"/>
    </contour>
    <contour>
      <point x="643" y="1111" type="line"/>
      <point x="576" y="1111" type="line"/>
      <point x="199" y="1108" type="line"/>
      <point x="199" y="768" type="line"/>
      <point x="201" y="696" type="line"/>
      <point x="261" y="696" type="line" smooth="yes"/>
      <point x="371" y="696"/>
      <point x="502" y="697"/>
      <point x="637" y="701" type="curve"/>
    </contour>
  </outline>
</glyph>
<glyph name="equal" format="1">
  <advance width="1057"/>
  <unicode hex="003D"/>
  <outline>
    <contour>
      <point x="516" y="287" type="curve" smooth="yes"/>
      <point x="638" y="287"/>
      <point x="770" y="287"/>
      <point x="876" y="290" type="curve"/>
      <point x="874" y="546" type="line"/>
      <point x="592" y="542" type="line"/>
      <point x="176" y="542" type="line"/>
      <point x="170" y="288" type="line"/>
      <point x="211" y="288"/>
      <point x="354" y="287"/>
    </contour>
    <contour>
      <point x="307" y="765" type="line" smooth="yes"/>
      <point x="405" y="765"/>
      <point x="649" y="769"/>
      <point x="878" y="774" type="curve"/>
      <point x="889" y="1028" type="line"/>
      <point x="495" y="1025" type="line"/>
      <point x="186" y="1025" type="line"/>
      <point x="181" y="971" type="line"/>
      <point x="168" y="765" type="line"/>
    </contour>
  </outline>
</glyph>
<glyph name="greater" format="1">
  <advance width="1051"/>
  <unicode hex="003E"/>
  <outline>
    <contour>
      <point x="1053" y="742" type="curve" smooth="yes"/>
      <point x="1051.63" y="751.617"/>
      <point x="1047.9" y="761"/>
      <point x="1040" y="761" type="curve"/>
      <point x="907" y="825"/>
      <point x="524" y="960"/>
      <point x="244" y="1068" type="curve"/>
      <point x="223" y="1074"/>
      <point x="208" y="1077"/>
      <point x="199" y="1077" type="curve" smooth="yes"/>
      <point x="190" y="1077"/>
      <point x="185" y="1072"/>
      <point x="183" y="1061" type="curve"/>
      <point x="175" y="958"/>
      <point x="168" y="840"/>
      <point x="144" y="740" type="curve"/>
      <point x="144" y="725"/>
      <point x="148" y="718"/>
      <point x="156" y="717" type="curve"/>
      <point x="596" y="555" type="line"/>
      <point x="551" y="531"/>
      <point x="209" y="360"/>
      <point x="140" y="324" type="curve" smooth="yes"/>
      <point x="133" y="321"/>
      <point x="132" y="318"/>
      <point x="132" y="313" type="curve" smooth="yes"/>
      <point x="132" y="309"/>
      <point x="133" y="305"/>
      <point x="134" y="301" type="curve" smooth="yes"/>
      <point x="186" y="201"/>
      <point x="220" y="94"/>
      <point x="259" y="-10" type="curve" smooth="yes"/>
      <point x="264" y="-23"/>
      <point x="269" y="-29"/>
      <point x="284" y="-29" type="curve" smooth="yes"/>
      <point x="295" y="-29"/>
      <point x="303" y="-25"/>
      <point x="322" y="-17" type="curve"/>
      <point x="978" y="365" type="line"/>
      <point x="1021" y="386"/>
      <point x="1032" y="394"/>
      <point x="1032" y="421" type="curve"/>
      <point x="1036" y="522"/>
      <point x="1040" y="625"/>
      <point x="1052" y="737" type="curve" smooth="yes"/>
      <point x="1052" y="740"/>
      <point x="1053" y="741"/>
    </contour>
  </outline>
</glyph>
<glyph name="question" format="1">
  <advance width="1531"/>
  <unicode hex="003F"/>
  <outline>
    <contour>
      <point x="659" y="-49" type="curve" smooth="yes"/>
      <point x="788" y="-49"/>
      <point x="837" y="-47"/>
      <point x="950" y="-46" type="curve"/>
      <point x="1010" y="-46" type="line"/>
      <point x="1008" y="276" type="line"/>
      <point x="874" y="276"/>
      <point x="809" y="274"/>
      <point x="650" y="274" type="curve"/>
      <point x="648" y="-38" type="line" smooth="yes"/>
      <point x="648" y="-49"/>
      <point x="648" y="-49"/>
    </contour>
    <contour>
      <point x="973" y="1053" type="curve" smooth="yes"/>
      <point x="973" y="929"/>
      <point x="861" y="749"/>
      <point x="609" y="603" type="curve"/>
      <point x="758" y="403" type="line"/>
      <point x="1102" y="499"/>
      <point x="1463" y="750"/>
      <point x="1463" y="1074" type="curve" smooth="yes"/>
      <point x="1463" y="1371"/>
      <point x="1224" y="1542"/>
      <point x="883" y="1542" type="curve" smooth="yes"/>
      <point x="633" y="1542"/>
      <point x="229" y="1447"/>
      <point x="229" y="1072" type="curve" smooth="yes"/>
      <point x="229" y="1030"/>
      <point x="250" y="962"/>
      <point x="274" y="926" type="curve"/>
      <point x="356" y="942" type="line"/>
      <point x="679" y="1014" type="line"/>
      <point x="679" y="1023"/>
      <point x="662" y="1055"/>
      <point x="662" y="1090" type="curve" smooth="yes"/>
      <point x="662" y="1161"/>
      <point x="739" y="1199"/>
      <point x="816" y="1199" type="curve" smooth="yes"/>
      <point x="917" y="1199"/>
      <point x="973" y="1139"/>
    </contour>
  </outline>
</glyph>
<glyph name="at" format="1">
  <advance width="1951"/>
  <unicode hex="0040"/>
  <outline>
    <contour>
      <point x="1390" y="222" type="curve" smooth="yes"/>
      <point x="1669" y="212"/>
      <point x="1833" y="457"/>
      <point x="1833" y="737" type="curve" smooth="yes"/>
      <point x="1833" y="1178"/>
      <point x="1537" y="1468"/>
      <point x="1109" y="1468" type="curve" smooth="yes"/>
      <point x="597" y="1468"/>
      <point x="132" y="1116"/>
      <point x="132" y="579" type="curve" smooth="yes"/>
      <point x="132" y="234"/>
      <point x="376.118" y="-176"/>
      <point x="1022" y="-176" type="curve"/>
      <point x="1080" y="0" type="line"/>
      <point x="677" y="0"/>
      <point x="388" y="241"/>
      <point x="388" y="569" type="curve" smooth="yes"/>
      <point x="388" y="944"/>
      <point x="655" y="1271"/>
      <point x="1080" y="1271" type="curve" smooth="yes"/>
      <point x="1420" y="1271"/>
      <point x="1614" y="1075"/>
      <point x="1614" y="738" type="curve" smooth="yes"/>
      <point x="1614" y="466"/>
      <point x="1514" y="367"/>
      <point x="1432" y="367" type="curve" smooth="yes"/>
      <point x="1376" y="367"/>
      <point x="1328" y="415"/>
      <point x="1328" y="485" type="curve" smooth="yes"/>
      <point x="1328" y="494"/>
      <point x="1328" y="544"/>
      <point x="1329" y="551" type="curve" smooth="yes"/>
      <point x="1395" y="1033" type="line"/>
      <point x="1177" y="1043" type="line"/>
      <point x="1138" y="957" type="line"/>
      <point x="1115" y="1016"/>
      <point x="1045" y="1051"/>
      <point x="985" y="1051" type="curve" smooth="yes"/>
      <point x="780" y="1051"/>
      <point x="600" y="867"/>
      <point x="588" y="599" type="curve" smooth="yes"/>
      <point x="588" y="577" type="line" smooth="yes"/>
      <point x="588" y="361"/>
      <point x="731" y="256"/>
      <point x="885" y="256" type="curve" smooth="yes"/>
      <point x="950" y="256"/>
      <point x="1058" y="309"/>
      <point x="1102" y="422" type="curve"/>
      <point x="1147" y="255"/>
      <point x="1277" y="226"/>
    </contour>
    <contour>
      <point x="1060" y="480" type="line"/>
      <point x="1027" y="457"/>
      <point x="965" y="442"/>
      <point x="941" y="442" type="curve" smooth="yes"/>
      <point x="843" y="442"/>
      <point x="803" y="518"/>
      <point x="803" y="606" type="curve" smooth="yes"/>
      <point x="803" y="727"/>
      <point x="878" y="869"/>
      <point x="985" y="869" type="curve" smooth="yes"/>
      <point x="1022" y="869"/>
      <point x="1086" y="843"/>
      <point x="1106" y="824" type="curve"/>
    </contour>
  </outline>
</glyph>
<glyph name="A" format="1">
  <advance width="2276"/>
  <unicode hex="0041"/>
  <outline>
    <contour>
      <point x="1226" y="540" type="curve"/>
      <point x="909" y="540" type="line"/>
      <point x="947" y="641"/>
      <point x="1005" y="779"/>
      <point x="1083" y="1021" type="curve"/>
      <point x="1130" y="840"/>
      <point x="1179" y="691"/>
    </contour>
    <contour>
      <point x="580" y="-22" type="curve" smooth="yes"/>
      <point x="624" y="-22"/>
      <point x="655" y="-19"/>
      <point x="684" y="-15" type="curve"/>
      <point x="714" y="68"/>
      <point x="731" y="101"/>
      <point x="759" y="173" type="curve"/>
      <point x="829" y="173"/>
      <point x="1302" y="171"/>
      <point x="1350" y="165" type="curve"/>
      <point x="1371" y="93"/>
      <point x="1391" y="40"/>
      <point x="1427" y="-24" type="curve"/>
      <point x="1466" y="-26"/>
      <point x="1506" y="-30"/>
      <point x="1547" y="-30" type="curve" smooth="yes"/>
      <point x="1566" y="-30"/>
      <point x="1585" y="-29"/>
      <point x="2205" y="29" type="curve"/>
      <point x="2184" y="77"/>
      <point x="2152" y="123"/>
      <point x="2121" y="205" type="curve"/>
      <point x="1957" y="586"/>
      <point x="1601" y="1414"/>
      <point x="1596" y="1431" type="curve"/>
      <point x="1541" y="1449"/>
      <point x="1478" y="1451"/>
      <point x="1415" y="1451" type="curve" smooth="yes"/>
      <point x="1156" y="1451"/>
      <point x="912" y="1421"/>
      <point x="711" y="1410" type="curve"/>
      <point x="340" y="599"/>
      <point x="122" y="133"/>
      <point x="71" y="30" type="curve"/>
      <point x="176" y="19"/>
      <point x="537" y="-22"/>
    </contour>
    <contour>
      <point x="1138" y="1465" type="move" name="top"/>
    </contour>
    <contour>
      <point x="2048" y="10" type="move" name="ogonek"/>
    </contour>
  </outline>
</glyph>
<glyph name="B" format="1">
  <advance width="2365"/>
  <unicode hex="0042"/>
  <outline>
    <contour>
      <point x="949" y="258" type="curve"/>
      <point x="955" y="344"/>
      <point x="964" y="468"/>
      <point x="974" y="614" type="curve"/>
      <point x="1366" y="614"/>
      <point x="1541" y="580"/>
      <point x="1562" y="468" type="curve" smooth="yes"/>
      <point x="1563" y="462"/>
      <point x="1564" y="455"/>
      <point x="1564" y="449" type="curve" smooth="yes"/>
      <point x="1568" y="310"/>
      <point x="1221" y="258"/>
    </contour>
    <contour>
      <point x="992" y="845" type="line"/>
      <point x="1002" y="981"/>
      <point x="1014" y="1081"/>
      <point x="1024" y="1141" type="curve"/>
      <point x="1058" y="1146"/>
      <point x="1059" y="1148"/>
      <point x="1103" y="1148" type="curve" smooth="yes"/>
      <point x="1283" y="1148"/>
      <point x="1506" y="1124"/>
      <point x="1509" y="1007" type="curve" smooth="yes"/>
      <point x="1509" y="997"/>
      <point x="1507" y="987"/>
      <point x="1504" y="977" type="curve" smooth="yes"/>
      <point x="1484" y="903"/>
      <point x="1407" y="845"/>
      <point x="1117" y="845" type="curve" smooth="yes"/>
    </contour>
    <contour>
      <point x="1085" y="-52" type="curve" smooth="yes"/>
      <point x="1989" y="-52"/>
      <point x="2233" y="202"/>
      <point x="2225" y="538" type="curve" smooth="yes"/>
      <point x="2222" y="680"/>
      <point x="2066" y="775"/>
      <point x="1867" y="807" type="curve"/>
      <point x="2031" y="847"/>
      <point x="2175" y="978"/>
      <point x="2173" y="1093" type="curve" smooth="yes"/>
      <point x="2167" y="1346"/>
      <point x="1817" y="1468"/>
      <point x="1256" y="1468" type="curve" smooth="yes"/>
      <point x="984" y="1468"/>
      <point x="419" y="1420"/>
      <point x="277" y="1364" type="curve"/>
      <point x="264" y="1009" type="line"/>
      <point x="265" y="1009" type="line"/>
      <point x="243" y="703"/>
      <point x="219" y="347"/>
      <point x="204" y="60" type="curve" smooth="yes"/>
      <point x="204" y="56"/>
      <point x="203" y="56"/>
      <point x="204" y="52" type="curve" smooth="yes"/>
      <point x="204" y="35"/>
      <point x="211" y="20"/>
      <point x="238" y="13" type="curve"/>
      <point x="349" y="-11"/>
      <point x="842" y="-52"/>
    </contour>
  </outline>
</glyph>
<glyph name="C" format="1">
  <advance width="1742"/>
  <unicode hex="0043"/>
  <outline>
    <contour>
      <point x="133" y="702" type="curve" smooth="yes"/>
      <point x="133" y="125"/>
      <point x="698" y="-45"/>
      <point x="1236" y="-45" type="curve" smooth="yes"/>
      <point x="1321" y="-45"/>
      <point x="1428" y="-42"/>
      <point x="1536" y="-30" type="curve"/>
      <point x="1536" y="409" type="line"/>
      <point x="1442" y="391"/>
      <point x="1327" y="374"/>
      <point x="1262" y="374" type="curve"/>
      <point x="1055" y="379"/>
      <point x="903" y="461"/>
      <point x="903" y="710" type="curve" smooth="yes"/>
      <point x="903" y="933"/>
      <point x="1059" y="1015"/>
      <point x="1268" y="1015" type="curve" smooth="yes"/>
      <point x="1366" y="1015"/>
      <point x="1456" y="1008"/>
      <point x="1536" y="997" type="curve"/>
      <point x="1536" y="1453" type="line"/>
      <point x="1474" y="1460"/>
      <point x="1409" y="1463"/>
      <point x="1343" y="1463" type="curve" smooth="yes"/>
      <point x="1291" y="1463"/>
      <point x="1238" y="1461"/>
      <point x="1185" y="1457" type="curve" smooth="yes"/>
      <point x="665" y="1415"/>
      <point x="133" y="1246"/>
    </contour>
    <contour>
      <point x="850" y="1465" type="move" name="top"/>
    </contour>
    <contour>
      <point x="850" y="0" type="move" name="bottom"/>
    </contour>
  </outline>
</glyph>
<glyph name="D" format="1">
  <advance width="2319"/>
  <unicode hex="0044"/>
  <outline>
    <contour>
      <point x="955" y="1064" type="line"/>
      <point x="990" y="1066"/>
      <point x="1097" y="1072"/>
      <point x="1172" y="1072" type="curve" smooth="yes"/>
      <point x="1319" y="1072"/>
      <point x="1490" y="976"/>
      <point x="1490" y="744" type="curve" smooth="yes"/>
      <point x="1490" y="406"/>
      <point x="1278" y="363"/>
      <point x="922" y="360" type="curve"/>
    </contour>
    <contour>
      <point x="153" y="-22" type="curve"/>
      <point x="576" y="-22" type="line" smooth="yes"/>
      <point x="720" y="-22"/>
      <point x="864" y="-19"/>
      <point x="1010" y="-14" type="curve"/>
      <point x="1620" y="14"/>
      <point x="2188" y="19"/>
      <point x="2188" y="783" type="curve" smooth="yes"/>
      <point x="2188" y="1259"/>
      <point x="1797" y="1454"/>
      <point x="1287" y="1454" type="curve" smooth="yes"/>
      <point x="888" y="1454"/>
      <point x="267" y="1402"/>
      <point x="267" y="1402" type="curve"/>
      <point x="242" y="746"/>
      <point x="169" y="76"/>
    </contour>
    <contour>
      <point x="1160" y="1465" type="move" name="top"/>
    </contour>
    <contour>
      <point x="1160" y="733" type="move" name="center"/>
    </contour>
  </outline>
</glyph>
<glyph name="E" format="1">
  <advance width="2048"/>
  <unicode hex="0045"/>
  <outline>
    <contour>
      <point x="1318" y="-22" type="curve" smooth="yes"/>
      <point x="1562" y="-22"/>
      <point x="1695" y="-23"/>
      <point x="1934" y="-24" type="curve"/>
      <point x="1945" y="41"/>
      <point x="1966" y="78"/>
      <point x="1966" y="349" type="curve"/>
      <point x="916.004" y="349" type="line"/>
      <point x="927.004" y="556" type="line"/>
      <point x="987.004" y="557"/>
      <point x="1045" y="557"/>
      <point x="1104" y="557" type="curve" smooth="yes"/>
      <point x="1168.44" y="556.609"/>
      <point x="1223.34" y="556.448"/>
      <point x="1270.02" y="556.448" type="curve" smooth="yes"/>
      <point x="1462.38" y="556.448"/>
      <point x="1514.98" y="559.195"/>
      <point x="1519" y="560" type="curve"/>
      <point x="1541.52" y="646.319"/>
      <point x="1562.28" y="827.71"/>
      <point x="1562.28" y="878.692" type="curve" smooth="yes"/>
      <point x="1562.28" y="882.048"/>
      <point x="1562.19" y="884.839"/>
      <point x="1562" y="887" type="curve"/>
      <point x="1535" y="883"/>
      <point x="1508" y="882"/>
      <point x="1482" y="882" type="curve" smooth="yes"/>
      <point x="1455" y="882"/>
      <point x="1430" y="883"/>
      <point x="1406" y="883" type="curve" smooth="yes"/>
      <point x="1285" y="883"/>
      <point x="1115" y="882"/>
      <point x="940.004" y="880" type="curve"/>
      <point x="946.004" y="950"/>
      <point x="946.004" y="1004"/>
      <point x="952.004" y="1047" type="curve"/>
      <point x="1294" y="1049"/>
      <point x="1647" y="1045"/>
      <point x="1916" y="1069" type="curve"/>
      <point x="1957" y="1436" type="line"/>
      <point x="1897" y="1449"/>
      <point x="1823" y="1449"/>
      <point x="1761" y="1449" type="curve"/>
      <point x="1043" y="1433" type="line"/>
      <point x="400.004" y="1433" type="line"/>
      <point x="315.004" y="1429"/>
      <point x="309.004" y="1430"/>
      <point x="243.004" y="1428" type="curve"/>
      <point x="243.004" y="1399"/>
      <point x="176.004" y="-1"/>
      <point x="175.004" y="-2" type="curve" smooth="yes"/>
      <point x="376.004" y="3" type="line"/>
      <point x="376.004" y="3"/>
      <point x="1042" y="-22"/>
    </contour>
    <contour>
      <point x="1024" y="1465" type="move" name="top"/>
    </contour>
    <contour>
      <point x="1024" y="0" type="move" name="bottom"/>
    </contour>
    <contour>
      <point x="1843" y="10" type="move" name="ogonek"/>
    </contour>
  </outline>
</glyph>
<glyph name="F" format="1">
  <advance width="1912"/>
  <unicode hex="0046"/>
  <outline>
    <contour>
      <point x="905" y="0" type="curve"/>
      <point x="911" y="47"/>
      <point x="909" y="95"/>
      <point x="911" y="143" type="curve" smooth="yes"/>
      <point x="925" y="512" type="line"/>
      <point x="1288" y="514" type="line"/>
      <point x="1397" y="516"/>
      <point x="1491" y="519"/>
      <point x="1588" y="529" type="curve"/>
      <point x="1610" y="640"/>
      <point x="1633" y="757"/>
      <point x="1633" y="827" type="curve"/>
      <point x="1585" y="837"/>
      <point x="1532" y="839"/>
      <point x="1483" y="839" type="curve" smooth="yes"/>
      <point x="1338" y="839"/>
      <point x="1138" y="836"/>
      <point x="939" y="834" type="curve"/>
      <point x="941" y="915"/>
      <point x="941" y="971"/>
      <point x="949" y="1061" type="curve"/>
      <point x="1449" y="1067" type="line"/>
      <point x="1610" y="1067"/>
      <point x="1772" y="1067"/>
      <point x="1910" y="1084" type="curve"/>
      <point x="1929" y="1254" type="line"/>
      <point x="1943" y="1333"/>
      <point x="1951" y="1393"/>
      <point x="1951" y="1437" type="curve"/>
      <point x="1911" y="1447"/>
      <point x="1858" y="1449"/>
      <point x="1816" y="1449" type="curve" smooth="yes"/>
      <point x="1178" y="1440" type="line"/>
      <point x="497" y="1433" type="line"/>
      <point x="393" y="1429"/>
      <point x="293" y="1424"/>
      <point x="210" y="1420" type="curve"/>
      <point x="190" y="324" type="line" smooth="yes"/>
      <point x="188" y="217"/>
      <point x="178" y="83"/>
      <point x="177" y="-24" type="curve"/>
      <point x="245" y="-25" type="line" smooth="yes"/>
      <point x="292" y="-25"/>
      <point x="794.412" y="-2.35294"/>
    </contour>
  </outline>
</glyph>
<glyph name="G" format="1">
  <advance width="2198"/>
  <unicode hex="0047"/>
  <outline>
    <contour>
      <point x="1832" y="-10" type="line"/>
      <point x="1832" y="-10"/>
      <point x="1984" y="0"/>
      <point x="2020" y="0" type="curve"/>
      <point x="2020" y="777" type="line"/>
      <point x="1981" y="786"/>
      <point x="1313" y="787"/>
      <point x="1278" y="790" type="curve"/>
      <point x="1265" y="501" type="line"/>
      <point x="1503" y="501" type="line"/>
      <point x="1466" y="430"/>
      <point x="1382" y="361"/>
      <point x="1240" y="361" type="curve" smooth="yes"/>
      <point x="1041" y="361"/>
      <point x="909" y="476"/>
      <point x="909" y="705" type="curve" smooth="yes"/>
      <point x="909" y="972"/>
      <point x="1174" y="1040"/>
      <point x="1405" y="1040" type="curve" smooth="yes"/>
      <point x="1584" y="1040"/>
      <point x="1798" y="999"/>
      <point x="1884" y="978" type="curve"/>
      <point x="1884" y="1404" type="line"/>
      <point x="1745" y="1439"/>
      <point x="1457" y="1466"/>
      <point x="1325" y="1466" type="curve" smooth="yes"/>
      <point x="710" y="1466"/>
      <point x="126" y="1274"/>
      <point x="126" y="690" type="curve" smooth="yes"/>
      <point x="126" y="180"/>
      <point x="585" y="-45"/>
      <point x="1120" y="-45" type="curve" smooth="yes"/>
      <point x="1352" y="-45"/>
      <point x="1680" y="44"/>
      <point x="1802" y="194" type="curve"/>
    </contour>
    <contour>
      <point x="1099" y="1465" type="move" name="top"/>
    </contour>
    <contour>
      <point x="1099" y="0" type="move" name="bottom"/>
    </contour>
  </outline>
</glyph>
<glyph name="H" format="1">
  <advance width="2421"/>
  <unicode hex="0048"/>
  <outline>
    <contour>
      <point x="950" y="943" type="line"/>
      <point x="988" y="1453" type="line"/>
      <point x="984" y="1453.21"/>
      <point x="977.485" y="1453.32"/>
      <point x="968.804" y="1453.32" type="curve" smooth="yes"/>
      <point x="855.959" y="1453.32"/>
      <point x="377.214" y="1436.07"/>
      <point x="302" y="1424" type="curve"/>
      <point x="290" y="1410" type="line"/>
      <point x="286" y="1350" type="line"/>
      <point x="269" y="1184"/>
      <point x="262" y="1074"/>
      <point x="256" y="966" type="curve"/>
      <point x="237" y="456" type="line" smooth="yes"/>
      <point x="237" y="441"/>
      <point x="235" y="417"/>
      <point x="235" y="402" type="curve" smooth="yes"/>
      <point x="230" y="261"/>
      <point x="226" y="103"/>
      <point x="226" y="-17" type="curve"/>
      <point x="356.43" y="-23.0156" type="line" smooth="yes"/>
      <point x="376" y="-23.0156" type="line" smooth="yes"/>
      <point x="916" y="2" type="line"/>
      <point x="942" y="432" type="line"/>
      <point x="1476" y="432" type="line"/>
      <point x="1470" y="317"/>
      <point x="1462" y="60"/>
      <point x="1462" y="-11" type="curve"/>
      <point x="1537" y="-11"/>
      <point x="2124" y="2"/>
      <point x="2180" y="2" type="curve"/>
      <point x="2197" y="698"/>
      <point x="2201" y="677"/>
      <point x="2201" y="717" type="curve" smooth="yes"/>
      <point x="2201" y="792"/>
      <point x="2238" y="1434"/>
      <point x="2237" y="1454" type="curve"/>
      <point x="1661" y="1439" type="line"/>
      <point x="1619" y="1438"/>
      <point x="1554" y="1435"/>
      <point x="1509" y="1429" type="curve"/>
      <point x="1509" y="1338"/>
      <point x="1490" y="964"/>
      <point x="1488" y="943" type="curve"/>
    </contour>
    <contour>
      <point x="1211" y="1465" type="move" name="top"/>
    </contour>
    <contour>
      <point x="1211" y="733" type="move" name="center"/>
    </contour>
  </outline>
</glyph>
<glyph name="I" format="1">
  <advance width="1183"/>
  <unicode hex="0049"/>
  <outline>
    <contour>
      <point x="990" y="1449" type="curve"/>
      <point x="933" y="1449"/>
      <point x="875" y="1447"/>
      <point x="816" y="1447" type="curve"/>
      <point x="390.525" y="1396.09"/>
      <point x="333" y="1397"/>
      <point x="273" y="1368" type="curve"/>
      <point x="276" y="1353"/>
      <point x="277" y="1334"/>
      <point x="277" y="1312" type="curve" smooth="yes"/>
      <point x="277" y="1177"/>
      <point x="266" y="1003"/>
      <point x="256" y="789" type="curve"/>
      <point x="238" y="153" type="line"/>
      <point x="238" y="86"/>
      <point x="244" y="26"/>
      <point x="253" y="-30" type="curve"/>
      <point x="383" y="-30"/>
      <point x="632" y="15"/>
      <point x="771" y="15" type="curve"/>
      <point x="837" y="17"/>
      <point x="896" y="25"/>
      <point x="959" y="32" type="curve"/>
      <point x="958" y="38"/>
      <point x="958" y="45"/>
      <point x="958" y="51" type="curve" smooth="yes"/>
      <point x="958" y="72"/>
      <point x="960" y="92"/>
      <point x="961" y="112" type="curve" smooth="yes"/>
      <point x="974" y="578" type="line"/>
      <point x="987" y="835"/>
      <point x="985" y="1010"/>
      <point x="1001" y="1262" type="curve"/>
      <point x="1001" y="1333"/>
      <point x="998" y="1393"/>
    </contour>
    <contour>
      <point x="592" y="1465" type="move" name="top"/>
    </contour>
    <contour>
      <point x="1065" y="10" type="move" name="ogonek"/>
    </contour>
  </outline>
</glyph>
<glyph name="J" format="1">
  <advance width="1363"/>
  <unicode hex="004A"/>
  <outline>
    <contour>
      <point x="1209" y="1452" type="curve"/>
      <point x="1154" y="1450"/>
      <point x="1097" y="1447"/>
      <point x="1043" y="1447" type="curve"/>
      <point x="574" y="1408" type="line"/>
      <point x="514" y="1408"/>
      <point x="458" y="1406"/>
      <point x="405" y="1401" type="curve"/>
      <point x="408" y="1349"/>
      <point x="408" y="1296"/>
      <point x="409" y="1247" type="curve"/>
      <point x="409" y="997.979"/>
      <point x="407" y="729.314"/>
      <point x="407" y="689" type="curve" smooth="yes"/>
      <point x="407" y="413"/>
      <point x="317" y="274"/>
      <point x="96" y="236" type="curve"/>
      <point x="203" y="21"/>
      <point x="285" y="-109"/>
      <point x="298" y="-129" type="curve"/>
      <point x="694" y="-96"/>
      <point x="954" y="25"/>
      <point x="1105" y="284" type="curve"/>
      <point x="1175" y="402"/>
      <point x="1177" y="569"/>
      <point x="1191" y="854" type="curve" smooth="yes"/>
      <point x="1214" y="1315" type="line"/>
      <point x="1213" y="1364"/>
      <point x="1213" y="1409"/>
    </contour>
    <contour>
      <point x="682" y="1465" type="move" name="top"/>
    </contour>
  </outline>
</glyph>
<glyph name="K" format="1">
  <advance width="2332"/>
  <unicode hex="004B"/>
  <outline>
    <contour>
      <point x="2158" y="1248" type="line"/>
      <point x="2158" y="1248"/>
      <point x="2155" y="1249"/>
      <point x="2154" y="1251" type="curve"/>
      <point x="2154" y="1249" type="line"/>
      <point x="1782" y="1368" type="line"/>
      <point x="1430" y="1491" type="line"/>
      <point x="1365" y="1415" type="line"/>
      <point x="950" y="891" type="line"/>
      <point x="954" y="1008"/>
      <point x="957" y="1125"/>
      <point x="967" y="1262" type="curve"/>
      <point x="967" y="1333"/>
      <point x="964" y="1393"/>
      <point x="955" y="1449" type="curve"/>
      <point x="923" y="1449"/>
      <point x="891" y="1450"/>
      <point x="858" y="1450" type="curve" smooth="yes"/>
      <point x="694" y="1450"/>
      <point x="279" y="1397"/>
      <point x="217" y="1368" type="curve"/>
      <point x="220" y="1353"/>
      <point x="221" y="1334"/>
      <point x="221" y="1312" type="curve" smooth="yes"/>
      <point x="221" y="1177"/>
      <point x="210" y="1003"/>
      <point x="200" y="789" type="curve"/>
      <point x="181" y="153" type="line"/>
      <point x="181" y="86"/>
      <point x="187" y="26"/>
      <point x="196" y="-30" type="curve"/>
      <point x="330" y="-30"/>
      <point x="859" y="26"/>
      <point x="923" y="32" type="curve"/>
      <point x="923" y="36" type="line" smooth="yes"/>
      <point x="923" y="56"/>
      <point x="937" y="371"/>
      <point x="939" y="532" type="curve"/>
      <point x="1020" y="446"/>
      <point x="1294" y="200"/>
      <point x="1459" y="61" type="curve"/>
      <point x="1632" y="-81" type="line"/>
      <point x="1738" y="-27" type="line"/>
      <point x="2293" y="202" type="line"/>
      <point x="1637" y="716" type="line"/>
      <point x="2027" y="1108" type="line"/>
      <point x="2154" y="1242" type="line"/>
      <point x="2154" y="1249" type="line"/>
    </contour>
    <contour>
      <point x="1166" y="1465" type="move" name="top"/>
    </contour>
    <contour>
      <point x="1166" y="0" type="move" name="bottom"/>
    </contour>
  </outline>
</glyph>
<glyph name="L" format="1">
  <advance width="1936"/>
  <unicode hex="004C"/>
  <outline>
    <contour>
      <point x="168" y="-15" type="line"/>
      <point x="239" y="-20"/>
      <point x="274" y="-22"/>
      <point x="359" y="-22" type="curve" smooth="yes"/>
      <point x="517" y="-21"/>
      <point x="799" y="-20"/>
      <point x="1075" y="-20" type="curve" smooth="yes"/>
      <point x="1442" y="-20"/>
      <point x="1796" y="-21"/>
      <point x="1829" y="-21" type="curve"/>
      <point x="1861" y="200" type="line"/>
      <point x="1876" y="279"/>
      <point x="1877" y="323"/>
      <point x="1877" y="367" type="curve"/>
      <point x="1820" y="376"/>
      <point x="1759" y="380"/>
      <point x="1688" y="380" type="curve" smooth="yes"/>
      <point x="1683" y="380"/>
      <point x="1676" y="379"/>
      <point x="1668" y="378" type="curve" smooth="yes"/>
      <point x="903" y="360" type="line"/>
      <point x="922" y="624"/>
      <point x="935" y="758"/>
      <point x="942" y="950" type="curve"/>
      <point x="965" y="1450" type="line"/>
      <point x="565" y="1470"/>
      <point x="323" y="1440"/>
      <point x="221" y="1405" type="curve"/>
      <point x="207" y="1208"/>
      <point x="186" y="659"/>
      <point x="180" y="570" type="curve"/>
      <point x="164" y="243" type="line"/>
    </contour>
    <contour>
      <point x="968" y="1465" type="move" name="top"/>
    </contour>
    <contour>
      <point x="968" y="0" type="move" name="bottom"/>
    </contour>
  </outline>
</glyph>
<glyph name="M" format="1">
  <advance width="2687"/>
  <unicode hex="004D"/>
  <outline>
    <contour>
      <point x="147" y="173" type="curve"/>
      <point x="134" y="17" type="line"/>
      <point x="238" y="2"/>
      <point x="448" y="-9"/>
      <point x="591" y="-9" type="curve" smooth="yes"/>
      <point x="670" y="-9"/>
      <point x="740" y="-7"/>
      <point x="807" y="-4" type="curve"/>
      <point x="880" y="635" type="line"/>
      <point x="977" y="419"/>
      <point x="1177" y="23"/>
      <point x="1177" y="23" type="curve"/>
      <point x="1269" y="18"/>
      <point x="1445" y="21"/>
      <point x="1470" y="21" type="curve"/>
      <point x="1876" y="673" type="line"/>
      <point x="1893" y="518" type="line"/>
      <point x="1906" y="366"/>
      <point x="1939" y="-29"/>
      <point x="1939" y="-29" type="curve"/>
      <point x="2099" y="-29"/>
      <point x="2395" y="2"/>
      <point x="2557" y="13" type="curve"/>
      <point x="2550" y="136" type="line"/>
      <point x="2521" y="580" type="line"/>
      <point x="2515" y="798"/>
      <point x="2498" y="1035"/>
      <point x="2472" y="1427" type="curve"/>
      <point x="1725" y="1474" type="line"/>
      <point x="1331" y="779" type="line"/>
      <point x="1009" y="1370" type="line"/>
      <point x="973" y="1447" type="line"/>
      <point x="830.919" y="1436.51"/>
      <point x="286.023" y="1426.93"/>
      <point x="225.321" y="1426.93" type="curve" smooth="yes"/>
      <point x="222.365" y="1426.93"/>
      <point x="220.557" y="1426.95"/>
      <point x="220" y="1427" type="curve"/>
      <point x="170" y="471"/>
      <point x="160" y="306"/>
    </contour>
  </outline>
</glyph>
<glyph name="N" format="1">
  <advance width="2368"/>
  <unicode hex="004E"/>
  <outline>
    <contour>
      <point x="187" y="1391" type="line"/>
      <point x="187" y="1358.33"/>
      <point x="187.444" y="1248.33"/>
      <point x="187.444" y="1166.19" type="curve" smooth="yes"/>
      <point x="187.444" y="1125.11"/>
      <point x="187.333" y="1091"/>
      <point x="187" y="1077" type="curve" smooth="yes"/>
      <point x="176" y="762"/>
      <point x="165" y="427"/>
      <point x="154" y="137" type="curve"/>
      <point x="154" y="75"/>
      <point x="161" y="21"/>
      <point x="169" y="-29" type="curve"/>
      <point x="375" y="-29"/>
      <point x="622" y="22"/>
      <point x="773" y="32" type="curve"/>
      <point x="772.795" y="34.2573"/>
      <point x="772.632" y="36.4726"/>
      <point x="772.632" y="43.4939" type="curve" smooth="yes"/>
      <point x="772.632" y="70.6872"/>
      <point x="775.078" y="169.971"/>
      <point x="787" y="623" type="curve"/>
      <point x="1532" y="-45" type="line"/>
      <point x="2058" y="50"/>
      <point x="2140" y="47"/>
      <point x="2229" y="62" type="curve"/>
      <point x="2218" y="113"/>
      <point x="2217" y="169"/>
      <point x="2217" y="228" type="curve" smooth="yes"/>
      <point x="2217" y="229" type="line"/>
      <point x="2220" y="455" type="line" smooth="yes"/>
      <point x="2222" y="616"/>
      <point x="2224" y="808"/>
      <point x="2224" y="958" type="curve" smooth="yes"/>
      <point x="2224" y="1058"/>
      <point x="2226" y="1201"/>
      <point x="2233" y="1278" type="curve"/>
      <point x="2233" y="1342"/>
      <point x="2228" y="1397"/>
      <point x="2222" y="1447" type="curve"/>
      <point x="2172" y="1447"/>
      <point x="2120" y="1446"/>
      <point x="2071" y="1445" type="curve"/>
      <point x="1636" y="1420" type="line"/>
      <point x="1624" y="1380"/>
      <point x="1623" y="1334"/>
      <point x="1620" y="1279" type="curve"/>
      <point x="1620" y="839" type="line"/>
      <point x="1468" y="1016"/>
      <point x="1098" y="1433"/>
      <point x="1066" y="1470" type="curve"/>
    </contour>
    <contour>
      <point x="1184" y="1465" type="move" name="top"/>
    </contour>
    <contour>
      <point x="1184" y="0" type="move" name="bottom"/>
    </contour>
  </outline>
</glyph>
<glyph name="O" format="1">
  <advance width="2565"/>
  <unicode hex="004F"/>
  <outline>
    <contour>
      <point x="1283" y="361" type="curve"/>
      <point x="1066" y="361"/>
      <point x="927" y="454"/>
      <point x="927" y="705" type="curve"/>
      <point x="929" y="944"/>
      <point x="1069" y="1066"/>
      <point x="1294" y="1066" type="curve" smooth="yes"/>
      <point x="1503" y="1066"/>
      <point x="1646" y="989"/>
      <point x="1646" y="742" type="curve" smooth="yes"/>
      <point x="1646" y="484"/>
      <point x="1514" y="368"/>
    </contour>
    <contour>
      <point x="1235" y="-45" type="curve" smooth="yes"/>
      <point x="1757" y="-45"/>
      <point x="2439" y="113"/>
      <point x="2439" y="753" type="curve" smooth="yes"/>
      <point x="2439" y="1340.29"/>
      <point x="1808" y="1481"/>
      <point x="1278.01" y="1481.34" type="curve" smooth="yes"/>
      <point x="977" y="1481"/>
      <point x="126" y="1344.29"/>
      <point x="126" y="689" type="curve" smooth="yes"/>
      <point x="126" y="106"/>
      <point x="747" y="-45"/>
    </contour>
    <contour>
      <point x="1283" y="1465" type="move" name="top"/>
    </contour>
  </outline>
</glyph>
<glyph name="P" format="1">
  <advance width="2260"/>
  <unicode hex="0050"/>
  <outline>
    <contour>
      <point x="919" y="19" type="curve"/>
      <point x="940" y="447" type="line"/>
      <point x="987" y="447"/>
      <point x="1178" y="441"/>
      <point x="1306" y="441" type="curve" smooth="yes"/>
      <point x="1732" y="441"/>
      <point x="2177" y="532"/>
      <point x="2177" y="939" type="curve" smooth="yes"/>
      <point x="2177" y="1349"/>
      <point x="1754" y="1453"/>
      <point x="1331" y="1453" type="curve" smooth="yes"/>
      <point x="987" y="1453"/>
      <point x="595" y="1421"/>
      <point x="265" y="1363" type="curve"/>
      <point x="259" y="1109"/>
      <point x="245" y="470"/>
      <point x="237" y="270" type="curve"/>
      <point x="234" y="98" type="line" smooth="yes"/>
      <point x="233" y="64"/>
      <point x="232" y="28"/>
      <point x="229" y="-9" type="curve"/>
      <point x="240" y="-12"/>
      <point x="266" y="-13"/>
      <point x="302" y="-13" type="curve" smooth="yes"/>
      <point x="462" y="-13"/>
      <point x="820" y="12"/>
    </contour>
    <contour>
      <point x="1463" y="936" type="curve" smooth="yes"/>
      <point x="1463" y="835"/>
      <point x="1372" y="773"/>
      <point x="1162" y="773" type="curve" smooth="yes"/>
      <point x="1102" y="773"/>
      <point x="1032" y="778"/>
      <point x="952" y="789" type="curve"/>
      <point x="952" y="803"/>
      <point x="953" y="898"/>
      <point x="966" y="1044" type="curve"/>
      <point x="994" y="1058"/>
      <point x="1221" y="1071"/>
      <point x="1265" y="1071" type="curve" smooth="yes"/>
      <point x="1359" y="1071"/>
      <point x="1463" y="1057"/>
    </contour>
  </outline>
</glyph>
<glyph name="Q" format="1">
  <advance width="2516"/>
  <unicode hex="0051"/>
  <outline>
    <contour>
      <point x="1284" y="361" type="curve"/>
      <point x="1068" y="361"/>
      <point x="904" y="456"/>
      <point x="904" y="705" type="curve" smooth="yes"/>
      <point x="904" y="952"/>
      <point x="1063" y="1067"/>
      <point x="1287" y="1067" type="curve" smooth="yes"/>
      <point x="1512" y="1067"/>
      <point x="1621" y="967"/>
      <point x="1621" y="727" type="curve" smooth="yes"/>
      <point x="1621" y="549"/>
      <point x="1539" y="362"/>
      <point x="1291" y="362" type="curve" smooth="yes"/>
      <point x="1290" y="362"/>
      <point x="1289" y="363"/>
      <point x="1288" y="363" type="curve" smooth="yes"/>
      <point x="1287" y="363"/>
      <point x="1286" y="362"/>
    </contour>
    <contour>
      <point x="1651" y="-337" type="curve" smooth="yes"/>
      <point x="1655" y="-337"/>
      <point x="1907" y="-239"/>
      <point x="1907" y="-211" type="curve"/>
      <point x="1722" y="49" type="line"/>
      <point x="2328" y="170"/>
      <point x="2437" y="497"/>
      <point x="2437" y="756" type="curve" smooth="yes"/>
      <point x="2437" y="783"/>
      <point x="2436" y="808"/>
      <point x="2434" y="833" type="curve" smooth="yes"/>
      <point x="2397.37" y="1323.88"/>
      <point x="1735" y="1480"/>
      <point x="1274" y="1480" type="curve" smooth="yes"/>
      <point x="1008" y="1480"/>
      <point x="127" y="1346.65"/>
      <point x="127" y="689" type="curve" smooth="yes"/>
      <point x="127" y="166"/>
      <point x="587" y="-38"/>
      <point x="1085" y="-38" type="curve" smooth="yes"/>
      <point x="1195" y="-38"/>
      <point x="1300" y="-28"/>
      <point x="1398" y="-13" type="curve"/>
      <point x="1413" y="-30"/>
      <point x="1638" y="-337"/>
    </contour>
  </outline>
</glyph>
<glyph name="R" format="1">
  <advance width="2398"/>
  <unicode hex="0052"/>
  <outline>
    <contour>
      <point x="1005" y="1064" type="line"/>
      <point x="1081" y="1067"/>
      <point x="1137" y="1070"/>
      <point x="1235" y="1070" type="curve" smooth="yes"/>
      <point x="1322" y="1070"/>
      <point x="1477" y="1057"/>
      <point x="1477" y="954" type="curve" smooth="yes"/>
      <point x="1477" y="803"/>
      <point x="1255" y="812"/>
      <point x="988" y="782" type="curve"/>
    </contour>
    <contour>
      <point x="1628" y="-70" type="line"/>
      <point x="2292" y="19" type="line"/>
      <point x="2195" y="140"/>
      <point x="1943" y="501"/>
      <point x="1831" y="629" type="curve"/>
      <point x="2013" y="691"/>
      <point x="2188" y="822"/>
      <point x="2188" y="1027" type="curve" smooth="yes"/>
      <point x="2188" y="1415"/>
      <point x="1772" y="1449"/>
      <point x="1313" y="1449" type="curve"/>
      <point x="403" y="1394"/>
      <point x="308" y="1394"/>
      <point x="294" y="1394" type="curve"/>
      <point x="284" y="811" type="line"/>
      <point x="278" y="646" type="line" smooth="yes"/>
      <point x="269" y="406"/>
      <point x="258" y="143"/>
      <point x="258" y="-38" type="curve"/>
      <point x="492" y="-30" type="line"/>
      <point x="597" y="-30"/>
      <point x="821" y="-7"/>
      <point x="946" y="0" type="curve" smooth="yes"/>
      <point x="953" y="1"/>
      <point x="953" y="5"/>
      <point x="953" y="9" type="curve" smooth="yes"/>
      <point x="973" y="506" type="line"/>
      <point x="1218" y="523" type="line"/>
      <point x="1270" y="400"/>
      <point x="1464" y="0"/>
      <point x="1511" y="-86" type="curve"/>
    </contour>
    <contour>
      <point x="1199" y="1465" type="move" name="top"/>
    </contour>
    <contour>
      <point x="1199" y="0" type="move" name="bottom"/>
    </contour>
  </outline>
</glyph>
<glyph name="S" format="1">
  <advance width="2157"/>
  <unicode hex="0053"/>
  <outline>
    <contour>
      <point x="1019" y="-51" type="curve"/>
      <point x="1603" y="-51"/>
      <point x="2019" y="69"/>
      <point x="2019" y="454" type="curve" smooth="yes"/>
      <point x="2019" y="837"/>
      <point x="1506" y="879"/>
      <point x="1085" y="950" type="curve" smooth="yes"/>
      <point x="960" y="971"/>
      <point x="890" y="979"/>
      <point x="890" y="1019" type="curve" smooth="yes"/>
      <point x="890" y="1082"/>
      <point x="1027" y="1085"/>
      <point x="1102" y="1085" type="curve" smooth="yes"/>
      <point x="1247" y="1085"/>
      <point x="1522" y="1043"/>
      <point x="1799" y="968" type="curve"/>
      <point x="1837" y="1053"/>
      <point x="1862" y="1161"/>
      <point x="1907" y="1330" type="curve"/>
      <point x="1780" y="1392"/>
      <point x="1441" y="1465"/>
      <point x="1209" y="1465" type="curve" smooth="yes"/>
      <point x="724" y="1465"/>
      <point x="164" y="1421"/>
      <point x="164" y="985" type="curve" smooth="yes"/>
      <point x="164" y="574"/>
      <point x="656" y="534"/>
      <point x="1180" y="450" type="curve" smooth="yes"/>
      <point x="1201" y="447"/>
      <point x="1250" y="445"/>
      <point x="1250" y="399" type="curve" smooth="yes"/>
      <point x="1250" y="352"/>
      <point x="1158" y="344"/>
      <point x="1091" y="344" type="curve" smooth="yes"/>
      <point x="760" y="344"/>
      <point x="561" y="393"/>
      <point x="270" y="466" type="curve"/>
      <point x="264" y="466"/>
      <point x="262" y="462"/>
      <point x="262" y="459" type="curve" smooth="yes"/>
      <point x="228" y="328"/>
      <point x="197" y="217"/>
      <point x="165" y="84" type="curve"/>
      <point x="442" y="-8"/>
      <point x="765" y="-49"/>
    </contour>
    <contour>
      <point x="1085" y="1465" type="move" name="top"/>
    </contour>
    <contour>
      <point x="1085" y="0" type="move" name="bottom"/>
    </contour>
  </outline>
</glyph>
<glyph name="U" format="1">
  <advance width="2435"/>
  <unicode hex="0055"/>
  <outline>
    <contour>
      <point x="1191" y="-48" type="curve" smooth="yes"/>
      <point x="1618" y="-48"/>
      <point x="2147" y="56"/>
      <point x="2267" y="545" type="curve"/>
      <point x="2286" y="587"/>
      <point x="2310" y="1024"/>
      <point x="2315" y="1283" type="curve" smooth="yes"/>
      <point x="2315" y="1333"/>
      <point x="2314" y="1379"/>
      <point x="2314" y="1426" type="curve"/>
      <point x="1957" y="1417"/>
      <point x="1741" y="1411"/>
      <point x="1540" y="1401" type="curve"/>
      <point x="1535" y="1238" type="line"/>
      <point x="1516" y="710" type="line"/>
      <point x="1515" y="483"/>
      <point x="1388" y="358"/>
      <point x="1209" y="358" type="curve" smooth="yes"/>
      <point x="984.644" y="358"/>
      <point x="927.199" y="506.561"/>
      <point x="927.199" y="610.888" type="curve" smooth="yes"/>
      <point x="927.199" y="618.162"/>
      <point x="927.479" y="625.221"/>
      <point x="928" y="632" type="curve" smooth="yes"/>
      <point x="959" y="1285" type="line"/>
      <point x="959" y="1336"/>
      <point x="959" y="1389"/>
      <point x="962" y="1443" type="curve"/>
      <point x="653" y="1437" type="line"/>
      <point x="168" y="1415" type="line"/>
      <point x="153" y="1312"/>
      <point x="156" y="1184"/>
      <point x="149" y="984" type="curve"/>
      <point x="144" y="677" type="line" smooth="yes"/>
      <point x="143" y="648"/>
      <point x="142" y="618"/>
      <point x="142" y="592" type="curve" smooth="yes"/>
      <point x="142" y="-7"/>
      <point x="725.118" y="-48"/>
    </contour>
    <contour>
      <point x="1225" y="1465" type="move" name="top"/>
    </contour>
    <contour>
      <point x="2193" y="10" type="move" name="ogonek"/>
    </contour>
  </outline>
</glyph>
<glyph name="V" format="1">
  <advance width="2032"/>
  <unicode hex="0056"/>
  <outline>
    <contour>
      <point x="1771" y="1468" type="line"/>
      <point x="1332" y="1461" type="line"/>
      <point x="1091" y="711" type="line"/>
      <point x="815" y="1465" type="line"/>
      <point x="558" y="1460" type="line"/>
      <point x="69" y="1439" type="line"/>
      <point x="113" y="1328" type="line" smooth="yes"/>
      <point x="125" y="1298"/>
      <point x="617" y="132"/>
      <point x="713" y="-87" type="curve"/>
      <point x="843" y="-87"/>
      <point x="1263" y="-65"/>
      <point x="1329" y="-47" type="curve"/>
      <point x="1381" y="72" type="line"/>
      <point x="1478" y="272"/>
      <point x="2034" y="1464"/>
      <point x="2034" y="1470" type="curve"/>
    </contour>
  </outline>
</glyph>
<glyph name="W" format="1">
  <advance width="3026"/>
  <unicode hex="0057"/>
  <outline>
    <contour>
      <point x="1819" y="-87" type="line"/>
      <point x="1949" y="-87"/>
      <point x="2305" y="-55"/>
      <point x="2371" y="-37" type="curve" smooth="yes"/>
      <point x="2408" y="-27"/>
      <point x="2395" y="6"/>
      <point x="2427" y="72" type="curve"/>
      <point x="3014" y="1428" type="line" smooth="yes"/>
      <point x="3018" y="1435"/>
      <point x="3020" y="1442"/>
      <point x="3020" y="1448" type="curve" smooth="yes"/>
      <point x="3020" y="1469"/>
      <point x="2992" y="1481"/>
      <point x="2902" y="1481" type="curve" smooth="yes"/>
      <point x="2868" y="1481"/>
      <point x="2822" y="1475"/>
      <point x="2760" y="1468" type="curve"/>
      <point x="2356" y="1408" type="line" smooth="yes"/>
      <point x="2326" y="1403"/>
      <point x="2323" y="1390"/>
      <point x="2311" y="1371" type="curve"/>
      <point x="2120" y="711" type="line"/>
      <point x="1847" y="1458" type="line"/>
      <point x="1842" y="1464"/>
      <point x="1840" y="1468"/>
      <point x="1833" y="1468" type="curve" smooth="yes"/>
      <point x="1831" y="1468"/>
      <point x="1828" y="1468"/>
      <point x="1826" y="1467" type="curve"/>
      <point x="1826" y="1475"/>
      <point x="1819" y="1479"/>
      <point x="1796" y="1479" type="curve" smooth="yes"/>
      <point x="1756" y="1479"/>
      <point x="1735" y="1475"/>
      <point x="1624" y="1464" type="curve"/>
      <point x="1302" y="1428"/>
      <point x="1297" y="1454"/>
      <point x="1297" y="1399" type="curve"/>
      <point x="1296" y="1400" type="line"/>
      <point x="1076" y="711" type="line"/>
      <point x="843" y="1458" type="line"/>
      <point x="838" y="1464"/>
      <point x="836" y="1468"/>
      <point x="829" y="1468" type="curve" smooth="yes"/>
      <point x="827" y="1468"/>
      <point x="824" y="1468"/>
      <point x="822" y="1467" type="curve"/>
      <point x="822" y="1475"/>
      <point x="815" y="1479"/>
      <point x="792" y="1479" type="curve" smooth="yes"/>
      <point x="752" y="1479"/>
      <point x="694" y="1475"/>
      <point x="583" y="1464" type="curve"/>
      <point x="261" y="1428"/>
      <point x="136" y="1424"/>
      <point x="136" y="1369" type="curve" smooth="yes"/>
      <point x="136" y="1361"/>
      <point x="138" y="1353"/>
      <point x="143" y="1343" type="curve"/>
      <point x="140" y="1340"/>
      <point x="138" y="1334"/>
      <point x="138" y="1328" type="curve" smooth="yes"/>
      <point x="138" y="1297"/>
      <point x="168" y="1236"/>
      <point x="179" y="1199" type="curve"/>
      <point x="698" y="-87" type="line"/>
      <point x="828" y="-87"/>
      <point x="1224" y="-55"/>
      <point x="1290" y="-37" type="curve" smooth="yes"/>
      <point x="1327" y="-27"/>
      <point x="1374" y="60"/>
      <point x="1396" y="132" type="curve" smooth="yes"/>
      <point x="1563" y="673" type="line"/>
    </contour>
    <contour>
      <point x="1513" y="1465" type="move" name="top"/>
    </contour>
  </outline>
</glyph>
<glyph name="X" format="1">
  <advance width="2260"/>
  <unicode hex="0058"/>
  <outline>
    <contour>
      <point x="1159" y="1130" type="line"/>
      <point x="790" y="1492" type="line"/>
      <point x="790" y="1492"/>
      <point x="782" y="1490"/>
      <point x="770" y="1489" type="curve"/>
      <point x="339" y="1412"/>
      <point x="165" y="1339"/>
      <point x="124" y="1329" type="curve"/>
      <point x="725" y="725" type="line"/>
      <point x="455" y="455"/>
      <point x="371" y="357"/>
      <point x="316" y="294" type="curve" smooth="yes"/>
      <point x="164" y="123" type="line"/>
      <point x="776" y="-92" type="line"/>
      <point x="1162" y="299" type="line"/>
      <point x="1607" y="-88" type="line"/>
      <point x="1783" y="-23" type="line"/>
      <point x="2197" y="172" type="line"/>
      <point x="2040" y="321"/>
      <point x="1685" y="652"/>
      <point x="1595" y="732" type="curve"/>
      <point x="1677" y="806"/>
      <point x="1804" y="939"/>
      <point x="2216" y="1350" type="curve"/>
      <point x="1489" y="1478" type="line"/>
    </contour>
  </outline>
</glyph>
<glyph name="Y" format="1">
  <advance width="2033"/>
  <unicode hex="0059"/>
  <outline>
    <contour>
      <point x="667" y="-10" type="curve"/>
      <point x="1233" y="2" type="line"/>
      <point x="1372" y="8" type="line"/>
      <point x="1398" y="561" type="line"/>
      <point x="2019" y="1428" type="line" smooth="yes"/>
      <point x="2023" y="1435"/>
      <point x="2025" y="1442"/>
      <point x="2025" y="1448" type="curve" smooth="yes"/>
      <point x="2025" y="1469"/>
      <point x="1997" y="1481"/>
      <point x="1907" y="1481" type="curve" smooth="yes"/>
      <point x="1873" y="1481"/>
      <point x="1827" y="1475"/>
      <point x="1765" y="1468" type="curve"/>
      <point x="1371" y="1446" type="line"/>
      <point x="1341" y="1441"/>
      <point x="1338" y="1428"/>
      <point x="1326" y="1409" type="curve" smooth="yes"/>
      <point x="1105" y="1022" type="line"/>
      <point x="792" y="1458" type="line" smooth="yes"/>
      <point x="787" y="1464"/>
      <point x="785" y="1468"/>
      <point x="778" y="1468" type="curve" smooth="yes"/>
      <point x="776" y="1468"/>
      <point x="773" y="1468"/>
      <point x="771" y="1467" type="curve"/>
      <point x="771" y="1475"/>
      <point x="764" y="1479"/>
      <point x="741" y="1479" type="curve" smooth="yes"/>
      <point x="701" y="1479"/>
      <point x="663" y="1475"/>
      <point x="552" y="1464" type="curve"/>
      <point x="230" y="1428"/>
      <point x="105" y="1424"/>
      <point x="105" y="1369" type="curve" smooth="yes"/>
      <point x="105" y="1361"/>
      <point x="107" y="1353"/>
      <point x="112" y="1343" type="curve"/>
      <point x="656" y="513" type="line"/>
      <point x="656" y="481"/>
      <point x="658" y="46"/>
    </contour>
    <contour>
      <point x="1021" y="1465" type="move" name="top"/>
    </contour>
  </outline>
</glyph>
<glyph name="Z" format="1">
  <advance width="1984"/>
  <unicode hex="005A"/>
  <outline>
    <contour>
      <point x="1381" y="0" type="line" smooth="yes"/>
      <point x="1537" y="0"/>
      <point x="1794" y="25"/>
      <point x="1818" y="28" type="curve"/>
      <point x="1830" y="77"/>
      <point x="1885" y="374"/>
      <point x="1885" y="415" type="curve"/>
      <point x="1839" y="421"/>
      <point x="1786" y="426"/>
      <point x="1732" y="426" type="curve" smooth="yes"/>
      <point x="1652" y="426"/>
      <point x="1575" y="420"/>
      <point x="1494" y="420" type="curve" smooth="yes"/>
      <point x="1191" y="420" type="line"/>
      <point x="1415" y="710"/>
      <point x="1814" y="1334"/>
      <point x="1854" y="1408" type="curve"/>
      <point x="1460" y="1408"/>
      <point x="1071" y="1420"/>
      <point x="675" y="1420" type="curve" smooth="yes"/>
      <point x="519" y="1420"/>
      <point x="358" y="1416"/>
      <point x="221" y="1392" type="curve"/>
      <point x="166" y="1011" type="line"/>
      <point x="224" y="1007"/>
      <point x="289" y="1000"/>
      <point x="352" y="1000" type="curve" smooth="yes"/>
      <point x="365" y="1000"/>
      <point x="376" y="1003"/>
      <point x="389" y="1003" type="curve" smooth="yes"/>
      <point x="525" y="1003"/>
      <point x="762" y="1001"/>
      <point x="879" y="996" type="curve"/>
      <point x="162" y="59" type="line" smooth="yes"/>
      <point x="162" y="58"/>
      <point x="161" y="26"/>
      <point x="161" y="25" type="curve" smooth="yes"/>
      <point x="219" y="4"/>
      <point x="292" y="0"/>
      <point x="361" y="0" type="curve" smooth="yes"/>
    </contour>
    <contour>
      <point x="992" y="1465" type="move" name="top"/>
    </contour>
  </outline>
</glyph>
<glyph name="bracketleft" format="1">
  <advance width="1424"/>
  <unicode hex="005B"/>
  <outline>
    <contour>
      <point x="397" y="-198"/>
      <point x="660" y="-201"/>
      <point x="893" y="-201" type="curve"/>
      <point x="1285" y="-199" type="line"/>
      <point x="1288" y="-110"/>
      <point x="1291" y="79"/>
      <point x="1291" y="167" type="curve"/>
      <point x="1201" y="171"/>
      <point x="1107" y="171"/>
      <point x="1013" y="171" type="curve" smooth="yes"/>
      <point x="976" y="171"/>
      <point x="938" y="171"/>
      <point x="901" y="171" type="curve"/>
      <point x="911" y="641" type="line"/>
      <point x="923" y="846"/>
      <point x="933" y="1072"/>
      <point x="936" y="1196" type="curve"/>
      <point x="1349" y="1206" type="line"/>
      <point x="1360" y="1571" type="line"/>
      <point x="384" y="1571" type="line" smooth="yes"/>
      <point x="199" y="1569" type="line"/>
      <point x="184" y="802" type="line"/>
      <point x="172" y="473"/>
      <point x="161" y="112"/>
      <point x="161" y="-45" type="curve" smooth="yes"/>
      <point x="161" y="-94"/>
      <point x="161" y="-142"/>
      <point x="167" y="-186" type="curve"/>
    </contour>
  </outline>
</glyph>
<glyph name="backslash" format="1">
  <advance width="1372"/>
  <unicode hex="005C"/>
  <outline>
    <contour>
      <point x="634" y="1595" type="curve"/>
      <point x="554" y="1623"/>
      <point x="484" y="1628"/>
      <point x="399" y="1628" type="curve"/>
      <point x="305" y="1617"/>
      <point x="168" y="1588"/>
      <point x="99" y="1588" type="curve"/>
      <point x="171" y="1403" type="line"/>
      <point x="194" y="1351"/>
      <point x="217" y="1297"/>
      <point x="239" y="1244" type="curve" smooth="yes"/>
      <point x="757" y="-10" type="line"/>
      <point x="779" y="-67"/>
      <point x="796" y="-121"/>
      <point x="822" y="-168" type="curve"/>
      <point x="973" y="-168"/>
      <point x="1190" y="-137"/>
      <point x="1325" y="-119" type="curve"/>
      <point x="1255" y="65" type="line"/>
      <point x="1101" y="440"/>
      <point x="940" y="837"/>
      <point x="769" y="1259" type="curve"/>
      <point x="725" y="1363"/>
      <point x="680" y="1476"/>
    </contour>
  </outline>
</glyph>
<glyph name="bracketright" format="1">
  <advance width="1425"/>
  <unicode hex="005D"/>
  <outline>
    <contour>
      <point x="296" y="-189" type="line"/>
      <point x="364" y="-189"/>
      <point x="480" y="-187"/>
      <point x="592" y="-185" type="curve"/>
      <point x="1088" y="-181" type="line" smooth="yes"/>
      <point x="1269" y="-181" type="line"/>
      <point x="1288" y="576" type="line" smooth="yes"/>
      <point x="1296" y="881"/>
      <point x="1314" y="1232"/>
      <point x="1314" y="1407" type="curve" smooth="yes"/>
      <point x="1314" y="1467"/>
      <point x="1314" y="1530"/>
      <point x="1307" y="1584" type="curve"/>
      <point x="182" y="1584" type="line" smooth="yes"/>
      <point x="182" y="1221" type="line"/>
      <point x="573" y="1219" type="line"/>
      <point x="565" y="859"/>
      <point x="546" y="426"/>
      <point x="545" y="194" type="curve"/>
      <point x="133" y="176" type="line"/>
      <point x="128" y="9" type="line"/>
      <point x="130" y="-185" type="line"/>
    </contour>
  </outline>
</glyph>
<glyph name="underscore" format="1">
  <advance width="1042"/>
  <unicode hex="005F"/>
  <outline>
    <contour>
      <point x="982" y="-13" type="line"/>
      <point x="993" y="204" type="line"/>
      <point x="911" y="204"/>
      <point x="566" y="201"/>
      <point x="537" y="201" type="curve" smooth="yes"/>
      <point x="179" y="201" type="line"/>
      <point x="176" y="202"/>
      <point x="12" y="202"/>
      <point x="9" y="202" type="curve"/>
      <point x="-6" y="-10" type="line"/>
    </contour>
  </outline>
</glyph>
<glyph name="grave" format="1">
  <advance width="664"/>
  <unicode hex="0060"/>
  <outline>
    <contour>
      <point x="595" y="1251" type="line"/>
      <point x="375" y="1670" type="line"/>
      <point x="372" y="1670" type="line" smooth="yes"/>
      <point x="367" y="1670"/>
      <point x="85.9844" y="1579.46"/>
      <point x="25" y="1560" type="curve"/>
      <point x="442" y="1195" type="line"/>
      <point x="470" y="1206" type="line"/>
    </contour>
    <contour>
      <point x="310" y="1026" type="move" name="_top"/>
    </contour>
  </outline>
</glyph>
<glyph name="a" format="1">
  <advance width="1835"/>
  <unicode hex="0061"/>
  <outline>
    <contour>
      <point x="751" y="-39" type="curve" smooth="yes"/>
      <point x="999" y="-39"/>
      <point x="1154" y="66"/>
      <point x="1231" y="191" type="curve"/>
      <point x="1292" y="-6" type="line"/>
      <point x="1668" y="22" type="line"/>
      <point x="1671" y="1041" type="line"/>
      <point x="1219" y="1079" type="line"/>
      <point x="1217" y="866" type="line"/>
      <point x="1100" y="1016"/>
      <point x="958" y="1058"/>
      <point x="735" y="1058" type="curve" smooth="yes"/>
      <point x="410" y="1058"/>
      <point x="119" y="858"/>
      <point x="119" y="476" type="curve" smooth="yes"/>
      <point x="119" y="114"/>
      <point x="451" y="-39"/>
    </contour>
    <contour>
      <point x="921" y="264" type="curve"/>
      <point x="808" y="264"/>
      <point x="704" y="327"/>
      <point x="704" y="475" type="curve" smooth="yes"/>
      <point x="704" y="609"/>
      <point x="783" y="724"/>
      <point x="928" y="724" type="curve" smooth="yes"/>
      <point x="1067" y="724"/>
      <point x="1148" y="627"/>
      <point x="1148" y="500" type="curve" smooth="yes"/>
      <point x="1148" y="348"/>
      <point x="1068" y="267"/>
    </contour>
    <contour>
      <point x="918" y="1026" type="move" name="top"/>
    </contour>
    <contour>
      <point x="1651" y="10" type="move" name="ogonek"/>
    </contour>
  </outline>
</glyph>
<glyph name="b" format="1">
  <advance width="1909"/>
  <unicode hex="0062"/>
  <outline>
    <contour>
      <point x="669" y="41"/>
      <point x="883" y="-37"/>
      <point x="1106" y="-37" type="curve" smooth="yes"/>
      <point x="1477" y="-37"/>
      <point x="1798" y="217"/>
      <point x="1798" y="528" type="curve" smooth="yes"/>
      <point x="1798" y="860"/>
      <point x="1500" y="1047"/>
      <point x="1162" y="1047" type="curve" smooth="yes"/>
      <point x="1004" y="1047"/>
      <point x="848" y="992"/>
      <point x="742" y="920" type="curve"/>
      <point x="744" y="998"/>
      <point x="760" y="1261"/>
      <point x="760" y="1341" type="curve" smooth="yes"/>
      <point x="760" y="1373"/>
      <point x="762" y="1406"/>
      <point x="762" y="1438" type="curve"/>
      <point x="721" y="1447"/>
      <point x="674" y="1449"/>
      <point x="628" y="1449" type="curve" smooth="yes"/>
      <point x="581" y="1449"/>
      <point x="248" y="1410"/>
      <point x="196" y="1403" type="curve"/>
      <point x="196" y="1269" type="line"/>
      <point x="148" y="140" type="line"/>
      <point x="149" y="137" type="line"/>
      <point x="147" y="94"/>
      <point x="146" y="49"/>
      <point x="145" y="6" type="curve"/>
      <point x="162" y="-8"/>
      <point x="183" y="-14"/>
      <point x="210" y="-14" type="curve" smooth="yes"/>
      <point x="223" y="-14"/>
      <point x="426" y="17"/>
      <point x="441" y="26" type="curve"/>
      <point x="444" y="26"/>
      <point x="542" y="176"/>
      <point x="548" y="194" type="curve"/>
      <point x="548" y="190" type="line"/>
    </contour>
    <contour>
      <point x="1116" y="768"/>
      <point x="1212" y="661"/>
      <point x="1212" y="518" type="curve" smooth="yes"/>
      <point x="1212" y="369"/>
      <point x="1115" y="250"/>
      <point x="958" y="250" type="curve" smooth="yes"/>
      <point x="774" y="250"/>
      <point x="690" y="371"/>
      <point x="690" y="496" type="curve" smooth="yes"/>
      <point x="690" y="630"/>
      <point x="781" y="768"/>
      <point x="956" y="768" type="curve" smooth="yes"/>
    </contour>
  </outline>
</glyph>
<glyph name="c" format="1">
  <advance width="1638"/>
  <unicode hex="0063"/>
  <outline>
    <contour>
      <point x="1020" y="-39" type="curve" smooth="yes"/>
      <point x="1196" y="-39"/>
      <point x="1330" y="-18"/>
      <point x="1440" y="11" type="curve"/>
      <point x="1433" y="326" type="line"/>
      <point x="1321" y="307"/>
      <point x="1184" y="298"/>
      <point x="1103" y="298" type="curve" smooth="yes"/>
      <point x="851" y="298"/>
      <point x="742" y="383"/>
      <point x="742" y="501" type="curve" smooth="yes"/>
      <point x="742" y="659"/>
      <point x="953" y="697"/>
      <point x="1183" y="697" type="curve" smooth="yes"/>
      <point x="1292" y="697"/>
      <point x="1366" y="685"/>
      <point x="1463" y="667" type="curve"/>
      <point x="1488" y="988" type="line"/>
      <point x="1366" y="1014"/>
      <point x="1127" y="1048"/>
      <point x="1017" y="1048" type="curve" smooth="yes"/>
      <point x="599" y="1048"/>
      <point x="119" y="902"/>
      <point x="119" y="490" type="curve" smooth="yes"/>
      <point x="119" y="79"/>
      <point x="603" y="-39"/>
    </contour>
    <contour>
      <point x="804" y="1026" type="move" name="top"/>
    </contour>
    <contour>
      <point x="804" y="0" type="move" name="bottom"/>
    </contour>
  </outline>
</glyph>
<glyph name="d" format="1">
  <advance width="1898"/>
  <unicode hex="0064"/>
  <outline>
    <contour>
      <point x="920.796" y="255" type="curve" smooth="yes"/>
      <point x="784.886" y="255"/>
      <point x="716.465" y="345.412"/>
      <point x="716.465" y="502.16" type="curve" smooth="yes"/>
      <point x="716.465" y="618.824"/>
      <point x="804.542" y="770"/>
      <point x="968.833" y="770" type="curve" smooth="yes"/>
      <point x="1117.37" y="770"/>
      <point x="1203.07" y="651.57"/>
      <point x="1203.07" y="527.71" type="curve"/>
      <point x="1199.41" y="394.172"/>
      <point x="1114.59" y="255"/>
    </contour>
    <contour>
      <point x="1343.76" y="219.547" type="curve"/>
      <point x="1380.89" y="145.815"/>
      <point x="1425" y="73"/>
      <point x="1475" y="-15" type="curve"/>
      <point x="1569" y="9"/>
      <point x="1729.18" y="25.3809"/>
      <point x="1752.2" y="37.876" type="curve"/>
      <point x="1752.2" y="1445.19" type="line" smooth="yes"/>
      <point x="1749.24" y="1445.19" type="line" smooth="yes"/>
      <point x="1688.09" y="1445.19"/>
      <point x="1328.78" y="1419.46"/>
      <point x="1232.28" y="1415.17" type="curve"/>
      <point x="1231.47" y="1399.71"/>
      <point x="1226.24" y="1342.49"/>
      <point x="1226.24" y="1308.95" type="curve" smooth="yes"/>
      <point x="1223.14" y="1186.92"/>
      <point x="1217.05" y="1039.85"/>
      <point x="1213.95" y="919.086" type="curve"/>
      <point x="1117.35" y="992.015"/>
      <point x="970.749" y="1047"/>
      <point x="820.192" y="1047" type="curve" smooth="yes"/>
      <point x="473.817" y="1047"/>
      <point x="119" y="859.235"/>
      <point x="119" y="482.184" type="curve" smooth="yes"/>
      <point x="119" y="175.389"/>
      <point x="403.605" y="-33"/>
      <point x="765.81" y="-33" type="curve" smooth="yes"/>
      <point x="1094.66" y="-33"/>
      <point x="1241.41" y="85.3847"/>
    </contour>
    <contour>
      <point x="949" y="513" type="move" name="center"/>
    </contour>
  </outline>
</glyph>
<glyph name="e" format="1">
  <advance width="1636"/>
  <unicode hex="0065"/>
  <outline>
    <contour>
      <point x="686.521" y="626" type="line"/>
      <point x="701.521" y="717"/>
      <point x="764.521" y="797"/>
      <point x="883.521" y="796" type="curve" smooth="yes"/>
      <point x="981.521" y="795"/>
      <point x="1045.52" y="755"/>
      <point x="1047.52" y="624" type="curve"/>
    </contour>
    <contour>
      <point x="870.521" y="-38" type="curve" smooth="yes"/>
      <point x="1126.52" y="-39"/>
      <point x="1359.52" y="19"/>
      <point x="1439.52" y="80" type="curve"/>
      <point x="1458.52" y="334" type="line"/>
      <point x="1404.52" y="334" type="line"/>
      <point x="1259.52" y="274"/>
      <point x="1125.52" y="247"/>
      <point x="1012.52" y="247" type="curve" smooth="yes"/>
      <point x="828.521" y="248"/>
      <point x="698.521" y="321"/>
      <point x="666.521" y="442" type="curve"/>
      <point x="1477.52" y="438" type="line"/>
      <point x="1486.52" y="561" type="line"/>
      <point x="1488.52" y="572"/>
      <point x="1488.52" y="574"/>
      <point x="1488.52" y="584" type="curve" smooth="yes"/>
      <point x="1501.52" y="920"/>
      <point x="1147.52" y="1045"/>
      <point x="875.521" y="1046" type="curve" smooth="yes"/>
      <point x="533.521" y="1048"/>
      <point x="131.521" y="938"/>
      <point x="114.521" y="500" type="curve" smooth="yes"/>
      <point x="97.5211" y="77"/>
      <point x="499.521" y="-36"/>
    </contour>
    <contour>
      <point x="818" y="1026" type="move" name="top"/>
    </contour>
    <contour>
      <point x="818" y="0" type="move" name="bottom"/>
    </contour>
    <contour>
      <point x="1472" y="10" type="move" name="ogonek"/>
    </contour>
  </outline>
</glyph>
<glyph name="f" format="1">
  <advance width="1393"/>
  <unicode hex="0066"/>
  <outline>
    <contour>
      <point x="896" y="2" type="line"/>
      <point x="894" y="124" type="line"/>
      <point x="894" y="274"/>
      <point x="910" y="514"/>
      <point x="921" y="747" type="curve"/>
      <point x="1331" y="747" type="line"/>
      <point x="1342" y="819"/>
      <point x="1350" y="925"/>
      <point x="1350" y="971" type="curve"/>
      <point x="1290" y="979"/>
      <point x="1227" y="981"/>
      <point x="1166" y="981" type="curve" smooth="yes"/>
      <point x="922" y="981" type="line"/>
      <point x="952" y="1102"/>
      <point x="1007" y="1188"/>
      <point x="1254" y="1188" type="curve" smooth="yes"/>
      <point x="1307" y="1188"/>
      <point x="1367" y="1184"/>
      <point x="1438" y="1176" type="curve"/>
      <point x="1426" y="1244"/>
      <point x="1410" y="1358"/>
      <point x="1410" y="1498" type="curve"/>
      <point x="1305" y="1512"/>
      <point x="1205" y="1519"/>
      <point x="1112" y="1519" type="curve" smooth="yes"/>
      <point x="660" y="1519"/>
      <point x="352" y="1356"/>
      <point x="335" y="981" type="curve"/>
      <point x="126" y="981" type="line"/>
      <point x="118" y="924"/>
      <point x="66" y="803"/>
      <point x="64" y="754" type="curve"/>
      <point x="91" y="747"/>
      <point x="127" y="745"/>
      <point x="182" y="745" type="curve" smooth="yes"/>
      <point x="322" y="745" type="line"/>
      <point x="306" y="478"/>
      <point x="292" y="199"/>
      <point x="290" y="68" type="curve" smooth="yes"/>
      <point x="290" y="35"/>
      <point x="293" y="6"/>
      <point x="294" y="-21" type="curve"/>
      <point x="324" y="-23"/>
      <point x="354" y="-24"/>
      <point x="385" y="-24" type="curve"/>
    </contour>
  </outline>
</glyph>
<glyph name="g" format="1">
  <advance width="1900"/>
  <unicode hex="0067"/>
  <outline>
    <contour>
      <point x="760" y="-554" type="curve" smooth="yes"/>
      <point x="1209" y="-554"/>
      <point x="1691" y="-345"/>
      <point x="1708" y="19" type="curve"/>
      <point x="1763" y="1006" type="line"/>
      <point x="1666" y="1013" type="line"/>
      <point x="1229" y="1047" type="line"/>
      <point x="1219" y="944" type="line"/>
      <point x="1108" y="1011"/>
      <point x="972" y="1057"/>
      <point x="794" y="1057" type="curve" smooth="yes"/>
      <point x="417" y="1057"/>
      <point x="119" y="803"/>
      <point x="119" y="491" type="curve" smooth="yes"/>
      <point x="119" y="148"/>
      <point x="456" y="-17"/>
      <point x="772" y="-17" type="curve" smooth="yes"/>
      <point x="909" y="-17"/>
      <point x="1041" y="14"/>
      <point x="1141" y="74" type="curve"/>
      <point x="1128" y="-148"/>
      <point x="938" y="-218"/>
      <point x="738" y="-218" type="curve" smooth="yes"/>
      <point x="627" y="-218"/>
      <point x="513" y="-196"/>
      <point x="425" y="-168" type="curve"/>
      <point x="378" y="-168" type="line"/>
      <point x="325" y="-476" type="line"/>
      <point x="452" y="-529"/>
      <point x="604" y="-554"/>
    </contour>
    <contour>
      <point x="701" y="496" type="curve" smooth="yes"/>
      <point x="701" y="626"/>
      <point x="782" y="760"/>
      <point x="945" y="760" type="curve" smooth="yes"/>
      <point x="1103" y="760"/>
      <point x="1171" y="636"/>
      <point x="1171" y="512" type="curve" smooth="yes"/>
      <point x="1171" y="386"/>
      <point x="1101" y="259"/>
      <point x="912" y="259" type="curve" smooth="yes"/>
      <point x="772" y="259"/>
      <point x="701" y="376"/>
    </contour>
    <contour>
      <point x="971" y="1026" type="move" name="top"/>
    </contour>
  </outline>
</glyph>
<glyph name="h" format="1">
  <advance width="1931"/>
  <unicode hex="0068"/>
  <outline>
    <contour>
      <point x="1794" y="1" type="line"/>
      <point x="1812" y="592" type="line" smooth="yes"/>
      <point x="1812" y="607" type="line" smooth="yes"/>
      <point x="1812" y="868"/>
      <point x="1589" y="1058"/>
      <point x="1260" y="1058" type="curve" smooth="yes"/>
      <point x="1108" y="1058"/>
      <point x="933" y="1017"/>
      <point x="747" y="924" type="curve"/>
      <point x="752" y="1024"/>
      <point x="767" y="1310"/>
      <point x="767" y="1392" type="curve" smooth="yes"/>
      <point x="767" y="1424"/>
      <point x="764" y="1453"/>
      <point x="756" y="1477" type="curve"/>
      <point x="719" y="1477"/>
      <point x="678" y="1471"/>
      <point x="640" y="1470" type="curve"/>
      <point x="286" y="1436"/>
      <point x="223" y="1432"/>
      <point x="178" y="1430" type="curve"/>
      <point x="131" y="96" type="line"/>
      <point x="131" y="60"/>
      <point x="132" y="32"/>
      <point x="135" y="-1" type="curve"/>
      <point x="629" y="1" type="line"/>
      <point x="672" y="3"/>
      <point x="708" y="7"/>
      <point x="738" y="11" type="curve"/>
      <point x="738" y="247" type="line" smooth="yes"/>
      <point x="738" y="622"/>
      <point x="827" y="708"/>
      <point x="991" y="708" type="curve" smooth="yes"/>
      <point x="1180" y="708"/>
      <point x="1212" y="597"/>
      <point x="1212" y="521" type="curve"/>
      <point x="1191" y="-2" type="line"/>
      <point x="1191" y="-3" type="line"/>
      <point x="1294" y="-3" type="line"/>
    </contour>
    <contour>
      <point x="966" y="1026" type="move" name="top"/>
    </contour>
    <contour>
      <point x="966" y="513" type="move" name="center"/>
    </contour>
  </outline>
</glyph>
<glyph name="j" format="1">
  <advance width="1087"/>
  <unicode hex="006A"/>
  <outline>
    <contour>
      <point x="-63" y="-438" type="curve" smooth="yes"/>
      <point x="-63" y="-439" type="line"/>
      <point x="-30" y="-441"/>
      <point x="174" y="-448"/>
      <point x="267" y="-448" type="curve" smooth="yes"/>
      <point x="677" y="-448"/>
      <point x="915" y="-310"/>
      <point x="936" y="103" type="curve"/>
      <point x="965" y="1023" type="line"/>
      <point x="946" y="1025"/>
      <point x="926" y="1026"/>
      <point x="903" y="1026" type="curve" smooth="yes"/>
      <point x="900" y="1026" type="line"/>
      <point x="749" y="1014"/>
      <point x="484" y="994"/>
      <point x="380" y="980" type="curve"/>
      <point x="374" y="657"/>
      <point x="367" y="454"/>
      <point x="353" y="184" type="curve" smooth="yes"/>
      <point x="340" y="-85"/>
      <point x="235" y="-123"/>
      <point x="80" y="-123" type="curve" smooth="yes"/>
      <point x="47" y="-123"/>
      <point x="10" y="-121"/>
      <point x="-28" y="-119" type="curve"/>
      <point x="-28" y="-146"/>
      <point x="-63" y="-415"/>
    </contour>
    <contour>
      <point x="1026" y="1410" type="curve" smooth="yes"/>
      <point x="1026" y="1546.47"/>
      <point x="923" y="1606"/>
      <point x="738" y="1606" type="curve" smooth="yes"/>
      <point x="458" y="1606"/>
      <point x="371" y="1500"/>
      <point x="371" y="1415" type="curve" smooth="yes"/>
      <point x="371" y="1254"/>
      <point x="452" y="1198"/>
      <point x="676" y="1198" type="curve" smooth="yes"/>
      <point x="858" y="1198"/>
      <point x="1026" y="1263"/>
    </contour>
  </outline>
</glyph>
<glyph name="k" format="1">
  <advance width="1768"/>
  <unicode hex="006B"/>
  <outline>
    <contour>
      <point x="1156" y="-28" type="curve"/>
      <point x="1742" y="27" type="line"/>
      <point x="1707" y="61"/>
      <point x="1677" y="97"/>
      <point x="1640" y="132" type="curve"/>
      <point x="1529" y="255"/>
      <point x="1396" y="415"/>
      <point x="1258" y="561" type="curve"/>
      <point x="1302" y="602"/>
      <point x="1345" y="638"/>
      <point x="1384" y="671" type="curve"/>
      <point x="1631" y="907" type="line"/>
      <point x="1720" y="987" type="line"/>
      <point x="1681" y="988"/>
      <point x="1641" y="989"/>
      <point x="1599" y="989" type="curve" smooth="yes"/>
      <point x="1027" y="978" type="line"/>
      <point x="1001" y="958"/>
      <point x="958" y="916"/>
      <point x="912" y="872" type="curve" smooth="yes"/>
      <point x="738" y="709" type="line"/>
      <point x="741" y="817"/>
      <point x="750" y="967"/>
      <point x="758" y="1111" type="curve" smooth="yes"/>
      <point x="771" y="1372" type="line"/>
      <point x="773" y="1482" type="line"/>
      <point x="638" y="1494" type="line"/>
      <point x="357" y="1460" type="line"/>
      <point x="300" y="1456"/>
      <point x="229" y="1452"/>
      <point x="186" y="1447" type="curve"/>
      <point x="186" y="1402"/>
      <point x="188" y="1361"/>
      <point x="188" y="1318" type="curve"/>
      <point x="135" y="122" type="line"/>
      <point x="130" y="-11" type="line"/>
      <point x="693" y="28" type="line" smooth="yes"/>
      <point x="716" y="30"/>
      <point x="718" y="73"/>
      <point x="718" y="102" type="curve" smooth="yes"/>
      <point x="718" y="342" type="line"/>
      <point x="803" y="412" type="line"/>
      <point x="902" y="298"/>
      <point x="1071" y="40"/>
    </contour>
    <contour>
      <point x="884" y="0" type="move" name="bottom"/>
    </contour>
  </outline>
</glyph>
<glyph name="l" format="1">
  <advance width="892"/>
  <unicode hex="006C"/>
  <outline>
    <contour>
      <point x="146" y="-17" type="line"/>
      <point x="737" y="-2" type="line"/>
      <point x="735" y="142" type="line"/>
      <point x="779" y="1343" type="line"/>
      <point x="785" y="1486" type="line"/>
      <point x="593" y="1463"/>
      <point x="279" y="1434"/>
      <point x="190" y="1424" type="curve"/>
      <point x="190" y="1208"/>
      <point x="181" y="1090"/>
      <point x="176" y="928" type="curve" smooth="yes"/>
    </contour>
    <contour>
      <point x="446" y="1026" type="move" name="top"/>
    </contour>
    <contour>
      <point x="446" y="0" type="move" name="bottom"/>
    </contour>
    <contour>
      <point x="872" y="1026" type="move" name="topright"/>
    </contour>
  </outline>
</glyph>
<glyph name="m" format="1">
  <advance width="2822"/>
  <unicode hex="006D"/>
  <outline>
    <contour>
      <point x="742" y="-9" type="line"/>
      <point x="742" y="113"/>
      <point x="740" y="232"/>
      <point x="740" y="303" type="curve" smooth="yes"/>
      <point x="740" y="342" type="line" smooth="yes"/>
      <point x="740" y="564"/>
      <point x="745" y="757"/>
      <point x="937" y="769" type="curve" smooth="yes"/>
      <point x="1064" y="777"/>
      <point x="1124" y="717"/>
      <point x="1124" y="529" type="curve" smooth="yes"/>
      <point x="1124" y="522"/>
      <point x="1114" y="234"/>
      <point x="1114" y="72" type="curve"/>
      <point x="1114" y="-9" type="line" smooth="yes"/>
      <point x="1711" y="9" type="line"/>
      <point x="1711" y="323" type="line" smooth="yes"/>
      <point x="1711" y="717"/>
      <point x="1809" y="740"/>
      <point x="1893" y="747" type="curve" smooth="yes"/>
      <point x="2041" y="759"/>
      <point x="2090" y="653"/>
      <point x="2090" y="499" type="curve"/>
      <point x="2090" y="-11" type="line"/>
      <point x="2163" y="-11"/>
      <point x="2570" y="1"/>
      <point x="2685" y="-1" type="curve"/>
      <point x="2695" y="363"/>
      <point x="2703" y="466"/>
      <point x="2703" y="540" type="curve" smooth="yes"/>
      <point x="2703" y="834"/>
      <point x="2503" y="1036"/>
      <point x="2129" y="1036" type="curve" smooth="yes"/>
      <point x="1931" y="1036"/>
      <point x="1725" y="989"/>
      <point x="1593" y="851" type="curve"/>
      <point x="1487" y="976"/>
      <point x="1366" y="1036"/>
      <point x="1138" y="1036" type="curve" smooth="yes"/>
      <point x="927" y="1036"/>
      <point x="721" y="983"/>
      <point x="595" y="823" type="curve"/>
      <point x="488" y="1029" type="line"/>
      <point x="163" y="988" type="line"/>
      <point x="162" y="961"/>
      <point x="147" y="322"/>
      <point x="137" y="93" type="curve"/>
      <point x="131" y="-11" type="line"/>
    </contour>
  </outline>
</glyph>
<glyph name="n" format="1">
  <advance width="1925"/>
  <unicode hex="006E"/>
  <outline>
    <contour>
      <point x="999" y="709" type="curve" smooth="yes"/>
      <point x="1117" y="709"/>
      <point x="1199" y="605"/>
      <point x="1199" y="469" type="curve"/>
      <point x="1199" y="469"/>
      <point x="1193" y="-7"/>
      <point x="1193" y="-7" type="curve"/>
      <point x="1789" y="-3" type="line"/>
      <point x="1799" y="361"/>
      <point x="1807" y="466"/>
      <point x="1807" y="540" type="curve" smooth="yes"/>
      <point x="1807" y="588"/>
      <point x="1804" y="638"/>
      <point x="1794" y="685" type="curve"/>
      <point x="1730" y="923"/>
      <point x="1495.5" y="1036"/>
      <point x="1183.08" y="1036" type="curve" smooth="yes"/>
      <point x="971.96" y="1036"/>
      <point x="726.928" y="983.102"/>
      <point x="600.798" y="822.609" type="curve"/>
      <point x="493.613" y="1029.43" type="line"/>
      <point x="159" y="958" type="line"/>
      <point x="157.824" y="926.235"/>
      <point x="132" y="90"/>
      <point x="131" y="-10" type="curve"/>
      <point x="728" y="0" type="line"/>
      <point x="728" y="0"/>
      <point x="733" y="232"/>
      <point x="733" y="303" type="curve" smooth="yes"/>
      <point x="733" y="510"/>
      <point x="773.67" y="709"/>
    </contour>
    <contour>
      <point x="961" y="1026" type="move" name="top"/>
    </contour>
    <contour>
      <point x="961" y="0" type="move" name="bottom"/>
    </contour>
  </outline>
</glyph>
<glyph name="o" format="1">
  <advance width="1801"/>
  <unicode hex="006F"/>
  <outline>
    <contour>
      <point x="1146.02" y="521.743" type="curve" smooth="yes"/>
      <point x="1146.02" y="359.994"/>
      <point x="1070.44" y="239.006"/>
      <point x="904.465" y="236" type="curve"/>
      <point x="742.378" y="236"/>
      <point x="668.282" y="332.211"/>
      <point x="668.282" y="500.066" type="curve" smooth="yes"/>
      <point x="668.282" y="631.048"/>
      <point x="735.31" y="773"/>
      <point x="898.988" y="773" type="curve" smooth="yes"/>
      <point x="1059.15" y="773"/>
      <point x="1146.02" y="662.376"/>
    </contour>
    <contour>
      <point x="114" y="492.176" type="curve" smooth="yes"/>
      <point x="114" y="53.0996"/>
      <point x="521.149" y="-37"/>
      <point x="888.108" y="-37" type="curve" smooth="yes"/>
      <point x="1240.85" y="-37"/>
      <point x="1687.2" y="38.2295"/>
      <point x="1687.2" y="525.932" type="curve" smooth="yes"/>
      <point x="1687.2" y="873.263"/>
      <point x="1370.74" y="1070"/>
      <point x="945.23" y="1070" type="curve" smooth="yes"/>
      <point x="459.22" y="1070"/>
      <point x="114" y="913.821"/>
    </contour>
    <contour>
      <point x="901" y="1026" type="move" name="top"/>
    </contour>
  </outline>
</glyph>
<glyph name="p" format="1">
  <advance width="1914"/>
  <unicode hex="0070"/>
  <outline>
    <contour>
      <point x="691" y="-311" type="curve"/>
      <point x="691" y="-152"/>
      <point x="705" y="32"/>
      <point x="705" y="65" type="curve" smooth="yes"/>
      <point x="705" y="72" type="line"/>
      <point x="805" y="8"/>
      <point x="958" y="-37"/>
      <point x="1117" y="-37" type="curve" smooth="yes"/>
      <point x="1479" y="-37"/>
      <point x="1803" y="201"/>
      <point x="1803" y="560" type="curve" smooth="yes"/>
      <point x="1803" y="837"/>
      <point x="1538" y="1044"/>
      <point x="1192" y="1044" type="curve" smooth="yes"/>
      <point x="956" y="1044"/>
      <point x="731" y="986"/>
      <point x="600" y="824" type="curve"/>
      <point x="492" y="1023" type="line"/>
      <point x="260" y="988" type="line"/>
      <point x="227" y="986"/>
      <point x="202" y="981"/>
      <point x="179" y="964" type="curve"/>
      <point x="129" y="-232" type="line"/>
      <point x="129" y="-274"/>
      <point x="131" y="-316"/>
      <point x="132" y="-353" type="curve"/>
      <point x="142" y="-353" type="line" smooth="yes"/>
      <point x="228" y="-353"/>
      <point x="482" y="-332"/>
    </contour>
    <contour>
      <point x="986" y="751" type="curve" smooth="yes"/>
      <point x="1113" y="751"/>
      <point x="1212" y="670"/>
      <point x="1212" y="523" type="curve" smooth="yes"/>
      <point x="1212" y="378"/>
      <point x="1113" y="233"/>
      <point x="959" y="233" type="curve" smooth="yes"/>
      <point x="824" y="233"/>
      <point x="720" y="277"/>
      <point x="720" y="450" type="curve" smooth="yes"/>
      <point x="720" y="560"/>
      <point x="727" y="751"/>
    </contour>
  </outline>
</glyph>
<glyph name="q" format="1">
  <advance width="1913"/>
  <unicode hex="0071"/>
  <outline>
    <contour>
      <point x="918" y="241" type="curve" smooth="yes"/>
      <point x="781" y="241"/>
      <point x="707" y="332"/>
      <point x="707" y="464" type="curve" smooth="yes"/>
      <point x="707" y="624"/>
      <point x="812" y="760"/>
      <point x="951" y="760" type="curve" smooth="yes"/>
      <point x="1071" y="760"/>
      <point x="1156" y="684"/>
      <point x="1189" y="594" type="curve" smooth="yes"/>
      <point x="1191" y="587"/>
      <point x="1194" y="581"/>
      <point x="1194" y="569" type="curve" smooth="yes"/>
      <point x="1186" y="448"/>
      <point x="1169" y="379"/>
      <point x="1136" y="330" type="curve"/>
      <point x="1084" y="280"/>
      <point x="1005" y="241"/>
    </contour>
    <contour>
      <point x="1171" y="-354" type="curve"/>
      <point x="1226" y="-354"/>
      <point x="1281" y="-349"/>
      <point x="1333" y="-347" type="curve"/>
      <point x="1333" y="-347"/>
      <point x="1561" y="-310"/>
      <point x="1583" y="-307" type="curve"/>
      <point x="1641" y="-303"/>
      <point x="1689" y="-300"/>
      <point x="1733" y="-295" type="curve"/>
      <point x="1733" y="-177" type="line"/>
      <point x="1751" y="185"/>
      <point x="1760" y="542"/>
      <point x="1778" y="903" type="curve" smooth="yes"/>
      <point x="1779" y="927"/>
      <point x="1783" y="953"/>
      <point x="1786" y="976" type="curve"/>
      <point x="1764" y="979"/>
      <point x="1744" y="982"/>
      <point x="1723" y="986" type="curve" smooth="yes"/>
      <point x="1668" y="995" type="line"/>
      <point x="1581" y="908" type="line"/>
      <point x="1316" y="1008"/>
      <point x="1087" y="1049"/>
      <point x="894" y="1049" type="curve" smooth="yes"/>
      <point x="377" y="1049"/>
      <point x="119" y="751"/>
      <point x="119" y="481" type="curve" smooth="yes"/>
      <point x="119" y="147"/>
      <point x="412" y="-37"/>
      <point x="752" y="-37" type="curve" smooth="yes"/>
      <point x="911" y="-37"/>
      <point x="1068" y="10"/>
      <point x="1175" y="74" type="curve"/>
      <point x="1171" y="1"/>
      <point x="1165" y="-137"/>
      <point x="1165" y="-238" type="curve" smooth="yes"/>
      <point x="1165" y="-292"/>
      <point x="1167" y="-335"/>
    </contour>
  </outline>
</glyph>
<glyph name="r" format="1">
  <advance width="1263"/>
  <unicode hex="0072"/>
  <outline>
    <contour>
      <point x="249" y="-9" type="line"/>
      <point x="682" y="12" type="line"/>
      <point x="724" y="649" type="line" smooth="yes"/>
      <point x="725" y="649"/>
      <point x="785" y="718"/>
      <point x="918" y="718" type="curve" smooth="yes"/>
      <point x="974" y="718"/>
      <point x="1043" y="706"/>
      <point x="1125" y="672" type="curve"/>
      <point x="1230" y="962" type="line"/>
      <point x="1195" y="1008"/>
      <point x="1065" y="1062"/>
      <point x="955" y="1062" type="curve" smooth="yes"/>
      <point x="849" y="1062"/>
      <point x="715" y="999"/>
      <point x="574" y="817" type="curve"/>
      <point x="458" y="1018" type="line"/>
      <point x="181" y="959" type="line"/>
      <point x="144" y="62" type="line"/>
      <point x="144" y="37"/>
      <point x="147" y="12"/>
      <point x="150" y="-11" type="curve"/>
    </contour>
    <contour>
      <point x="620" y="1026" type="move" name="top"/>
    </contour>
    <contour>
      <point x="620" y="0" type="move" name="bottom"/>
    </contour>
  </outline>
</glyph>
<glyph name="s" format="1">
  <advance width="1565"/>
  <unicode hex="0073"/>
  <outline>
    <contour>
      <point x="748" y="-39" type="curve" smooth="yes"/>
      <point x="1316" y="-39"/>
      <point x="1447" y="102"/>
      <point x="1447" y="313" type="curve" smooth="yes"/>
      <point x="1447" y="615"/>
      <point x="1085" y="638"/>
      <point x="785" y="675" type="curve" smooth="yes"/>
      <point x="713" y="684"/>
      <point x="671" y="691"/>
      <point x="671" y="723" type="curve" smooth="yes"/>
      <point x="671" y="748"/>
      <point x="723" y="757"/>
      <point x="797" y="757" type="curve" smooth="yes"/>
      <point x="973" y="757"/>
      <point x="1233" y="726"/>
      <point x="1315" y="706" type="curve"/>
      <point x="1363" y="986" type="line"/>
      <point x="1220" y="1022"/>
      <point x="1056" y="1049"/>
      <point x="856" y="1049" type="curve" smooth="yes"/>
      <point x="662" y="1049"/>
      <point x="125" y="1019"/>
      <point x="125" y="701" type="curve" smooth="yes"/>
      <point x="125" y="428"/>
      <point x="482" y="419"/>
      <point x="790" y="360" type="curve"/>
      <point x="872" y="343"/>
      <point x="913" y="336"/>
      <point x="913" y="298" type="curve" smooth="yes"/>
      <point x="913" y="281"/>
      <point x="850" y="266"/>
      <point x="736" y="266" type="curve" smooth="yes"/>
      <point x="611" y="266"/>
      <point x="426" y="283"/>
      <point x="192" y="332" type="curve"/>
      <point x="126" y="55" type="line"/>
      <point x="258" y="-18"/>
      <point x="570" y="-39"/>
    </contour>
    <contour>
      <point x="783" y="1026" type="move" name="top"/>
    </contour>
    <contour>
      <point x="783" y="0" type="move" name="bottom"/>
    </contour>
  </outline>
</glyph>
<glyph name="t" format="1">
  <advance width="1535"/>
  <unicode hex="0074"/>
  <outline>
    <contour>
      <point x="1397" y="44" type="curve"/>
      <point x="1399" y="65"/>
      <point x="1400" y="87"/>
      <point x="1402" y="111" type="curve"/>
      <point x="1392" y="224"/>
      <point x="1404" y="294"/>
      <point x="1399" y="343" type="curve"/>
      <point x="1330" y="324"/>
      <point x="1203" y="289"/>
      <point x="1104" y="284" type="curve"/>
      <point x="1103" y="284" type="line"/>
      <point x="993" y="285"/>
      <point x="902" y="315"/>
      <point x="915" y="468" type="curve"/>
      <point x="925" y="554"/>
      <point x="938" y="651"/>
      <point x="955" y="748" type="curve"/>
      <point x="1203" y="747" type="line" smooth="yes"/>
      <point x="1223" y="747"/>
      <point x="1241" y="746"/>
      <point x="1260" y="746" type="curve" smooth="yes"/>
      <point x="1302" y="746"/>
      <point x="1340" y="748"/>
      <point x="1368" y="757" type="curve"/>
      <point x="1421" y="970" type="line"/>
      <point x="1394" y="978"/>
      <point x="1365" y="981"/>
      <point x="1333" y="981" type="curve" smooth="yes"/>
      <point x="984" y="982" type="line"/>
      <point x="1002" y="1117"/>
      <point x="1022" y="1247"/>
      <point x="1031" y="1345" type="curve" smooth="yes"/>
      <point x="1033" y="1372"/>
      <point x="1033" y="1397"/>
      <point x="1032" y="1422" type="curve"/>
      <point x="879" y="1423"/>
      <point x="567" y="1403"/>
      <point x="406" y="1388" type="curve"/>
      <point x="394" y="1290"/>
      <point x="388" y="1169"/>
      <point x="363" y="984" type="curve"/>
      <point x="151" y="985" type="line"/>
      <point x="89" y="756" type="line"/>
      <point x="113" y="749"/>
      <point x="152" y="747"/>
      <point x="207" y="747" type="curve" smooth="yes"/>
      <point x="339" y="747" type="line"/>
      <point x="324" y="650"/>
      <point x="314" y="549"/>
      <point x="298" y="442" type="curve"/>
      <point x="298" y="430" type="line"/>
      <point x="271" y="116"/>
      <point x="533" y="-34"/>
      <point x="900" y="-36" type="curve" smooth="yes"/>
      <point x="1028" y="-36"/>
      <point x="1257" y="-11"/>
    </contour>
    <contour>
      <point x="768" y="513" type="move" name="center"/>
    </contour>
    <contour>
      <point x="768" y="0" type="move" name="bottom"/>
    </contour>
  </outline>
</glyph>
<glyph name="u" format="1">
  <advance width="1918"/>
  <unicode hex="0075"/>
  <outline>
    <contour>
      <point x="1310.41" y="190.371" type="curve"/>
      <point x="1173.33" y="33.2914"/>
      <point x="952.794" y="-38"/>
      <point x="745.512" y="-38" type="curve" smooth="yes"/>
      <point x="443.13" y="-38"/>
      <point x="118.3" y="68.631"/>
      <point x="118.3" y="407" type="curve" smooth="yes"/>
      <point x="118.3" y="690.155"/>
      <point x="136.027" y="806.411"/>
      <point x="141.206" y="986.611" type="curve"/>
      <point x="223.041" y="1000.53"/>
      <point x="452.331" y="1031"/>
      <point x="597.901" y="1031" type="curve" smooth="yes"/>
      <point x="654.47" y="1031"/>
      <point x="701.374" y="1027.33"/>
      <point x="744.009" y="1023.38" type="curve"/>
      <point x="735.023" y="850.247"/>
      <point x="719.735" y="517.831"/>
      <point x="719.735" y="507" type="curve" smooth="yes"/>
      <point x="719.735" y="361.22"/>
      <point x="778.609" y="245"/>
      <point x="922.223" y="245" type="curve" smooth="yes"/>
      <point x="1069.72" y="245"/>
      <point x="1118.97" y="346.49"/>
      <point x="1153.38" y="429.412" type="curve"/>
      <point x="1208.9" y="551.159"/>
      <point x="1182.33" y="868.648"/>
      <point x="1200.33" y="997.235" type="curve"/>
      <point x="1342.23" y="1007.05"/>
      <point x="1487.18" y="1015.02"/>
      <point x="1769.2" y="1030.78" type="curve"/>
      <point x="1770.08" y="992.403"/>
      <point x="1770.1" y="955.651"/>
      <point x="1770.1" y="918" type="curve"/>
      <point x="1721.41" y="29.9395" type="line"/>
      <point x="1647.45" y="16.9466"/>
      <point x="1568.57" y="5.2497"/>
      <point x="1405.97" y="-16.7279" type="curve"/>
      <point x="1383.04" y="12.7908"/>
      <point x="1319.73" y="118.351"/>
    </contour>
    <contour>
      <point x="959" y="1026" type="move" name="top"/>
    </contour>
    <contour>
      <point x="1726" y="10" type="move" name="ogonek"/>
    </contour>
  </outline>
</glyph>
<glyph name="v" format="1">
  <advance width="1672"/>
  <unicode hex="0076"/>
  <outline>
    <contour>
      <point x="452.235" y="90.2227" type="curve"/>
      <point x="493" y="-9" type="line"/>
      <point x="568.234" y="-11" type="line"/>
      <point x="661.27" y="-11"/>
      <point x="1011" y="9"/>
      <point x="1121" y="20" type="curve"/>
      <point x="1174.14" y="118.65" type="line"/>
      <point x="1558.88" y="863.836" type="line"/>
      <point x="1637" y="1009" type="line"/>
      <point x="1560" y="1012"/>
      <point x="1323.58" y="1018"/>
      <point x="1232.15" y="1018" type="curve" smooth="yes"/>
      <point x="1185.92" y="1018"/>
      <point x="1140.51" y="1017.95"/>
      <point x="1095.96" y="1016.11" type="curve"/>
      <point x="1036.26" y="893.442"/>
      <point x="877" y="472"/>
      <point x="851.373" y="404.114" type="curve"/>
      <point x="800.636" y="579.035"/>
      <point x="747.632" y="753.524"/>
      <point x="695.964" y="927.904" type="curve"/>
      <point x="670" y="1018" type="line"/>
      <point x="603" y="1020"/>
      <point x="406.599" y="1001"/>
      <point x="93.5996" y="975.506" type="curve"/>
      <point x="172" y="802"/>
      <point x="365.172" y="320.256"/>
    </contour>
  </outline>
</glyph>
<glyph name="w" format="1">
  <advance width="2355"/>
  <unicode hex="0077"/>
  <outline>
    <contour>
      <point x="1931.8" y="138.104" type="curve"/>
      <point x="2036.81" y="417.289"/>
      <point x="2153" y="729"/>
      <point x="2272" y="1004" type="curve"/>
      <point x="1890.31" y="1022" type="line"/>
      <point x="1844.8" y="1022"/>
      <point x="1797.77" y="1017.06"/>
      <point x="1752.6" y="1012.35" type="curve"/>
      <point x="1746.37" y="982.072"/>
      <point x="1739.38" y="951.356"/>
      <point x="1732.34" y="923.117" type="curve" smooth="yes"/>
      <point x="1603.49" y="394.396" type="line"/>
      <point x="1483.94" y="923.312" type="line"/>
      <point x="1466.42" y="1012.2" type="line"/>
      <point x="1400.19" y="1016.13"/>
      <point x="1334.55" y="1017.98"/>
      <point x="1263.91" y="1018" type="curve" smooth="yes"/>
      <point x="942" y="1015" type="line"/>
      <point x="912.089" y="892" type="line"/>
      <point x="779.003" y="388.311" type="line"/>
      <point x="684.483" y="921.528" type="line" smooth="yes"/>
      <point x="678.396" y="952.178"/>
      <point x="673.615" y="983.545"/>
      <point x="669.496" y="1012.47" type="curve"/>
      <point x="632.204" y="1017.19"/>
      <point x="596.751" y="1017.98"/>
      <point x="556.685" y="1018" type="curve"/>
      <point x="457.3" y="1004.04" type="line"/>
      <point x="341.39" y="993.168"/>
      <point x="257.589" y="987.14"/>
      <point x="116.1" y="975.455" type="curve"/>
      <point x="238.015" y="634.703"/>
      <point x="340.78" y="288.678"/>
      <point x="432.858" y="-5.34961" type="curve"/>
      <point x="466.714" y="-9.1377"/>
      <point x="504.877" y="-11"/>
      <point x="543.571" y="-11" type="curve"/>
      <point x="707.833" y="2.88574"/>
      <point x="937.013" y="16.8291"/>
      <point x="1063.89" y="32.5654" type="curve"/>
      <point x="1069.84" y="65.8662"/>
      <point x="1079.01" y="97.6162"/>
      <point x="1086.97" y="128.921" type="curve" smooth="yes"/>
      <point x="1169.05" y="458.288" type="line"/>
      <point x="1205.2" y="279.418"/>
      <point x="1234.98" y="132.269"/>
      <point x="1261.6" y="-12.3809" type="curve"/>
      <point x="1297.45" y="-16.2705"/>
      <point x="1331.39" y="-18"/>
      <point x="1371.04" y="-18" type="curve"/>
      <point x="1531.88" y="-4.10254"/>
      <point x="1765.6" y="9.94434"/>
      <point x="1888.22" y="27.5654" type="curve"/>
      <point x="1901.99" y="66.1924"/>
      <point x="1915.67" y="102.203"/>
    </contour>
    <contour>
      <point x="1178" y="1026" type="move" name="top"/>
    </contour>
  </outline>
</glyph>
<glyph name="x" format="1">
  <advance width="1869"/>
  <unicode hex="0078"/>
  <outline>
    <contour>
      <point x="1194" y="-24" type="curve"/>
      <point x="1361" y="-14"/>
      <point x="1613" y="12"/>
      <point x="1784" y="19" type="curve"/>
      <point x="1705" y="98" type="line"/>
      <point x="1250" y="552" type="line"/>
      <point x="1403" y="696"/>
      <point x="1565" y="874"/>
      <point x="1746" y="1008" type="curve"/>
      <point x="1286" y="1018" type="line" smooth="yes"/>
      <point x="1252" y="1018"/>
      <point x="1215" y="1018"/>
      <point x="1182" y="1017" type="curve"/>
      <point x="1115" y="966" type="line"/>
      <point x="990" y="827" type="line"/>
      <point x="952" y="884"/>
      <point x="910" y="940"/>
      <point x="870" y="995" type="curve"/>
      <point x="805" y="1044" type="line"/>
      <point x="97" y="978" type="line"/>
      <point x="287" y="818"/>
      <point x="454" y="646"/>
      <point x="619" y="478" type="curve"/>
      <point x="200" y="104" type="line"/>
      <point x="158" y="70"/>
      <point x="120" y="43"/>
      <point x="86" y="18" type="curve"/>
      <point x="574" y="-21" type="line"/>
      <point x="611" y="-21"/>
      <point x="648" y="-21"/>
      <point x="685" y="-19" type="curve"/>
      <point x="765" y="37" type="line"/>
      <point x="781" y="46"/>
      <point x="843" y="121"/>
      <point x="899" y="184" type="curve"/>
      <point x="964" y="94"/>
      <point x="1044" y="0"/>
      <point x="1070" y="-19" type="curve"/>
      <point x="1114" y="-22"/>
      <point x="1153" y="-23"/>
    </contour>
  </outline>
</glyph>
<glyph name="y" format="1">
  <advance width="1735"/>
  <unicode hex="0079"/>
  <outline>
    <contour>
      <point x="693" y="-144" type="line"/>
      <point x="638" y="-291"/>
      <point x="308" y="-384"/>
      <point x="249" y="-384" type="curve"/>
      <point x="422" y="-664" type="line"/>
      <point x="920" y="-664"/>
      <point x="1105" y="-358"/>
      <point x="1238" y="-59" type="curve"/>
      <point x="1648" y="882" type="line"/>
      <point x="1701" y="1010" type="line"/>
      <point x="1270" y="1026" type="line"/>
      <point x="1239" y="1026"/>
      <point x="1211" y="1026"/>
      <point x="1183" y="1024" type="curve"/>
      <point x="1134" y="903"/>
      <point x="1010" y="498"/>
      <point x="964" y="374" type="curve"/>
      <point x="683" y="1025" type="line"/>
      <point x="99" y="1000" type="line"/>
      <point x="156" y="905"/>
      <point x="456" y="281"/>
      <point x="609" y="7" type="curve" smooth="yes"/>
    </contour>
    <contour>
      <point x="868" y="1026" type="move" name="top"/>
    </contour>
  </outline>
</glyph>
<glyph name="z" format="1">
  <advance width="1442"/>
  <unicode hex="007A"/>
  <outline>
    <contour>
      <point x="1180" y="0" type="line"/>
      <point x="1281" y="277" type="line"/>
      <point x="1311" y="303"/>
      <point x="1317" y="329"/>
      <point x="1317" y="348" type="curve" smooth="yes"/>
      <point x="1317" y="360"/>
      <point x="1315" y="370"/>
      <point x="1315" y="374" type="curve" smooth="yes"/>
      <point x="1315" y="379"/>
      <point x="1313" y="380"/>
      <point x="1308" y="380" type="curve" smooth="yes"/>
      <point x="1181" y="380"/>
      <point x="1060" y="372"/>
      <point x="926" y="372" type="curve" smooth="yes"/>
      <point x="925" y="372"/>
      <point x="923" y="373"/>
      <point x="923" y="374" type="curve" smooth="yes"/>
      <point x="923" y="375"/>
      <point x="927" y="377"/>
      <point x="943" y="380" type="curve"/>
      <point x="1241" y="895" type="line"/>
      <point x="1261" y="935"/>
      <point x="1344" y="1006"/>
      <point x="1344" y="1050" type="curve" smooth="yes"/>
      <point x="1344" y="1053"/>
      <point x="1343" y="1056"/>
      <point x="1343" y="1059" type="curve"/>
      <point x="1281" y="1059" type="line" smooth="yes"/>
      <point x="966" y="1059"/>
      <point x="632" y="1074"/>
      <point x="314" y="1074" type="curve" smooth="yes"/>
      <point x="281" y="1074"/>
      <point x="245" y="1065"/>
      <point x="245" y="1019" type="curve"/>
      <point x="131" y="762" type="line"/>
      <point x="117" y="751"/>
      <point x="110" y="740"/>
      <point x="110" y="736" type="curve" smooth="yes"/>
      <point x="110" y="735"/>
      <point x="110" y="735"/>
      <point x="111" y="735" type="curve" smooth="yes"/>
      <point x="216" y="735"/>
      <point x="427" y="746"/>
      <point x="574" y="746" type="curve"/>
      <point x="157" y="28" type="line"/>
      <point x="184" y="6"/>
      <point x="260" y="0"/>
      <point x="314" y="0" type="curve" smooth="yes"/>
    </contour>
    <contour>
      <point x="721" y="1026" type="move" name="top"/>
    </contour>
  </outline>
</glyph>
<glyph name="braceleft" format="1">
  <advance width="1121"/>
  <unicode hex="007B"/>
  <outline>
    <contour>
      <point x="1031" y="-111" type="curve"/>
      <point x="1040" y="88" type="line"/>
      <point x="865" y="88"/>
      <point x="865" y="221"/>
      <point x="865" y="460" type="curve" smooth="yes"/>
      <point x="865" y="641"/>
      <point x="780" y="719"/>
      <point x="648" y="761" type="curve"/>
      <point x="1001" y="785"/>
      <point x="656" y="1302"/>
      <point x="1072" y="1302" type="curve"/>
      <point x="1039" y="1556" type="line"/>
      <point x="1032" y="1557"/>
      <point x="731" y="1563"/>
      <point x="699" y="1563" type="curve" smooth="yes"/>
      <point x="115" y="1563"/>
      <point x="535" y="890"/>
      <point x="163" y="890" type="curve"/>
      <point x="164" y="592" type="line"/>
      <point x="328" y="592"/>
      <point x="332" y="455"/>
      <point x="332" y="301" type="curve" smooth="yes"/>
      <point x="332" y="278" type="line" smooth="yes"/>
      <point x="332" y="85"/>
      <point x="338" y="-126"/>
      <point x="648" y="-126" type="curve" smooth="yes"/>
      <point x="756" y="-126"/>
      <point x="1009" y="-116"/>
    </contour>
  </outline>
</glyph>
<glyph name="bar" format="1">
  <advance width="595"/>
  <unicode hex="007C"/>
  <outline>
    <contour>
      <point x="252" y="1292"/>
      <point x="131" y="14"/>
      <point x="121" y="-91" type="curve"/>
      <point x="121" y="-97" type="line" smooth="yes"/>
      <point x="121" y="-97"/>
      <point x="462" y="-109"/>
      <point x="462" y="-109" type="curve"/>
      <point x="462" y="-109"/>
      <point x="612" y="1516"/>
      <point x="612" y="1516" type="curve"/>
      <point x="269" y="1532" type="line"/>
    </contour>
  </outline>
</glyph>
<glyph name="braceright" format="1">
  <advance width="1121"/>
  <unicode hex="007D"/>
  <outline>
    <contour>
      <point x="156" y="1548" type="curve"/>
      <point x="147" y="1349" type="line"/>
      <point x="322" y="1349"/>
      <point x="322" y="1216"/>
      <point x="322" y="977" type="curve" smooth="yes"/>
      <point x="322" y="796"/>
      <point x="377" y="718"/>
      <point x="539" y="696" type="curve"/>
      <point x="136" y="642"/>
      <point x="531" y="135"/>
      <point x="115" y="135" type="curve"/>
      <point x="148" y="-119" type="line"/>
      <point x="155" y="-120"/>
      <point x="456" y="-126"/>
      <point x="488" y="-126" type="curve" smooth="yes"/>
      <point x="1072" y="-126"/>
      <point x="652" y="547"/>
      <point x="1024" y="547" type="curve"/>
      <point x="1023" y="845" type="line"/>
      <point x="859" y="845"/>
      <point x="855" y="982"/>
      <point x="855" y="1136" type="curve" smooth="yes"/>
      <point x="855" y="1159" type="line" smooth="yes"/>
      <point x="855" y="1352"/>
      <point x="849" y="1563"/>
      <point x="539" y="1563" type="curve" smooth="yes"/>
      <point x="431" y="1563"/>
      <point x="178" y="1553"/>
    </contour>
  </outline>
</glyph>
<glyph name="asciitilde" format="1">
  <advance width="1265"/>
  <unicode hex="007E"/>
  <outline>
    <contour>
      <point x="739" y="775"/>
      <point x="573" y="888"/>
      <point x="432" y="898" type="curve" smooth="yes"/>
      <point x="424" y="899"/>
      <point x="415" y="899"/>
      <point x="407" y="899" type="curve" smooth="yes"/>
      <point x="229" y="899"/>
      <point x="114" y="754"/>
      <point x="114" y="562" type="curve"/>
      <point x="348" y="569" type="line"/>
      <point x="348" y="610"/>
      <point x="365" y="657"/>
      <point x="429" y="657" type="curve" smooth="yes"/>
      <point x="521" y="657"/>
      <point x="704" y="546"/>
      <point x="810" y="526" type="curve" smooth="yes"/>
      <point x="829" y="522"/>
      <point x="847" y="521"/>
      <point x="865" y="521" type="curve" smooth="yes"/>
      <point x="1043" y="521"/>
      <point x="1130" y="698"/>
      <point x="1130" y="837" type="curve"/>
      <point x="895" y="845" type="line"/>
      <point x="893" y="828"/>
      <point x="893" y="758"/>
      <point x="831" y="758" type="curve" smooth="yes"/>
      <point x="825" y="758"/>
      <point x="818" y="758"/>
      <point x="810" y="760" type="curve" smooth="yes"/>
    </contour>
  </outline>
</glyph>
<glyph name="cent" format="1">
  <advance width="1613"/>
  <unicode hex="00A2"/>
  <outline>
    <contour>
      <point x="932" y="-242" type="line"/>
      <point x="1082" y="-245" type="line"/>
      <point x="1175" y="1244" type="line"/>
      <point x="1018" y="1244" type="line"/>
    </contour>
    <component base="c"/>
  </outline>
</glyph>
<glyph name="sterling" format="1">
  <advance width="1910"/>
  <unicode hex="00A3"/>
  <outline>
    <contour>
      <point x="1090" y="859" type="line" smooth="yes"/>
      <point x="1090" y="1042"/>
      <point x="1218" y="1122"/>
      <point x="1397" y="1122" type="curve" smooth="yes"/>
      <point x="1500" y="1122"/>
      <point x="1620" y="1096"/>
      <point x="1743" y="1048" type="curve"/>
      <point x="1775" y="1332" type="line"/>
      <point x="1567" y="1441"/>
      <point x="1343" y="1491"/>
      <point x="1137" y="1491" type="curve" smooth="yes"/>
      <point x="756" y="1491"/>
      <point x="440" y="1319"/>
      <point x="417" y="1042" type="curve"/>
      <point x="402" y="853" type="line"/>
      <point x="122" y="853" type="line"/>
      <point x="107" y="623" type="line"/>
      <point x="208" y="621" type="line"/>
      <point x="392" y="621" type="line"/>
      <point x="378" y="462"/>
      <point x="343" y="323"/>
      <point x="231" y="141" type="curve" smooth="yes"/>
      <point x="219" y="121"/>
      <point x="212" y="100"/>
      <point x="212" y="79" type="curve" smooth="yes"/>
      <point x="212" y="25"/>
      <point x="260" y="-25"/>
      <point x="406" y="-25" type="curve"/>
      <point x="410" y="-26"/>
      <point x="415" y="-26"/>
      <point x="421" y="-26" type="curve" smooth="yes"/>
      <point x="776" y="-27"/>
      <point x="1621" y="-27"/>
      <point x="1644" y="-27" type="curve" smooth="yes"/>
      <point x="1752" y="-27" type="line"/>
      <point x="1773" y="336" type="line"/>
      <point x="1704" y="336" type="line" smooth="yes"/>
      <point x="1680" y="336"/>
      <point x="1641" y="337"/>
      <point x="1589" y="337" type="curve" smooth="yes"/>
      <point x="1473" y="337"/>
      <point x="1192" y="335"/>
      <point x="973" y="332" type="curve"/>
      <point x="1068" y="413"/>
      <point x="1059" y="514"/>
      <point x="1064" y="621" type="curve"/>
      <point x="1473" y="619" type="line"/>
      <point x="1463" y="719" type="line"/>
      <point x="1447" y="848" type="line"/>
      <point x="1090" y="850" type="line"/>
    </contour>
  </outline>
</glyph>
<glyph name="currency" format="1">
  <advance width="1277"/>
  <unicode hex="00A4"/>
  <outline>
    <contour>
      <point x="894" y="1110"/>
      <point x="983" y="972"/>
      <point x="983" y="831" type="curve" smooth="yes"/>
      <point x="983" y="685"/>
      <point x="887" y="536"/>
      <point x="695" y="536" type="curve" smooth="yes"/>
      <point x="514" y="536"/>
      <point x="426" y="672"/>
      <point x="426" y="812" type="curve" smooth="yes"/>
      <point x="426" y="959"/>
      <point x="524" y="1110"/>
      <point x="713" y="1110" type="curve" smooth="yes"/>
    </contour>
    <contour>
      <point x="458" y="390" type="line"/>
      <point x="513" y="358"/>
      <point x="600" y="337"/>
      <point x="694" y="337" type="curve" smooth="yes"/>
      <point x="785" y="337"/>
      <point x="883" y="357"/>
      <point x="963" y="408" type="curve"/>
      <point x="1123" y="268" type="line"/>
      <point x="1262" y="438" type="line"/>
      <point x="1133" y="555" type="line"/>
      <point x="1193" y="626"/>
      <point x="1223" y="724"/>
      <point x="1223" y="821" type="curve" smooth="yes"/>
      <point x="1223" y="920"/>
      <point x="1192" y="1019"/>
      <point x="1131" y="1087" type="curve"/>
      <point x="1276" y="1253" type="line"/>
      <point x="1097" y="1404" type="line"/>
      <point x="952" y="1243" type="line"/>
      <point x="882" y="1278"/>
      <point x="799" y="1297"/>
      <point x="713" y="1297" type="curve" smooth="yes"/>
      <point x="635" y="1297"/>
      <point x="555" y="1281"/>
      <point x="482" y="1247" type="curve"/>
      <point x="352" y="1394" type="line"/>
      <point x="163" y="1247" type="line"/>
      <point x="290" y="1105" type="line"/>
      <point x="219" y="1018"/>
      <point x="183" y="915"/>
      <point x="183" y="812" type="curve" smooth="yes"/>
      <point x="183" y="713"/>
      <point x="216" y="614"/>
      <point x="281" y="528" type="curve"/>
      <point x="166" y="395" type="line"/>
      <point x="340" y="244" type="line"/>
    </contour>
  </outline>
</glyph>
<glyph name="yen" format="1">
  <advance width="2152"/>
  <unicode hex="00A5"/>
  <outline>
    <contour>
      <point x="1434" y="-25" type="curve" smooth="yes"/>
      <point x="1446" y="-25"/>
      <point x="1453" y="-24"/>
      <point x="1453" y="-23" type="curve" smooth="yes"/>
      <point x="1460" y="98" type="line"/>
      <point x="1748" y="95" type="line"/>
      <point x="1751" y="309" type="line"/>
      <point x="1663" y="309" type="line"/>
      <point x="1646" y="308"/>
      <point x="1574" y="308"/>
      <point x="1471" y="308" type="curve"/>
      <point x="1476" y="408" type="line"/>
      <point x="1754" y="409" type="line"/>
      <point x="1766" y="631" type="line"/>
      <point x="1546" y="630" type="line"/>
      <point x="2081" y="1406" type="line"/>
      <point x="2079" y="1448" type="line" smooth="yes"/>
      <point x="2078" y="1448"/>
      <point x="2077" y="1448"/>
      <point x="2076" y="1449" type="curve"/>
      <point x="1452" y="1449" type="line"/>
      <point x="1146" y="955" type="line"/>
      <point x="858" y="1448" type="line"/>
      <point x="818" y="1451"/>
      <point x="744" y="1452"/>
      <point x="633" y="1452" type="curve" smooth="yes"/>
      <point x="478" y="1452"/>
      <point x="242" y="1454"/>
      <point x="170" y="1454" type="curve"/>
      <point x="167" y="1432" type="line"/>
      <point x="673" y="619" type="line"/>
      <point x="430" y="618" type="line"/>
      <point x="423" y="407" type="line"/>
      <point x="513" y="405" type="line"/>
      <point x="737" y="406" type="line"/>
      <point x="735" y="308" type="line"/>
      <point x="422" y="308" type="line"/>
      <point x="418" y="108" type="line"/>
      <point x="445" y="104" type="line"/>
      <point x="734" y="103" type="line"/>
      <point x="734" y="-38" type="line"/>
      <point x="1314" y="-24"/>
      <point x="1408" y="-25"/>
    </contour>
  </outline>
</glyph>
<glyph name="brokenbar" format="1">
  <advance width="725"/>
  <unicode hex="00A6"/>
  <outline>
    <contour>
      <point x="129" y="-16" type="line"/>
      <point x="447" y="-15" type="line"/>
      <point x="486" y="-13" type="line"/>
      <point x="486" y="26" type="line"/>
      <point x="505" y="667" type="line"/>
      <point x="494" y="667" type="line"/>
      <point x="154" y="668" type="line"/>
      <point x="154" y="612" type="line"/>
    </contour>
    <contour>
      <point x="159" y="893" type="line"/>
      <point x="477" y="894" type="line"/>
      <point x="516" y="896" type="line"/>
      <point x="516" y="935" type="line"/>
      <point x="535" y="1576" type="line"/>
      <point x="524" y="1576" type="line"/>
      <point x="184" y="1577" type="line"/>
      <point x="184" y="1521" type="line"/>
    </contour>
  </outline>
</glyph>
<glyph name="section" format="1">
  <advance width="1475"/>
  <unicode hex="00A7"/>
  <outline>
    <contour>
      <point x="1362" y="210" type="curve" smooth="yes"/>
      <point x="1362" y="320"/>
      <point x="1272" y="438"/>
      <point x="1194" y="484" type="curve"/>
      <point x="1389" y="521"/>
      <point x="1445" y="593"/>
      <point x="1445" y="718" type="curve" smooth="yes"/>
      <point x="1445" y="944"/>
      <point x="1215" y="981"/>
      <point x="775" y="1046" type="curve" smooth="yes"/>
      <point x="694" y="1058"/>
      <point x="651" y="1095"/>
      <point x="651" y="1130" type="curve" smooth="yes"/>
      <point x="651" y="1165"/>
      <point x="695" y="1197"/>
      <point x="788" y="1197" type="curve" smooth="yes"/>
      <point x="977" y="1197"/>
      <point x="1255" y="1168"/>
      <point x="1343" y="1149" type="curve"/>
      <point x="1395" y="1411" type="line"/>
      <point x="1215" y="1458"/>
      <point x="999" y="1491"/>
      <point x="798" y="1491" type="curve" smooth="yes"/>
      <point x="453" y="1491"/>
      <point x="152" y="1395"/>
      <point x="152" y="1113" type="curve" smooth="yes"/>
      <point x="152" y="1000"/>
      <point x="213" y="893"/>
      <point x="280" y="845" type="curve"/>
      <point x="190" y="802"/>
      <point x="149" y="709"/>
      <point x="149" y="624" type="curve" smooth="yes"/>
      <point x="149" y="615"/>
      <point x="150" y="605"/>
      <point x="151" y="596" type="curve" smooth="yes"/>
      <point x="172" y="401"/>
      <point x="372" y="348"/>
      <point x="775" y="291" type="curve" smooth="yes"/>
      <point x="868" y="278"/>
      <point x="913" y="245"/>
      <point x="913" y="211" type="curve" smooth="yes"/>
      <point x="913" y="168"/>
      <point x="840" y="141"/>
      <point x="703" y="141" type="curve" smooth="yes"/>
      <point x="571" y="141"/>
      <point x="378" y="166"/>
      <point x="135" y="228" type="curve"/>
      <point x="64" y="-68" type="line"/>
      <point x="216" y="-136"/>
      <point x="422" y="-165"/>
      <point x="613" y="-165" type="curve" smooth="yes"/>
      <point x="1221" y="-165"/>
      <point x="1362" y="13"/>
    </contour>
    <contour>
      <point x="555" y="686" type="curve" smooth="yes"/>
      <point x="555" y="728"/>
      <point x="612" y="771"/>
      <point x="613" y="771" type="curve" smooth="yes"/>
      <point x="786" y="742" type="line" smooth="yes"/>
      <point x="888" y="725"/>
      <point x="952" y="707"/>
      <point x="952" y="677" type="curve" smooth="yes"/>
      <point x="952" y="642"/>
      <point x="910" y="609"/>
      <point x="882" y="609" type="curve" smooth="yes"/>
      <point x="878" y="609" type="line" smooth="yes"/>
      <point x="746" y="627"/>
      <point x="555" y="644"/>
    </contour>
  </outline>
</glyph>
<glyph name="dieresis" format="1">
  <advance width="1189"/>
  <unicode hex="00A8"/>
  <outline>
    <contour>
      <point x="1049" y="1219" type="line"/>
      <point x="1101" y="1219" type="line"/>
      <point x="1101" y="1576" type="line"/>
      <point x="1082" y="1576" type="line"/>
      <point x="729" y="1576" type="line"/>
      <point x="721" y="1220" type="line"/>
    </contour>
    <contour>
      <point x="89" y="1225" type="line" smooth="yes"/>
      <point x="89" y="1218"/>
      <point x="92" y="1218"/>
      <point x="99" y="1218" type="curve" smooth="yes"/>
      <point x="216" y="1218"/>
      <point x="322.995" y="1220"/>
      <point x="470" y="1220" type="curve"/>
      <point x="475" y="1578" type="line"/>
      <point x="457" y="1578" type="line" smooth="yes"/>
      <point x="357" y="1578"/>
      <point x="233" y="1576"/>
      <point x="129" y="1576" type="curve" smooth="yes"/>
      <point x="102" y="1576" type="line"/>
      <point x="89" y="1228" type="line"/>
    </contour>
    <contour>
      <point x="595" y="1026" type="move" name="_top"/>
    </contour>
  </outline>
</glyph>
<glyph name="copyright" format="1">
  <advance width="2072"/>
  <unicode hex="00A9"/>
  <outline>
    <contour>
      <point x="1330" y="293" type="curve"/>
      <point x="1333" y="293"/>
      <point x="1326" y="401"/>
      <point x="1322" y="464" type="curve"/>
      <point x="1307" y="464" type="line"/>
      <point x="1258" y="436"/>
      <point x="1201" y="421"/>
      <point x="1145" y="421" type="curve" smooth="yes"/>
      <point x="1019" y="421"/>
      <point x="899" y="495"/>
      <point x="888" y="659" type="curve"/>
      <point x="878" y="824"/>
      <point x="963" y="945"/>
      <point x="1105" y="945" type="curve" smooth="yes"/>
      <point x="1223" y="945"/>
      <point x="1305" y="888"/>
      <point x="1335" y="870" type="curve"/>
      <point x="1359" y="870" type="line"/>
      <point x="1355" y="934"/>
      <point x="1336" y="1059"/>
      <point x="1334" y="1085" type="curve"/>
      <point x="1334" y="1090" type="line"/>
      <point x="1295" y="1122"/>
      <point x="1217" y="1167"/>
      <point x="1064" y="1167" type="curve" smooth="yes"/>
      <point x="776" y="1167"/>
      <point x="576" y="937"/>
      <point x="594" y="646" type="curve" smooth="yes"/>
      <point x="611" y="380"/>
      <point x="840" y="217"/>
      <point x="1072" y="217" type="curve" smooth="yes"/>
      <point x="1161" y="217"/>
      <point x="1251" y="242"/>
    </contour>
    <contour>
      <point x="983" y="79" type="curve" smooth="yes"/>
      <point x="624" y="79"/>
      <point x="397" y="346"/>
      <point x="384" y="652" type="curve" smooth="yes"/>
      <point x="384" y="661"/>
      <point x="383" y="671"/>
      <point x="383" y="680" type="curve" smooth="yes"/>
      <point x="383" y="1040"/>
      <point x="702" y="1277"/>
      <point x="1085" y="1277" type="curve" smooth="yes"/>
      <point x="1428" y="1277"/>
      <point x="1679" y="1034"/>
      <point x="1692" y="730" type="curve" smooth="yes"/>
      <point x="1692" y="720"/>
      <point x="1693" y="710"/>
      <point x="1693" y="700" type="curve" smooth="yes"/>
      <point x="1693" y="326"/>
      <point x="1380" y="79"/>
    </contour>
    <contour>
      <point x="960" y="-84" type="curve" smooth="yes"/>
      <point x="1491" y="-84"/>
      <point x="1910" y="236"/>
      <point x="1910" y="720" type="curve" smooth="yes"/>
      <point x="1910" y="732"/>
      <point x="1910" y="745"/>
      <point x="1909" y="757" type="curve" smooth="yes"/>
      <point x="1891" y="1150"/>
      <point x="1556" y="1464"/>
      <point x="1098" y="1464" type="curve" smooth="yes"/>
      <point x="586" y="1464"/>
      <point x="158" y="1157"/>
      <point x="158" y="690" type="curve" smooth="yes"/>
      <point x="158" y="679"/>
      <point x="158" y="667"/>
      <point x="159" y="655" type="curve" smooth="yes"/>
      <point x="177" y="261"/>
      <point x="483" y="-84"/>
    </contour>
  </outline>
</glyph>
<glyph name="ordfeminine" format="1">
  <advance width="1304"/>
  <unicode hex="00AA"/>
  <outline>
    <contour>
      <point x="544" y="570" type="curve" smooth="yes"/>
      <point x="704" y="570"/>
      <point x="805" y="654"/>
      <point x="854" y="756" type="curve"/>
      <point x="894" y="596" type="line"/>
      <point x="1137" y="619" type="line"/>
      <point x="1139" y="1448" type="line"/>
      <point x="847" y="1478" type="line"/>
      <point x="845" y="1305" type="line"/>
      <point x="769" y="1427"/>
      <point x="678" y="1461"/>
      <point x="534" y="1461" type="curve" smooth="yes"/>
      <point x="323" y="1461"/>
      <point x="135" y="1298"/>
      <point x="135" y="987" type="curve" smooth="yes"/>
      <point x="135" y="693"/>
      <point x="350" y="570"/>
    </contour>
    <contour>
      <point x="654" y="815" type="curve"/>
      <point x="581" y="815"/>
      <point x="514" y="866"/>
      <point x="514" y="987" type="curve" smooth="yes"/>
      <point x="514" y="1096"/>
      <point x="565" y="1189"/>
      <point x="658" y="1189" type="curve" smooth="yes"/>
      <point x="749" y="1189"/>
      <point x="800" y="1110"/>
      <point x="800" y="1007" type="curve" smooth="yes"/>
      <point x="800" y="884"/>
      <point x="749" y="818"/>
    </contour>
  </outline>
</glyph>
<glyph name="guillemotleft" format="1">
  <advance width="2032"/>
  <unicode hex="00AB"/>
  <outline>
    <contour>
      <point x="956" y="825" type="curve"/>
      <point x="949" y="825"/>
      <point x="946" y="815"/>
      <point x="944" y="806" type="curve" smooth="yes"/>
      <point x="944" y="805"/>
      <point x="945" y="804"/>
      <point x="945" y="802" type="curve" smooth="yes"/>
      <point x="951" y="712"/>
      <point x="951" y="629"/>
      <point x="951" y="549" type="curve" smooth="yes"/>
      <point x="951" y="489" type="line" smooth="yes"/>
      <point x="951" y="461"/>
      <point x="959" y="453"/>
      <point x="995" y="432" type="curve"/>
      <point x="1535" y="53" type="line"/>
      <point x="1551" y="45"/>
      <point x="1558" y="41"/>
      <point x="1567" y="41" type="curve" smooth="yes"/>
      <point x="1578" y="41"/>
      <point x="1585" y="47"/>
      <point x="1589" y="60" type="curve" smooth="yes"/>
      <point x="1705" y="368" type="line" smooth="yes"/>
      <point x="1707" y="373"/>
      <point x="1708" y="378"/>
      <point x="1708" y="380" type="curve" smooth="yes"/>
      <point x="1708" y="384"/>
      <point x="1705" y="389"/>
      <point x="1701" y="392" type="curve" smooth="yes"/>
      <point x="1645" y="426"/>
      <point x="1361" y="597"/>
      <point x="1324" y="621" type="curve"/>
      <point x="1701" y="781" type="line"/>
      <point x="1708" y="782"/>
      <point x="1712" y="788"/>
      <point x="1712" y="804" type="curve"/>
      <point x="1690" y="1123" type="line" smooth="yes"/>
      <point x="1689" y="1133"/>
      <point x="1684" y="1138"/>
      <point x="1677" y="1138" type="curve" smooth="yes"/>
      <point x="1669" y="1138"/>
      <point x="1657" y="1135"/>
      <point x="1639" y="1131" type="curve"/>
      <point x="1400" y="1022"/>
      <point x="1071" y="889"/>
    </contour>
    <contour>
      <point x="120" y="825" type="curve"/>
      <point x="113" y="825"/>
      <point x="110" y="815"/>
      <point x="108" y="806" type="curve" smooth="yes"/>
      <point x="108" y="805"/>
      <point x="109" y="804"/>
      <point x="109" y="802" type="curve" smooth="yes"/>
      <point x="114" y="712"/>
      <point x="115" y="629"/>
      <point x="115" y="549" type="curve" smooth="yes"/>
      <point x="115" y="489" type="line" smooth="yes"/>
      <point x="115" y="461"/>
      <point x="122" y="453"/>
      <point x="159" y="432" type="curve"/>
      <point x="699" y="53" type="line"/>
      <point x="715" y="45"/>
      <point x="722" y="41"/>
      <point x="731" y="41" type="curve" smooth="yes"/>
      <point x="743" y="41"/>
      <point x="750" y="47"/>
      <point x="754" y="60" type="curve" smooth="yes"/>
      <point x="869" y="368" type="line" smooth="yes"/>
      <point x="871" y="373"/>
      <point x="872" y="378"/>
      <point x="872" y="380" type="curve" smooth="yes"/>
      <point x="872" y="384"/>
      <point x="869" y="389"/>
      <point x="865" y="392" type="curve" smooth="yes"/>
      <point x="809" y="426"/>
      <point x="524" y="597"/>
      <point x="489" y="621" type="curve"/>
      <point x="865" y="781" type="line"/>
      <point x="872" y="782"/>
      <point x="876" y="788"/>
      <point x="876" y="804" type="curve"/>
      <point x="855" y="1123" type="line"/>
      <point x="853" y="1133"/>
      <point x="849" y="1138"/>
      <point x="842" y="1138" type="curve" smooth="yes"/>
      <point x="833" y="1138"/>
      <point x="820" y="1135"/>
      <point x="803" y="1131" type="curve"/>
      <point x="563" y="1022"/>
      <point x="235" y="889"/>
    </contour>
  </outline>
</glyph>
<glyph name="logicalnot" format="1">
  <advance width="1216"/>
  <unicode hex="00AC"/>
  <outline>
    <contour>
      <point x="603" y="374" type="line"/>
      <point x="732" y="374" type="line"/>
      <point x="717" y="148" type="line"/>
      <point x="714" y="93" type="line"/>
      <point x="737" y="90" type="line"/>
      <point x="1022" y="83" type="line"/>
      <point x="1024" y="113"/>
      <point x="1045" y="482"/>
      <point x="1045" y="539" type="curve"/>
      <point x="1051" y="741" type="line"/>
      <point x="964" y="741" type="line" smooth="yes"/>
      <point x="922" y="741"/>
      <point x="772" y="740"/>
      <point x="606" y="736" type="curve"/>
      <point x="140" y="732" type="line"/>
      <point x="113" y="367" type="line"/>
      <point x="284" y="367" type="line"/>
    </contour>
  </outline>
</glyph>
<glyph name="uni00AD" format="1">
  <advance width="1042"/>
  <unicode hex="00AD"/>
  <outline>
    <contour>
      <point x="909" y="-10" type="curve" smooth="yes"/>
      <point x="930" y="-12"/>
      <point x="944" y="-13"/>
      <point x="954" y="-13" type="curve" smooth="yes"/>
      <point x="976" y="-13"/>
      <point x="979" y="-8"/>
      <point x="982" y="2" type="curve"/>
      <point x="994" y="79" type="line"/>
      <point x="1007" y="144"/>
      <point x="1010" y="175"/>
      <point x="1010" y="181" type="curve" smooth="yes"/>
      <point x="1010" y="206"/>
      <point x="986" y="209"/>
      <point x="964" y="209" type="curve" smooth="yes"/>
      <point x="882" y="209"/>
      <point x="566" y="201"/>
      <point x="537" y="201" type="curve" smooth="yes"/>
      <point x="179" y="189" type="line"/>
      <point x="176" y="190"/>
      <point x="172" y="190"/>
      <point x="169" y="190" type="curve" smooth="yes"/>
      <point x="93" y="190"/>
      <point x="-3" y="38"/>
      <point x="-3" y="18" type="curve"/>
      <point x="-5" y="14"/>
      <point x="-6" y="11"/>
      <point x="-6" y="9" type="curve" smooth="yes"/>
      <point x="-6" y="-8"/>
      <point x="37" y="-12"/>
      <point x="138" y="-12" type="curve"/>
      <point x="329" y="-8"/>
      <point x="468" y="-4"/>
      <point x="692" y="-4" type="curve" smooth="yes"/>
      <point x="754" y="-4"/>
      <point x="818" y="-4"/>
    </contour>
  </outline>
</glyph>
<glyph name="registered" format="1">
  <advance width="2071"/>
  <unicode hex="00AE"/>
  <outline>
    <contour>
      <point x="984" y="729" type="curve"/>
      <point x="1000" y="973" type="line"/>
      <point x="1020" y="976"/>
      <point x="1037" y="979"/>
      <point x="1063" y="979" type="curve" smooth="yes"/>
      <point x="1139" y="979"/>
      <point x="1179" y="946"/>
      <point x="1182" y="879" type="curve" smooth="yes"/>
      <point x="1185" y="821"/>
      <point x="1077" y="729"/>
    </contour>
    <contour>
      <point x="1246" y="251" type="curve" smooth="yes"/>
      <point x="1254" y="251"/>
      <point x="1264" y="251"/>
      <point x="1273" y="258" type="curve"/>
      <point x="1354" y="296"/>
      <point x="1398" y="312"/>
      <point x="1439" y="328" type="curve" smooth="yes"/>
      <point x="1448" y="331"/>
      <point x="1466" y="338"/>
      <point x="1483" y="346" type="curve"/>
      <point x="1296" y="607"/>
      <point x="1231" y="686"/>
      <point x="1231" y="689" type="curve"/>
      <point x="1253" y="701"/>
      <point x="1444" y="771"/>
      <point x="1438" y="909" type="curve" smooth="yes"/>
      <point x="1430" y="1082"/>
      <point x="1249" y="1141"/>
      <point x="1065" y="1141" type="curve" smooth="yes"/>
      <point x="932" y="1141"/>
      <point x="825" y="1126"/>
      <point x="735" y="1110" type="curve"/>
      <point x="733" y="1053"/>
      <point x="726" y="945"/>
      <point x="726" y="944" type="curve" smooth="yes"/>
      <point x="715" y="714"/>
      <point x="696" y="363"/>
      <point x="699" y="289" type="curve" smooth="yes"/>
      <point x="700" y="274"/>
      <point x="712" y="270"/>
      <point x="724" y="270" type="curve" smooth="yes"/>
      <point x="729" y="270"/>
      <point x="916" y="324"/>
      <point x="951" y="339" type="curve" smooth="yes"/>
      <point x="960" y="342"/>
      <point x="960" y="350"/>
      <point x="961" y="357" type="curve" smooth="yes"/>
      <point x="979" y="658" type="line"/>
      <point x="1194" y="293" type="line" smooth="yes"/>
      <point x="1200" y="281"/>
      <point x="1212" y="251"/>
    </contour>
    <contour>
      <point x="983" y="79" type="curve" smooth="yes"/>
      <point x="624" y="79"/>
      <point x="397" y="346"/>
      <point x="384" y="652" type="curve" smooth="yes"/>
      <point x="367" y="1028"/>
      <point x="692" y="1277"/>
      <point x="1085" y="1277" type="curve" smooth="yes"/>
      <point x="1428" y="1277"/>
      <point x="1679" y="1034"/>
      <point x="1692" y="730" type="curve" smooth="yes"/>
      <point x="1709" y="339"/>
      <point x="1390" y="79"/>
    </contour>
    <contour>
      <point x="960" y="-84" type="curve" smooth="yes"/>
      <point x="1504" y="-84"/>
      <point x="1931" y="252"/>
      <point x="1909" y="757" type="curve" smooth="yes"/>
      <point x="1891" y="1150"/>
      <point x="1556" y="1464"/>
      <point x="1098" y="1464" type="curve" smooth="yes"/>
      <point x="573" y="1464"/>
      <point x="137" y="1142"/>
      <point x="159" y="655" type="curve" smooth="yes"/>
      <point x="177" y="261"/>
      <point x="483" y="-84"/>
    </contour>
  </outline>
</glyph>
<glyph name="macron" format="1">
  <advance width="1389"/>
  <unicode hex="00AF"/>
  <outline>
    <contour>
      <point x="299" y="1010" type="line"/>
      <point x="257" y="584" type="line"/>
      <point x="384" y="586" type="line"/>
      <point x="492" y="586"/>
      <point x="860" y="594"/>
      <point x="1116" y="602" type="curve"/>
      <point x="1118" y="636" type="line"/>
      <point x="1121" y="687"/>
      <point x="1130" y="951"/>
      <point x="1132" y="1028" type="curve"/>
    </contour>
    <contour>
      <point x="694.5" y="1026" type="move" name="_top"/>
    </contour>
  </outline>
</glyph>
<glyph name="degree" format="1">
  <advance width="1007"/>
  <unicode hex="00B0"/>
  <outline>
    <contour>
      <point x="758" y="1026" type="curve" smooth="yes"/>
      <point x="758" y="911.579"/>
      <point x="694.553" y="796"/>
      <point x="557" y="796" type="curve"/>
      <point x="441" y="799"/>
      <point x="411" y="911"/>
      <point x="411" y="994" type="curve" smooth="yes"/>
      <point x="411" y="1100"/>
      <point x="479" y="1214"/>
      <point x="619" y="1214" type="curve" smooth="yes"/>
      <point x="725" y="1214"/>
      <point x="758" y="1107"/>
    </contour>
    <contour>
      <point x="587" y="558" type="curve" smooth="yes"/>
      <point x="873" y="558"/>
      <point x="1050" y="798"/>
      <point x="1050" y="1035" type="curve" smooth="yes"/>
      <point x="1050" y="1284"/>
      <point x="860" y="1448"/>
      <point x="616" y="1448" type="curve" smooth="yes"/>
      <point x="340" y="1448"/>
      <point x="131" y="1239"/>
      <point x="131" y="990" type="curve" smooth="yes"/>
      <point x="131" y="717"/>
      <point x="330" y="558"/>
    </contour>
  </outline>
</glyph>
<glyph name="plusminus" format="1">
  <advance width="1045"/>
  <unicode hex="00B1"/>
  <outline>
    <contour>
      <point x="584" y="12" type="line" smooth="yes"/>
      <point x="636" y="13"/>
      <point x="716" y="13"/>
      <point x="783" y="13" type="curve"/>
      <point x="995" y="13" type="line" smooth="yes"/>
      <point x="1005" y="229" type="line"/>
      <point x="115" y="223" type="line"/>
      <point x="92" y="31" type="line"/>
      <point x="89" y="7" type="line"/>
    </contour>
    <contour>
      <point x="1012" y="969" type="line"/>
      <point x="990" y="969"/>
      <point x="836.203" y="968.365"/>
      <point x="745" y="963" type="curve"/>
      <point x="745" y="963"/>
      <point x="764" y="1232"/>
      <point x="764" y="1241" type="curve"/>
      <point x="736" y="1241" type="line"/>
      <point x="641" y="1238" type="line"/>
      <point x="592" y="1238"/>
      <point x="488" y="1235"/>
      <point x="472" y="1235" type="curve"/>
      <point x="453" y="979" type="line"/>
      <point x="451" y="958" type="line"/>
      <point x="181" y="955" type="line" smooth="yes"/>
      <point x="178" y="922" type="line"/>
      <point x="153" y="687" type="line"/>
      <point x="151" y="659" type="line"/>
      <point x="182" y="659"/>
      <point x="355" y="659"/>
      <point x="423" y="660" type="curve"/>
      <point x="403" y="445" type="line"/>
      <point x="403" y="439" type="line" smooth="yes"/>
      <point x="399" y="397" type="line"/>
      <point x="458" y="397"/>
      <point x="611" y="393"/>
      <point x="656" y="393" type="curve"/>
      <point x="708" y="393" type="line"/>
      <point x="721" y="665" type="line"/>
      <point x="994" y="668" type="line"/>
    </contour>
  </outline>
</glyph>
<glyph name="twosuperior" format="1">
  <advance width="2358"/>
  <unicode hex="00B2"/>
  <outline>
    <contour>
      <point x="1649" y="1234" type="curve" smooth="yes"/>
      <point x="1649" y="1405"/>
      <point x="1473" y="1455"/>
      <point x="1288" y="1455" type="curve" smooth="yes"/>
      <point x="1115" y="1455"/>
      <point x="934" y="1412"/>
      <point x="877" y="1383" type="curve"/>
      <point x="873" y="1375"/>
      <point x="832" y="1258"/>
      <point x="815" y="1200" type="curve"/>
      <point x="835" y="1187" type="line"/>
      <point x="863" y="1199" type="line" smooth="yes"/>
      <point x="929" y="1227"/>
      <point x="987" y="1242"/>
      <point x="1032" y="1242" type="curve" smooth="yes"/>
      <point x="1093" y="1242"/>
      <point x="1130" y="1215"/>
      <point x="1130" y="1161" type="curve" smooth="yes"/>
      <point x="1130" y="1091"/>
      <point x="1068" y="974"/>
      <point x="918" y="809" type="curve" smooth="yes"/>
      <point x="816" y="697" type="line"/>
      <point x="792" y="673"/>
      <point x="773" y="655"/>
      <point x="773" y="640" type="curve" smooth="yes"/>
      <point x="773" y="619"/>
      <point x="812" y="607"/>
      <point x="929" y="607" type="curve" smooth="yes"/>
      <point x="1103" y="607"/>
      <point x="1180" y="608"/>
      <point x="1487" y="611" type="curve" smooth="yes"/>
      <point x="1502" y="612"/>
      <point x="1524" y="611"/>
      <point x="1547" y="625" type="curve" smooth="yes"/>
      <point x="1548" y="625"/>
      <point x="1549" y="630"/>
      <point x="1551" y="630" type="curve"/>
      <point x="1682" y="782" type="line"/>
      <point x="1682" y="782"/>
      <point x="1695" y="796"/>
      <point x="1695" y="806" type="curve" smooth="yes"/>
      <point x="1695" y="814"/>
      <point x="1679" y="819"/>
      <point x="1648" y="819" type="curve" smooth="yes"/>
      <point x="1558" y="819"/>
      <point x="1323" y="801"/>
      <point x="1285" y="801" type="curve" smooth="yes"/>
      <point x="1282" y="801" type="line" smooth="yes"/>
      <point x="1281" y="801" type="line"/>
      <point x="1423" y="942" type="line" smooth="yes"/>
      <point x="1497" y="1015"/>
      <point x="1574" y="1093"/>
      <point x="1593" y="1119" type="curve"/>
      <point x="1632" y="1159"/>
      <point x="1649" y="1198"/>
    </contour>
  </outline>
</glyph>
<glyph name="uni00B2" format="1">
  <advance width="1060"/>
  <unicode hex="00B2"/>
  <outline>
    <contour>
      <point x="941" y="1272" type="curve" smooth="yes"/>
      <point x="941" y="1443"/>
      <point x="765" y="1493"/>
      <point x="580" y="1493" type="curve" smooth="yes"/>
      <point x="407" y="1493"/>
      <point x="226" y="1450"/>
      <point x="169" y="1421" type="curve"/>
      <point x="165" y="1413"/>
      <point x="124" y="1296"/>
      <point x="107" y="1238" type="curve"/>
      <point x="127" y="1225" type="line"/>
      <point x="155" y="1237" type="line" smooth="yes"/>
      <point x="221" y="1265"/>
      <point x="279" y="1280"/>
      <point x="324" y="1280" type="curve" smooth="yes"/>
      <point x="385" y="1280"/>
      <point x="422" y="1253"/>
      <point x="422" y="1199" type="curve" smooth="yes"/>
      <point x="422" y="1129"/>
      <point x="360" y="1012"/>
      <point x="210" y="847" type="curve" smooth="yes"/>
      <point x="108" y="735" type="line"/>
      <point x="84" y="711"/>
      <point x="65" y="693"/>
      <point x="65" y="678" type="curve" smooth="yes"/>
      <point x="65" y="657"/>
      <point x="104" y="645"/>
      <point x="221" y="645" type="curve" smooth="yes"/>
      <point x="395" y="645"/>
      <point x="472" y="646"/>
      <point x="779" y="649" type="curve" smooth="yes"/>
      <point x="794" y="650"/>
      <point x="816" y="649"/>
      <point x="839" y="663" type="curve" smooth="yes"/>
      <point x="840" y="663"/>
      <point x="841" y="668"/>
      <point x="843" y="668" type="curve"/>
      <point x="974" y="820" type="line"/>
      <point x="974" y="820"/>
      <point x="987" y="834"/>
      <point x="987" y="844" type="curve" smooth="yes"/>
      <point x="987" y="852"/>
      <point x="971" y="857"/>
      <point x="940" y="857" type="curve" smooth="yes"/>
      <point x="850" y="857"/>
      <point x="615" y="839"/>
      <point x="577" y="839" type="curve" smooth="yes"/>
      <point x="574" y="839" type="line" smooth="yes"/>
      <point x="573" y="839" type="line"/>
      <point x="715" y="980" type="line" smooth="yes"/>
      <point x="789" y="1053"/>
      <point x="866" y="1131"/>
      <point x="885" y="1157" type="curve"/>
      <point x="924" y="1197"/>
      <point x="941" y="1236"/>
    </contour>
  </outline>
</glyph>
<glyph name="uni00B3" format="1">
  <advance width="1183"/>
  <unicode hex="00B3"/>
  <outline>
    <contour>
      <point x="942" y="831" type="curve" smooth="yes"/>
      <point x="942" y="963"/>
      <point x="854" y="1022"/>
      <point x="793" y="1049" type="curve"/>
      <point x="847" y="1084"/>
      <point x="927" y="1148"/>
      <point x="927" y="1250" type="curve" smooth="yes"/>
      <point x="927" y="1417"/>
      <point x="763" y="1485"/>
      <point x="558" y="1485" type="curve" smooth="yes"/>
      <point x="464" y="1485"/>
      <point x="362" y="1471"/>
      <point x="263" y="1446" type="curve"/>
      <point x="263" y="1259" type="line"/>
      <point x="310" y="1274"/>
      <point x="379" y="1290"/>
      <point x="439" y="1290" type="curve" smooth="yes"/>
      <point x="485" y="1290"/>
      <point x="512" y="1248"/>
      <point x="512" y="1206" type="curve" smooth="yes"/>
      <point x="512" y="1165"/>
      <point x="485" y="1124"/>
      <point x="425" y="1124" type="curve" smooth="yes"/>
      <point x="351" y="1124" type="line"/>
      <point x="335" y="945" type="line"/>
      <point x="449" y="945" type="line" smooth="yes"/>
      <point x="497" y="945"/>
      <point x="520" y="907"/>
      <point x="520" y="868" type="curve" smooth="yes"/>
      <point x="520" y="827"/>
      <point x="495" y="785"/>
      <point x="445" y="785" type="curve" smooth="yes"/>
      <point x="391" y="785"/>
      <point x="325" y="799"/>
      <point x="269" y="816" type="curve"/>
      <point x="268" y="604" type="line"/>
      <point x="331" y="571"/>
      <point x="446" y="541"/>
      <point x="560" y="541" type="curve" smooth="yes"/>
      <point x="814" y="541"/>
      <point x="942" y="670"/>
    </contour>
  </outline>
</glyph>
<glyph name="acute" format="1">
  <advance width="694"/>
  <unicode hex="00B4"/>
  <outline>
    <contour>
      <point x="234" y="1206" type="curve" smooth="yes"/>
      <point x="235" y="1206"/>
      <point x="237" y="1205"/>
      <point x="237" y="1205" type="curve"/>
      <point x="322.882" y="1269.71"/>
      <point x="569" y="1471"/>
      <point x="670" y="1552" type="curve"/>
      <point x="623" y="1566"/>
      <point x="372" y="1638"/>
      <point x="326" y="1650" type="curve"/>
      <point x="304" y="1619"/>
      <point x="144" y="1382"/>
      <point x="63" y="1247" type="curve"/>
      <point x="99" y="1238"/>
      <point x="216" y="1209"/>
    </contour>
    <contour>
      <point x="366.5" y="1026" type="move" name="_top"/>
    </contour>
  </outline>
</glyph>
<glyph name="paragraph" format="1">
  <advance width="1486"/>
  <unicode hex="00B6"/>
  <outline>
    <contour>
      <point x="800" y="-62" type="line"/>
      <point x="810" y="305" type="line"/>
      <point x="826" y="1173" type="line"/>
      <point x="943" y="1166" type="line"/>
      <point x="900" y="-75" type="line"/>
      <point x="1248" y="-71" type="line"/>
      <point x="1251" y="15"/>
      <point x="1258" y="166"/>
      <point x="1260" y="296" type="curve"/>
      <point x="1269" y="537" type="line"/>
      <point x="1281" y="748"/>
      <point x="1275" y="1040"/>
      <point x="1283" y="1167" type="curve"/>
      <point x="1360" y="1163"/>
      <point x="1431" y="1161"/>
      <point x="1456" y="1161" type="curve"/>
      <point x="1456" y="1161"/>
      <point x="1451" y="1412"/>
      <point x="1451" y="1412" type="curve"/>
      <point x="1356" y="1420"/>
      <point x="936" y="1441"/>
      <point x="723" y="1446" type="curve" smooth="yes"/>
      <point x="695" y="1446" type="line" smooth="yes"/>
      <point x="397" y="1446"/>
      <point x="77" y="1357"/>
      <point x="77" y="1085" type="curve" smooth="yes"/>
      <point x="77" y="1071"/>
      <point x="78" y="1056"/>
      <point x="80" y="1041" type="curve" smooth="yes"/>
      <point x="100" y="865"/>
      <point x="250" y="739"/>
      <point x="473" y="669" type="curve"/>
      <point x="451" y="-61" type="line" smooth="yes"/>
      <point x="450" y="-62"/>
      <point x="450" y="-66"/>
      <point x="450" y="-70" type="curve"/>
    </contour>
  </outline>
</glyph>
<glyph name="cedilla" format="1">
  <advance width="545"/>
  <unicode hex="00B8"/>
  <outline>
    <contour>
      <point x="337" y="-156" type="curve" smooth="yes"/>
      <point x="321" y="-156"/>
      <point x="303" y="-157"/>
      <point x="285" y="-159" type="curve"/>
      <point x="333" y="-17" type="line"/>
      <point x="154" y="-17" type="line"/>
      <point x="91" y="-266" type="line"/>
      <point x="250" y="-287" type="line" smooth="yes"/>
      <point x="300" y="-294"/>
      <point x="320" y="-323"/>
      <point x="320" y="-355" type="curve" smooth="yes"/>
      <point x="320" y="-403"/>
      <point x="286" y="-448"/>
      <point x="217" y="-448" type="curve" smooth="yes"/>
      <point x="176" y="-448"/>
      <point x="125" y="-433"/>
      <point x="61" y="-394" type="curve"/>
      <point x="21" y="-537" type="line"/>
      <point x="89" y="-585"/>
      <point x="174" y="-610"/>
      <point x="255" y="-610" type="curve" smooth="yes"/>
      <point x="399" y="-610"/>
      <point x="531" y="-532"/>
      <point x="531" y="-365" type="curve" smooth="yes"/>
      <point x="531" y="-243"/>
      <point x="478" y="-156"/>
    </contour>
    <contour>
      <point x="276" y="0" type="move" name="_bottom"/>
    </contour>
  </outline>
</glyph>
<glyph name="onesuperior" format="1">
  <advance width="2325"/>
  <unicode hex="00B9"/>
  <outline>
    <contour>
      <point x="573" y="562" type="line"/>
      <point x="633" y="1350" type="line"/>
      <point x="638" y="1406" type="line" smooth="yes"/>
      <point x="638" y="1415"/>
      <point x="637" y="1419"/>
      <point x="631" y="1420" type="curve"/>
      <point x="631" y="1421" type="line" smooth="yes"/>
      <point x="631" y="1426"/>
      <point x="629" y="1427"/>
      <point x="625" y="1427" type="curve"/>
      <point x="626" y="1427"/>
      <point x="626" y="1428"/>
      <point x="626" y="1428" type="curve"/>
      <point x="48" y="1349" type="line"/>
      <point x="68" y="1169" type="line"/>
      <point x="231" y="1196" type="line"/>
      <point x="214" y="1046"/>
      <point x="173" y="599"/>
      <point x="168" y="573" type="curve"/>
      <point x="167" y="575"/>
      <point x="166" y="577"/>
      <point x="166" y="580" type="curve" smooth="yes"/>
      <point x="166" y="568" type="line"/>
      <point x="167" y="568"/>
      <point x="167" y="570"/>
      <point x="168" y="573" type="curve"/>
      <point x="176" y="557"/>
      <point x="195" y="551"/>
      <point x="218" y="551" type="curve" smooth="yes"/>
    </contour>
  </outline>
</glyph>
<glyph name="ordmasculine" format="1">
  <advance width="1029"/>
  <unicode hex="00BA"/>
  <outline>
    <contour>
      <point x="609" y="1245" type="curve" smooth="yes"/>
      <point x="696" y="1245"/>
      <point x="782" y="1170"/>
      <point x="782" y="1031" type="curve" smooth="yes"/>
      <point x="782" y="861"/>
      <point x="693" y="784"/>
      <point x="605" y="784" type="curve" smooth="yes"/>
      <point x="517" y="784"/>
      <point x="430" y="860"/>
      <point x="430" y="994" type="curve" smooth="yes"/>
      <point x="430" y="1166"/>
      <point x="520" y="1245"/>
    </contour>
    <contour>
      <point x="1070" y="1038" type="curve" smooth="yes"/>
      <point x="1070" y="1258"/>
      <point x="942" y="1481"/>
      <point x="627" y="1481" type="curve" smooth="yes"/>
      <point x="278" y="1481"/>
      <point x="130" y="1241"/>
      <point x="130" y="976" type="curve" smooth="yes"/>
      <point x="130" y="753"/>
      <point x="281" y="546"/>
      <point x="575" y="546" type="curve" smooth="yes"/>
      <point x="847" y="546"/>
      <point x="1070" y="726"/>
    </contour>
  </outline>
</glyph>
<glyph name="guillemotright" format="1">
  <advance width="2011"/>
  <unicode hex="00BB"/>
  <outline>
    <contour>
      <point x="1023" y="842" type="curve" smooth="yes"/>
      <point x="1022" y="852"/>
      <point x="1018" y="861"/>
      <point x="1010" y="861" type="curve"/>
      <point x="877" y="925"/>
      <point x="567" y="1070"/>
      <point x="287" y="1178" type="curve"/>
      <point x="266" y="1184"/>
      <point x="251" y="1187"/>
      <point x="242" y="1187" type="curve" smooth="yes"/>
      <point x="233" y="1187"/>
      <point x="228" y="1182"/>
      <point x="226" y="1171" type="curve" smooth="yes"/>
      <point x="187" y="850" type="line"/>
      <point x="187" y="835"/>
      <point x="191" y="828"/>
      <point x="199" y="827" type="curve"/>
      <point x="579" y="655" type="line"/>
      <point x="534" y="631"/>
      <point x="252" y="470"/>
      <point x="183" y="434" type="curve" smooth="yes"/>
      <point x="176" y="431"/>
      <point x="175" y="428"/>
      <point x="175" y="423" type="curve" smooth="yes"/>
      <point x="175" y="419"/>
      <point x="176" y="415"/>
      <point x="177" y="411" type="curve" smooth="yes"/>
      <point x="302" y="100" type="line" smooth="yes"/>
      <point x="307" y="87"/>
      <point x="312" y="81"/>
      <point x="327" y="81" type="curve" smooth="yes"/>
      <point x="338" y="81"/>
      <point x="346" y="85"/>
      <point x="365" y="93" type="curve"/>
      <point x="961" y="465" type="line"/>
      <point x="1004" y="486"/>
      <point x="1015" y="494"/>
      <point x="1015" y="521" type="curve" smooth="yes"/>
      <point x="1022" y="837" type="line" smooth="yes"/>
      <point x="1022" y="840"/>
      <point x="1023" y="841"/>
    </contour>
    <contour>
      <point x="1946" y="812" type="curve" smooth="yes"/>
      <point x="1945" y="822"/>
      <point x="1943" y="853"/>
      <point x="1933" y="859" type="curve"/>
      <point x="1800" y="923"/>
      <point x="1527" y="1060"/>
      <point x="1247" y="1168" type="curve"/>
      <point x="1226" y="1174"/>
      <point x="1211" y="1177"/>
      <point x="1202" y="1177" type="curve" smooth="yes"/>
      <point x="1193" y="1177"/>
      <point x="1188" y="1172"/>
      <point x="1186" y="1161" type="curve" smooth="yes"/>
      <point x="1147" y="840" type="line"/>
      <point x="1147" y="825"/>
      <point x="1151" y="818"/>
      <point x="1159" y="817" type="curve"/>
      <point x="1489" y="655" type="line"/>
      <point x="1444" y="631"/>
      <point x="1222" y="460"/>
      <point x="1153" y="424" type="curve" smooth="yes"/>
      <point x="1146" y="421"/>
      <point x="1145" y="418"/>
      <point x="1145" y="413" type="curve" smooth="yes"/>
      <point x="1145" y="409"/>
      <point x="1146" y="405"/>
      <point x="1147" y="401" type="curve" smooth="yes"/>
      <point x="1272" y="90" type="line" smooth="yes"/>
      <point x="1277" y="77"/>
      <point x="1282" y="71"/>
      <point x="1297" y="71" type="curve" smooth="yes"/>
      <point x="1308" y="71"/>
      <point x="1316" y="75"/>
      <point x="1335" y="83" type="curve"/>
      <point x="1891" y="475" type="line"/>
      <point x="1932" y="500"/>
      <point x="1945" y="514"/>
      <point x="1945" y="541" type="curve" smooth="yes"/>
      <point x="1945" y="807" type="line" smooth="yes"/>
      <point x="1945" y="810"/>
      <point x="1946" y="811"/>
    </contour>
  </outline>
</glyph>
<glyph name="onequarter" format="1">
  <advance width="2325"/>
  <unicode hex="00BC"/>
  <outline>
    <contour>
      <point x="1516" y="391" type="line"/>
      <point x="1777" y="823" type="line"/>
      <point x="1727" y="391" type="line"/>
    </contour>
    <contour>
      <point x="2249" y="402" type="line"/>
      <point x="2217" y="402" type="line" smooth="yes"/>
      <point x="2206" y="402"/>
      <point x="2179" y="401"/>
      <point x="2097" y="400" type="curve"/>
      <point x="2113" y="631"/>
      <point x="2127" y="720"/>
      <point x="2142" y="949" type="curve"/>
      <point x="2142" y="955" type="line" smooth="yes"/>
      <point x="2142" y="972"/>
      <point x="2135" y="975"/>
      <point x="2120" y="975" type="curve" smooth="yes"/>
      <point x="2113" y="975"/>
      <point x="2106" y="975"/>
      <point x="2096" y="974" type="curve" smooth="yes"/>
      <point x="1712" y="973" type="line" smooth="yes"/>
      <point x="1663" y="973"/>
      <point x="1657" y="967"/>
      <point x="1649" y="955" type="curve" smooth="yes"/>
      <point x="1145" y="222" type="line"/>
      <point x="1137" y="215"/>
      <point x="1136" y="209"/>
      <point x="1136" y="206" type="curve" smooth="yes"/>
      <point x="1136" y="188"/>
      <point x="1178" y="185"/>
      <point x="1287" y="185" type="curve" smooth="yes"/>
      <point x="1353" y="185"/>
      <point x="1493" y="187"/>
      <point x="1702" y="187" type="curve"/>
      <point x="1686" y="14" type="line" smooth="yes"/>
      <point x="1684" y="-5"/>
      <point x="1701" y="-9"/>
      <point x="1719" y="-9" type="curve" smooth="yes"/>
      <point x="1757" y="-9"/>
      <point x="2010" y="-2"/>
      <point x="2035" y="6" type="curve"/>
      <point x="2048" y="9"/>
      <point x="2051" y="17"/>
      <point x="2051" y="24" type="curve" smooth="yes"/>
      <point x="2068" y="189" type="line"/>
      <point x="2241" y="189" type="line"/>
    </contour>
    <contour>
      <point x="944" y="897" type="curve" smooth="yes"/>
      <point x="737" y="558"/>
      <point x="619" y="342"/>
      <point x="464" y="95" type="curve" smooth="yes"/>
      <point x="460" y="88"/>
      <point x="458" y="82"/>
      <point x="458" y="77" type="curve" smooth="yes"/>
      <point x="458" y="44"/>
      <point x="556" y="25"/>
      <point x="581" y="18" type="curve" smooth="yes"/>
      <point x="708" y="-22" type="line"/>
      <point x="719" y="-27"/>
      <point x="731" y="-29"/>
      <point x="741" y="-29" type="curve" smooth="yes"/>
      <point x="767" y="-29"/>
      <point x="763" y="-10"/>
      <point x="777" y="13" type="curve" smooth="yes"/>
      <point x="1583" y="1360" type="line"/>
      <point x="1583" y="1363" type="line" smooth="yes"/>
      <point x="1583" y="1370"/>
      <point x="1574" y="1373"/>
      <point x="1564" y="1375" type="curve" smooth="yes"/>
      <point x="1475" y="1388"/>
      <point x="1388" y="1427"/>
      <point x="1297" y="1454" type="curve"/>
      <point x="1289" y="1454" type="line" smooth="yes"/>
      <point x="1265" y="1454"/>
      <point x="1258" y="1442"/>
      <point x="1237" y="1405" type="curve" smooth="yes"/>
      <point x="1136" y="1231"/>
      <point x="1046" y="1065"/>
    </contour>
    <contour>
      <point x="573" y="562" type="line"/>
      <point x="633" y="1350" type="line"/>
      <point x="638" y="1406" type="line" smooth="yes"/>
      <point x="638" y="1415"/>
      <point x="637" y="1419"/>
      <point x="631" y="1420" type="curve"/>
      <point x="631" y="1421" type="line" smooth="yes"/>
      <point x="631" y="1426"/>
      <point x="629" y="1427"/>
      <point x="625" y="1427" type="curve"/>
      <point x="626" y="1427"/>
      <point x="626" y="1428"/>
      <point x="626" y="1428" type="curve"/>
      <point x="48" y="1349" type="line"/>
      <point x="68" y="1169" type="line"/>
      <point x="231" y="1196" type="line"/>
      <point x="214" y="1046"/>
      <point x="173" y="599"/>
      <point x="168" y="573" type="curve"/>
      <point x="167" y="575"/>
      <point x="166" y="577"/>
      <point x="166" y="580" type="curve" smooth="yes"/>
      <point x="166" y="568" type="line"/>
      <point x="167" y="568"/>
      <point x="167" y="570"/>
      <point x="168" y="573" type="curve"/>
      <point x="176" y="557"/>
      <point x="195" y="551"/>
      <point x="218" y="551" type="curve" smooth="yes"/>
    </contour>
  </outline>
</glyph>
<glyph name="onehalf" format="1">
  <advance width="2358"/>
  <unicode hex="00BD"/>
  <outline>
    <contour>
      <point x="2179" y="624" type="curve" smooth="yes"/>
      <point x="2179" y="795"/>
      <point x="2003" y="845"/>
      <point x="1818" y="845" type="curve" smooth="yes"/>
      <point x="1645" y="845"/>
      <point x="1464" y="802"/>
      <point x="1407" y="773" type="curve"/>
      <point x="1403" y="765"/>
      <point x="1362" y="648"/>
      <point x="1345" y="590" type="curve"/>
      <point x="1365" y="577" type="line"/>
      <point x="1393" y="589" type="line" smooth="yes"/>
      <point x="1459" y="617"/>
      <point x="1517" y="632"/>
      <point x="1562" y="632" type="curve" smooth="yes"/>
      <point x="1623" y="632"/>
      <point x="1660" y="605"/>
      <point x="1660" y="551" type="curve" smooth="yes"/>
      <point x="1660" y="481"/>
      <point x="1598" y="364"/>
      <point x="1448" y="199" type="curve" smooth="yes"/>
      <point x="1346" y="87" type="line"/>
      <point x="1322" y="63"/>
      <point x="1303" y="45"/>
      <point x="1303" y="30" type="curve" smooth="yes"/>
      <point x="1303" y="9"/>
      <point x="1342" y="-3"/>
      <point x="1459" y="-3" type="curve" smooth="yes"/>
      <point x="1633" y="-3"/>
      <point x="1710" y="-2"/>
      <point x="2017" y="1" type="curve" smooth="yes"/>
      <point x="2032" y="2"/>
      <point x="2054" y="1"/>
      <point x="2077" y="15" type="curve" smooth="yes"/>
      <point x="2078" y="15"/>
      <point x="2079" y="20"/>
      <point x="2081" y="20" type="curve"/>
      <point x="2212" y="172" type="line"/>
      <point x="2212" y="172"/>
      <point x="2225" y="186"/>
      <point x="2225" y="196" type="curve" smooth="yes"/>
      <point x="2225" y="204"/>
      <point x="2209" y="209"/>
      <point x="2178" y="209" type="curve" smooth="yes"/>
      <point x="2088" y="209"/>
      <point x="1853" y="191"/>
      <point x="1815" y="191" type="curve" smooth="yes"/>
      <point x="1812" y="191" type="line" smooth="yes"/>
      <point x="1811" y="191" type="line"/>
      <point x="1953" y="332" type="line" smooth="yes"/>
      <point x="2027" y="405"/>
      <point x="2104" y="483"/>
      <point x="2123" y="509" type="curve"/>
      <point x="2162" y="549"/>
      <point x="2179" y="588"/>
    </contour>
    <contour>
      <point x="464" y="95" type="curve" smooth="yes"/>
      <point x="460" y="88"/>
      <point x="458" y="82"/>
      <point x="458" y="77" type="curve" smooth="yes"/>
      <point x="458" y="44"/>
      <point x="556" y="25"/>
      <point x="581" y="18" type="curve" smooth="yes"/>
      <point x="708" y="-22" type="line"/>
      <point x="719" y="-27"/>
      <point x="731" y="-29"/>
      <point x="741" y="-29" type="curve" smooth="yes"/>
      <point x="767" y="-29"/>
      <point x="763" y="-10"/>
      <point x="777" y="13" type="curve" smooth="yes"/>
      <point x="1583" y="1360" type="line"/>
      <point x="1583" y="1363" type="line" smooth="yes"/>
      <point x="1583" y="1370"/>
      <point x="1574" y="1373"/>
      <point x="1564" y="1375" type="curve" smooth="yes"/>
      <point x="1475" y="1388"/>
      <point x="1388" y="1427"/>
      <point x="1297" y="1454" type="curve"/>
      <point x="1289" y="1454" type="line" smooth="yes"/>
      <point x="1265" y="1454"/>
      <point x="1258" y="1442"/>
      <point x="1237" y="1405" type="curve" smooth="yes"/>
      <point x="1136" y="1231"/>
      <point x="1046" y="1065"/>
      <point x="944" y="897" type="curve" smooth="yes"/>
      <point x="737" y="558"/>
      <point x="619" y="342"/>
    </contour>
    <contour>
      <point x="166" y="580" type="curve" smooth="yes"/>
      <point x="166" y="568" type="line"/>
      <point x="167" y="568"/>
      <point x="167" y="570"/>
      <point x="168" y="573" type="curve"/>
      <point x="176" y="557"/>
      <point x="195" y="551"/>
      <point x="218" y="551" type="curve" smooth="yes"/>
      <point x="573" y="562" type="line"/>
      <point x="633" y="1350" type="line"/>
      <point x="638" y="1406" type="line" smooth="yes"/>
      <point x="638" y="1415"/>
      <point x="637" y="1419"/>
      <point x="631" y="1420" type="curve"/>
      <point x="631" y="1421" type="line" smooth="yes"/>
      <point x="631" y="1426"/>
      <point x="629" y="1427"/>
      <point x="625" y="1427" type="curve"/>
      <point x="626" y="1427"/>
      <point x="626" y="1428"/>
      <point x="626" y="1428" type="curve"/>
      <point x="48" y="1349" type="line"/>
      <point x="68" y="1169" type="line"/>
      <point x="231" y="1196" type="line"/>
      <point x="214" y="1046"/>
      <point x="173" y="599"/>
      <point x="168" y="573" type="curve"/>
      <point x="167" y="575"/>
      <point x="166" y="577"/>
    </contour>
  </outline>
</glyph>
